  0
SECTION
  2
BLOCKS
  0
ENDSEC
  0
SECTION
  2
ENTITIES
  0
LINE
  8
0
 10
306.037
 20
-162.607
 11
306.914
 21
-162.341
  0
LINE
  8
0
 10
306.914
 20
-162.341
 11
307.722
 21
-161.909
  0
LINE
  8
0
 10
307.722
 20
-161.909
 11
308.431
 21
-161.328
  0
LINE
  8
0
 10
308.431
 20
-161.328
 11
309.012
 21
-160.619
  0
LINE
  8
0
 10
309.012
 20
-160.619
 11
323.178
 21
-136.82
  0
LINE
  8
0
 10
323.178
 20
-136.82
 11
325.701
 21
-132.612
  0
LINE
  8
0
 10
325.701
 20
-132.612
 11
328.624
 21
-128.67
  0
LINE
  8
0
 10
328.624
 20
-128.67
 11
331.919
 21
-125.035
  0
LINE
  8
0
 10
331.919
 20
-125.035
 11
335.555
 21
-121.74
  0
LINE
  8
0
 10
335.555
 20
-121.74
 11
339.496
 21
-118.817
  0
LINE
  8
0
 10
339.496
 20
-118.817
 11
343.705
 21
-116.294
  0
LINE
  8
0
 10
343.705
 20
-116.294
 11
408.806
 21
-84.5573
  0
LINE
  8
0
 10
408.806
 20
-84.5573
 11
409.614
 21
-84.1253
  0
LINE
  8
0
 10
409.614
 20
-84.1253
 11
410.322
 21
-83.5439
  0
LINE
  8
0
 10
410.322
 20
-83.5439
 11
410.904
 21
-82.8355
  0
LINE
  8
0
 10
410.904
 20
-82.8355
 11
411.336
 21
-82.0272
  0
LINE
  8
0
 10
411.336
 20
-82.0272
 11
411.602
 21
-81.1502
  0
LINE
  8
0
 10
411.602
 20
-81.1502
 11
411.691
 21
-80.2382
  0
LINE
  8
0
 10
411.691
 20
-80.2382
 11
411.602
 21
-79.3262
  0
LINE
  8
0
 10
411.602
 20
-79.3262
 11
403.408
 21
-3.76295
  0
LINE
  8
0
 10
403.408
 20
-3.76295
 11
403.142
 21
-2.88596
  0
LINE
  8
0
 10
403.142
 20
-2.88596
 11
402.71
 21
-2.0777
  0
LINE
  8
0
 10
402.71
 20
-2.0777
 11
402.129
 21
-1.36928
  0
LINE
  8
0
 10
402.129
 20
-1.36928
 11
401.42
 21
-0.787872
  0
LINE
  8
0
 10
401.42
 20
-0.787872
 11
400.612
 21
-0.355865
  0
LINE
  8
0
 10
400.612
 20
-0.355865
 11
399.735
 21
-0.0898285
  0
LINE
  8
0
 10
399.735
 20
-0.0898285
 11
398.823
 21
0
  0
LINE
  8
0
 10
398.823
 20
0
 11
4.67499
 21
0
  0
LINE
  8
0
 10
4.67499
 20
0
 11
3.76295
 21
-0.0898285
  0
LINE
  8
0
 10
3.76295
 20
-0.0898285
 11
2.88596
 21
-0.355865
  0
LINE
  8
0
 10
2.88596
 20
-0.355865
 11
2.0777
 21
-0.787872
  0
LINE
  8
0
 10
2.0777
 20
-0.787872
 11
1.36928
 21
-1.36928
  0
LINE
  8
0
 10
1.36928
 20
-1.36928
 11
0.787872
 21
-2.0777
  0
LINE
  8
0
 10
0.787872
 20
-2.0777
 11
0.355865
 21
-2.88596
  0
LINE
  8
0
 10
0.355865
 20
-2.88596
 11
0.0898285
 21
-3.76295
  0
LINE
  8
0
 10
0.0898285
 20
-3.76295
 11
0
 21
-4.67499
  0
LINE
  8
0
 10
0
 20
-4.67499
 11
0
 21
-21.9875
  0
LINE
  8
0
 10
0
 20
-21.9875
 11
0.0898285
 21
-22.8996
  0
LINE
  8
0
 10
0.0898285
 20
-22.8996
 11
0.355865
 21
-23.7766
  0
LINE
  8
0
 10
0.355865
 20
-23.7766
 11
0.787872
 21
-24.5848
  0
LINE
  8
0
 10
0.787872
 20
-24.5848
 11
1.36928
 21
-25.2933
  0
LINE
  8
0
 10
1.36928
 20
-25.2933
 11
2.0777
 21
-25.8747
  0
LINE
  8
0
 10
2.0777
 20
-25.8747
 11
2.88596
 21
-26.3067
  0
LINE
  8
0
 10
2.88596
 20
-26.3067
 11
303.336
 21
-162.341
  0
LINE
  8
0
 10
303.336
 20
-162.341
 11
304.213
 21
-162.607
  0
LINE
  8
0
 10
304.213
 20
-162.607
 11
305.125
 21
-162.697
  0
LINE
  8
0
 10
305.125
 20
-162.697
 11
306.037
 21
-162.607
  0
LINE
  8
0
 10
29.7122
 20
-9.19666
 11
29.4355
 21
-9.11272
  0
LINE
  8
0
 10
29.4355
 20
-9.11272
 11
29.1805
 21
-8.97641
  0
LINE
  8
0
 10
29.1805
 20
-8.97641
 11
28.957
 21
-8.79297
  0
LINE
  8
0
 10
28.957
 20
-8.79297
 11
28.7736
 21
-8.56946
  0
LINE
  8
0
 10
28.7736
 20
-8.56946
 11
28.6373
 21
-8.31445
  0
LINE
  8
0
 10
28.6373
 20
-8.31445
 11
28.5533
 21
-8.03775
  0
LINE
  8
0
 10
28.5533
 20
-8.03775
 11
28.525
 21
-7.75
  0
LINE
  8
0
 10
28.525
 20
-7.75
 11
28.5533
 21
-7.46225
  0
LINE
  8
0
 10
28.5533
 20
-7.46225
 11
28.6373
 21
-7.18555
  0
LINE
  8
0
 10
28.6373
 20
-7.18555
 11
28.7736
 21
-6.93054
  0
LINE
  8
0
 10
28.7736
 20
-6.93054
 11
28.957
 21
-6.70703
  0
LINE
  8
0
 10
28.957
 20
-6.70703
 11
29.1805
 21
-6.52359
  0
LINE
  8
0
 10
29.1805
 20
-6.52359
 11
29.4355
 21
-6.38728
  0
LINE
  8
0
 10
29.4355
 20
-6.38728
 11
29.7122
 21
-6.30334
  0
LINE
  8
0
 10
29.7122
 20
-6.30334
 11
30
 21
-6.27501
  0
LINE
  8
0
 10
30
 20
-6.27501
 11
30.2878
 21
-6.30334
  0
LINE
  8
0
 10
30.2878
 20
-6.30334
 11
30.5645
 21
-6.38728
  0
LINE
  8
0
 10
30.5645
 20
-6.38728
 11
30.8195
 21
-6.52359
  0
LINE
  8
0
 10
30.8195
 20
-6.52359
 11
31.043
 21
-6.70703
  0
LINE
  8
0
 10
31.043
 20
-6.70703
 11
31.2264
 21
-6.93054
  0
LINE
  8
0
 10
31.2264
 20
-6.93054
 11
31.3627
 21
-7.18555
  0
LINE
  8
0
 10
31.3627
 20
-7.18555
 11
31.4467
 21
-7.46225
  0
LINE
  8
0
 10
31.4467
 20
-7.46225
 11
31.475
 21
-7.75
  0
LINE
  8
0
 10
31.475
 20
-7.75
 11
31.4467
 21
-8.03775
  0
LINE
  8
0
 10
31.4467
 20
-8.03775
 11
31.3627
 21
-8.31445
  0
LINE
  8
0
 10
31.3627
 20
-8.31445
 11
31.2264
 21
-8.56946
  0
LINE
  8
0
 10
31.2264
 20
-8.56946
 11
31.043
 21
-8.79297
  0
LINE
  8
0
 10
31.043
 20
-8.79297
 11
30.8195
 21
-8.97641
  0
LINE
  8
0
 10
30.8195
 20
-8.97641
 11
30.5645
 21
-9.11272
  0
LINE
  8
0
 10
30.5645
 20
-9.11272
 11
30.2878
 21
-9.19666
  0
LINE
  8
0
 10
30.2878
 20
-9.19666
 11
30
 21
-9.22499
  0
LINE
  8
0
 10
30
 20
-9.22499
 11
29.7122
 21
-9.19666
  0
LINE
  8
0
 10
25.8
 20
-25.9
 11
25.8
 21
-10.1
  0
LINE
  8
0
 10
25.8
 20
-10.1
 11
34.2
 21
-10.1
  0
LINE
  8
0
 10
34.2
 20
-10.1
 11
34.2
 21
-25.9
  0
LINE
  8
0
 10
34.2
 20
-25.9
 11
25.8
 21
-25.9
  0
LINE
  8
0
 10
391.438
 20
-13.6576
 11
391.111
 21
-13.5258
  0
LINE
  8
0
 10
391.111
 20
-13.5258
 11
390.815
 21
-13.3326
  0
LINE
  8
0
 10
390.815
 20
-13.3326
 11
390.563
 21
-13.0856
  0
LINE
  8
0
 10
390.563
 20
-13.0856
 11
390.365
 21
-12.7941
  0
LINE
  8
0
 10
390.365
 20
-12.7941
 11
390.226
 21
-12.4695
  0
LINE
  8
0
 10
390.226
 20
-12.4695
 11
390.154
 21
-12.1241
  0
LINE
  8
0
 10
390.154
 20
-12.1241
 11
390.151
 21
-11.7713
  0
LINE
  8
0
 10
390.151
 20
-11.7713
 11
390.216
 21
-11.4245
  0
LINE
  8
0
 10
390.216
 20
-11.4245
 11
390.348
 21
-11.0972
  0
LINE
  8
0
 10
390.348
 20
-11.0972
 11
390.541
 21
-10.8019
  0
LINE
  8
0
 10
390.541
 20
-10.8019
 11
390.788
 21
-10.5499
  0
LINE
  8
0
 10
390.788
 20
-10.5499
 11
391.08
 21
-10.351
  0
LINE
  8
0
 10
391.08
 20
-10.351
 11
391.404
 21
-10.2128
  0
LINE
  8
0
 10
391.404
 20
-10.2128
 11
391.75
 21
-10.1406
  0
LINE
  8
0
 10
391.75
 20
-10.1406
 11
392.102
 21
-10.1371
  0
LINE
  8
0
 10
392.102
 20
-10.1371
 11
392.449
 21
-10.2025
  0
LINE
  8
0
 10
392.449
 20
-10.2025
 11
392.776
 21
-10.3343
  0
LINE
  8
0
 10
392.776
 20
-10.3343
 11
393.072
 21
-10.5275
  0
LINE
  8
0
 10
393.072
 20
-10.5275
 11
393.324
 21
-10.7745
  0
LINE
  8
0
 10
393.324
 20
-10.7745
 11
393.523
 21
-11.066
  0
LINE
  8
0
 10
393.523
 20
-11.066
 11
393.661
 21
-11.3906
  0
LINE
  8
0
 10
393.661
 20
-11.3906
 11
393.733
 21
-11.736
  0
LINE
  8
0
 10
393.733
 20
-11.736
 11
393.737
 21
-12.0889
  0
LINE
  8
0
 10
393.737
 20
-12.0889
 11
393.671
 21
-12.4356
  0
LINE
  8
0
 10
393.671
 20
-12.4356
 11
393.539
 21
-12.7629
  0
LINE
  8
0
 10
393.539
 20
-12.7629
 11
393.346
 21
-13.0582
  0
LINE
  8
0
 10
393.346
 20
-13.0582
 11
393.099
 21
-13.3102
  0
LINE
  8
0
 10
393.099
 20
-13.3102
 11
392.808
 21
-13.5091
  0
LINE
  8
0
 10
392.808
 20
-13.5091
 11
392.483
 21
-13.6473
  0
LINE
  8
0
 10
392.483
 20
-13.6473
 11
392.138
 21
-13.7196
  0
LINE
  8
0
 10
392.138
 20
-13.7196
 11
391.785
 21
-13.723
  0
LINE
  8
0
 10
391.785
 20
-13.723
 11
391.438
 21
-13.6576
  0
LINE
  8
0
 10
9.64885
 20
-14.1154
 11
9.31117
 21
-14.013
  0
LINE
  8
0
 10
9.31117
 20
-14.013
 11
8.99998
 21
-13.8466
  0
LINE
  8
0
 10
8.99998
 20
-13.8466
 11
8.72722
 21
-13.6228
  0
LINE
  8
0
 10
8.72722
 20
-13.6228
 11
8.50336
 21
-13.35
  0
LINE
  8
0
 10
8.50336
 20
-13.35
 11
8.33702
 21
-13.0388
  0
LINE
  8
0
 10
8.33702
 20
-13.0388
 11
8.23459
 21
-12.7011
  0
LINE
  8
0
 10
8.23459
 20
-12.7011
 11
8.20001
 21
-12.35
  0
LINE
  8
0
 10
8.20001
 20
-12.35
 11
8.23459
 21
-11.9988
  0
LINE
  8
0
 10
8.23459
 20
-11.9988
 11
8.33702
 21
-11.6612
  0
LINE
  8
0
 10
8.33702
 20
-11.6612
 11
8.50336
 21
-11.35
  0
LINE
  8
0
 10
8.50336
 20
-11.35
 11
8.72722
 21
-11.0772
  0
LINE
  8
0
 10
8.72722
 20
-11.0772
 11
8.99998
 21
-10.8533
  0
LINE
  8
0
 10
8.99998
 20
-10.8533
 11
9.31117
 21
-10.687
  0
LINE
  8
0
 10
9.31117
 20
-10.687
 11
9.64885
 21
-10.5846
  0
LINE
  8
0
 10
9.64885
 20
-10.5846
 11
10
 21
-10.55
  0
LINE
  8
0
 10
10
 20
-10.55
 11
10.3512
 21
-10.5846
  0
LINE
  8
0
 10
10.3512
 20
-10.5846
 11
10.6888
 21
-10.687
  0
LINE
  8
0
 10
10.6888
 20
-10.687
 11
11
 21
-10.8533
  0
LINE
  8
0
 10
11
 20
-10.8533
 11
11.2728
 21
-11.0772
  0
LINE
  8
0
 10
11.2728
 20
-11.0772
 11
11.4966
 21
-11.35
  0
LINE
  8
0
 10
11.4966
 20
-11.35
 11
11.663
 21
-11.6612
  0
LINE
  8
0
 10
11.663
 20
-11.6612
 11
11.7654
 21
-11.9988
  0
LINE
  8
0
 10
11.7654
 20
-11.9988
 11
11.8
 21
-12.35
  0
LINE
  8
0
 10
11.8
 20
-12.35
 11
11.7654
 21
-12.7011
  0
LINE
  8
0
 10
11.7654
 20
-12.7011
 11
11.663
 21
-13.0388
  0
LINE
  8
0
 10
11.663
 20
-13.0388
 11
11.4966
 21
-13.35
  0
LINE
  8
0
 10
11.4966
 20
-13.35
 11
11.2728
 21
-13.6228
  0
LINE
  8
0
 10
11.2728
 20
-13.6228
 11
11
 21
-13.8466
  0
LINE
  8
0
 10
11
 20
-13.8466
 11
10.6888
 21
-14.013
  0
LINE
  8
0
 10
10.6888
 20
-14.013
 11
10.3512
 21
-14.1154
  0
LINE
  8
0
 10
10.3512
 20
-14.1154
 11
10
 21
-14.15
  0
LINE
  8
0
 10
10
 20
-14.15
 11
9.64885
 21
-14.1154
  0
LINE
  8
0
 10
40.5655
 20
-14.1154
 11
40.2278
 21
-14.013
  0
LINE
  8
0
 10
40.2278
 20
-14.013
 11
39.9166
 21
-13.8466
  0
LINE
  8
0
 10
39.9166
 20
-13.8466
 11
39.6439
 21
-13.6228
  0
LINE
  8
0
 10
39.6439
 20
-13.6228
 11
39.42
 21
-13.35
  0
LINE
  8
0
 10
39.42
 20
-13.35
 11
39.2537
 21
-13.0388
  0
LINE
  8
0
 10
39.2537
 20
-13.0388
 11
39.1512
 21
-12.7011
  0
LINE
  8
0
 10
39.1512
 20
-12.7011
 11
39.1167
 21
-12.35
  0
LINE
  8
0
 10
39.1167
 20
-12.35
 11
39.1512
 21
-11.9988
  0
LINE
  8
0
 10
39.1512
 20
-11.9988
 11
39.2537
 21
-11.6612
  0
LINE
  8
0
 10
39.2537
 20
-11.6612
 11
39.42
 21
-11.35
  0
LINE
  8
0
 10
39.42
 20
-11.35
 11
39.6439
 21
-11.0772
  0
LINE
  8
0
 10
39.6439
 20
-11.0772
 11
39.9166
 21
-10.8533
  0
LINE
  8
0
 10
39.9166
 20
-10.8533
 11
40.2278
 21
-10.687
  0
LINE
  8
0
 10
40.2278
 20
-10.687
 11
40.5655
 21
-10.5846
  0
LINE
  8
0
 10
40.5655
 20
-10.5846
 11
40.9167
 21
-10.55
  0
LINE
  8
0
 10
40.9167
 20
-10.55
 11
41.2678
 21
-10.5846
  0
LINE
  8
0
 10
41.2678
 20
-10.5846
 11
41.6055
 21
-10.687
  0
LINE
  8
0
 10
41.6055
 20
-10.687
 11
41.9167
 21
-10.8533
  0
LINE
  8
0
 10
41.9167
 20
-10.8533
 11
42.1894
 21
-11.0772
  0
LINE
  8
0
 10
42.1894
 20
-11.0772
 11
42.4133
 21
-11.35
  0
LINE
  8
0
 10
42.4133
 20
-11.35
 11
42.5796
 21
-11.6612
  0
LINE
  8
0
 10
42.5796
 20
-11.6612
 11
42.6821
 21
-11.9988
  0
LINE
  8
0
 10
42.6821
 20
-11.9988
 11
42.7166
 21
-12.35
  0
LINE
  8
0
 10
42.7166
 20
-12.35
 11
42.6821
 21
-12.7011
  0
LINE
  8
0
 10
42.6821
 20
-12.7011
 11
42.5796
 21
-13.0388
  0
LINE
  8
0
 10
42.5796
 20
-13.0388
 11
42.4133
 21
-13.35
  0
LINE
  8
0
 10
42.4133
 20
-13.35
 11
42.1894
 21
-13.6228
  0
LINE
  8
0
 10
42.1894
 20
-13.6228
 11
41.9167
 21
-13.8466
  0
LINE
  8
0
 10
41.9167
 20
-13.8466
 11
41.6055
 21
-14.013
  0
LINE
  8
0
 10
41.6055
 20
-14.013
 11
41.2678
 21
-14.1154
  0
LINE
  8
0
 10
41.2678
 20
-14.1154
 11
40.9167
 21
-14.15
  0
LINE
  8
0
 10
40.9167
 20
-14.15
 11
40.5655
 21
-14.1154
  0
LINE
  8
0
 10
71.4822
 20
-14.1154
 11
71.1445
 21
-14.013
  0
LINE
  8
0
 10
71.1445
 20
-14.013
 11
70.8333
 21
-13.8466
  0
LINE
  8
0
 10
70.8333
 20
-13.8466
 11
70.5605
 21
-13.6228
  0
LINE
  8
0
 10
70.5605
 20
-13.6228
 11
70.3367
 21
-13.35
  0
LINE
  8
0
 10
70.3367
 20
-13.35
 11
70.1703
 21
-13.0388
  0
LINE
  8
0
 10
70.1703
 20
-13.0388
 11
70.0679
 21
-12.7011
  0
LINE
  8
0
 10
70.0679
 20
-12.7011
 11
70.0333
 21
-12.35
  0
LINE
  8
0
 10
70.0333
 20
-12.35
 11
70.0679
 21
-11.9988
  0
LINE
  8
0
 10
70.0679
 20
-11.9988
 11
70.1703
 21
-11.6612
  0
LINE
  8
0
 10
70.1703
 20
-11.6612
 11
70.3367
 21
-11.35
  0
LINE
  8
0
 10
70.3367
 20
-11.35
 11
70.5605
 21
-11.0772
  0
LINE
  8
0
 10
70.5605
 20
-11.0772
 11
70.8333
 21
-10.8533
  0
LINE
  8
0
 10
70.8333
 20
-10.8533
 11
71.1445
 21
-10.687
  0
LINE
  8
0
 10
71.1445
 20
-10.687
 11
71.4822
 21
-10.5846
  0
LINE
  8
0
 10
71.4822
 20
-10.5846
 11
71.8333
 21
-10.55
  0
LINE
  8
0
 10
71.8333
 20
-10.55
 11
72.1845
 21
-10.5846
  0
LINE
  8
0
 10
72.1845
 20
-10.5846
 11
72.5222
 21
-10.687
  0
LINE
  8
0
 10
72.5222
 20
-10.687
 11
72.8333
 21
-10.8533
  0
LINE
  8
0
 10
72.8333
 20
-10.8533
 11
73.1061
 21
-11.0772
  0
LINE
  8
0
 10
73.1061
 20
-11.0772
 11
73.33
 21
-11.35
  0
LINE
  8
0
 10
73.33
 20
-11.35
 11
73.4963
 21
-11.6612
  0
LINE
  8
0
 10
73.4963
 20
-11.6612
 11
73.5987
 21
-11.9988
  0
LINE
  8
0
 10
73.5987
 20
-11.9988
 11
73.6333
 21
-12.35
  0
LINE
  8
0
 10
73.6333
 20
-12.35
 11
73.5987
 21
-12.7011
  0
LINE
  8
0
 10
73.5987
 20
-12.7011
 11
73.4963
 21
-13.0388
  0
LINE
  8
0
 10
73.4963
 20
-13.0388
 11
73.33
 21
-13.35
  0
LINE
  8
0
 10
73.33
 20
-13.35
 11
73.1061
 21
-13.6228
  0
LINE
  8
0
 10
73.1061
 20
-13.6228
 11
72.8333
 21
-13.8466
  0
LINE
  8
0
 10
72.8333
 20
-13.8466
 11
72.5222
 21
-14.013
  0
LINE
  8
0
 10
72.5222
 20
-14.013
 11
72.1845
 21
-14.1154
  0
LINE
  8
0
 10
72.1845
 20
-14.1154
 11
71.8333
 21
-14.15
  0
LINE
  8
0
 10
71.8333
 20
-14.15
 11
71.4822
 21
-14.1154
  0
LINE
  8
0
 10
102.399
 20
-14.1154
 11
102.061
 21
-14.013
  0
LINE
  8
0
 10
102.061
 20
-14.013
 11
101.75
 21
-13.8466
  0
LINE
  8
0
 10
101.75
 20
-13.8466
 11
101.477
 21
-13.6228
  0
LINE
  8
0
 10
101.477
 20
-13.6228
 11
101.253
 21
-13.35
  0
LINE
  8
0
 10
101.253
 20
-13.35
 11
101.087
 21
-13.0388
  0
LINE
  8
0
 10
101.087
 20
-13.0388
 11
100.985
 21
-12.7011
  0
LINE
  8
0
 10
100.985
 20
-12.7011
 11
100.95
 21
-12.35
  0
LINE
  8
0
 10
100.95
 20
-12.35
 11
100.985
 21
-11.9988
  0
LINE
  8
0
 10
100.985
 20
-11.9988
 11
101.087
 21
-11.6612
  0
LINE
  8
0
 10
101.087
 20
-11.6612
 11
101.253
 21
-11.35
  0
LINE
  8
0
 10
101.253
 20
-11.35
 11
101.477
 21
-11.0772
  0
LINE
  8
0
 10
101.477
 20
-11.0772
 11
101.75
 21
-10.8533
  0
LINE
  8
0
 10
101.75
 20
-10.8533
 11
102.061
 21
-10.687
  0
LINE
  8
0
 10
102.061
 20
-10.687
 11
102.399
 21
-10.5846
  0
LINE
  8
0
 10
102.399
 20
-10.5846
 11
102.75
 21
-10.55
  0
LINE
  8
0
 10
102.75
 20
-10.55
 11
103.101
 21
-10.5846
  0
LINE
  8
0
 10
103.101
 20
-10.5846
 11
103.439
 21
-10.687
  0
LINE
  8
0
 10
103.439
 20
-10.687
 11
103.75
 21
-10.8533
  0
LINE
  8
0
 10
103.75
 20
-10.8533
 11
104.023
 21
-11.0772
  0
LINE
  8
0
 10
104.023
 20
-11.0772
 11
104.247
 21
-11.35
  0
LINE
  8
0
 10
104.247
 20
-11.35
 11
104.413
 21
-11.6612
  0
LINE
  8
0
 10
104.413
 20
-11.6612
 11
104.515
 21
-11.9988
  0
LINE
  8
0
 10
104.515
 20
-11.9988
 11
104.55
 21
-12.35
  0
LINE
  8
0
 10
104.55
 20
-12.35
 11
104.515
 21
-12.7011
  0
LINE
  8
0
 10
104.515
 20
-12.7011
 11
104.413
 21
-13.0388
  0
LINE
  8
0
 10
104.413
 20
-13.0388
 11
104.247
 21
-13.35
  0
LINE
  8
0
 10
104.247
 20
-13.35
 11
104.023
 21
-13.6228
  0
LINE
  8
0
 10
104.023
 20
-13.6228
 11
103.75
 21
-13.8466
  0
LINE
  8
0
 10
103.75
 20
-13.8466
 11
103.439
 21
-14.013
  0
LINE
  8
0
 10
103.439
 20
-14.013
 11
103.101
 21
-14.1154
  0
LINE
  8
0
 10
103.101
 20
-14.1154
 11
102.75
 21
-14.15
  0
LINE
  8
0
 10
102.75
 20
-14.15
 11
102.399
 21
-14.1154
  0
LINE
  8
0
 10
133.316
 20
-14.1154
 11
132.978
 21
-14.013
  0
LINE
  8
0
 10
132.978
 20
-14.013
 11
132.667
 21
-13.8466
  0
LINE
  8
0
 10
132.667
 20
-13.8466
 11
132.394
 21
-13.6228
  0
LINE
  8
0
 10
132.394
 20
-13.6228
 11
132.17
 21
-13.35
  0
LINE
  8
0
 10
132.17
 20
-13.35
 11
132.004
 21
-13.0388
  0
LINE
  8
0
 10
132.004
 20
-13.0388
 11
131.901
 21
-12.7011
  0
LINE
  8
0
 10
131.901
 20
-12.7011
 11
131.867
 21
-12.35
  0
LINE
  8
0
 10
131.867
 20
-12.35
 11
131.901
 21
-11.9988
  0
LINE
  8
0
 10
131.901
 20
-11.9988
 11
132.004
 21
-11.6612
  0
LINE
  8
0
 10
132.004
 20
-11.6612
 11
132.17
 21
-11.35
  0
LINE
  8
0
 10
132.17
 20
-11.35
 11
132.394
 21
-11.0772
  0
LINE
  8
0
 10
132.394
 20
-11.0772
 11
132.667
 21
-10.8533
  0
LINE
  8
0
 10
132.667
 20
-10.8533
 11
132.978
 21
-10.687
  0
LINE
  8
0
 10
132.978
 20
-10.687
 11
133.316
 21
-10.5846
  0
LINE
  8
0
 10
133.316
 20
-10.5846
 11
133.667
 21
-10.55
  0
LINE
  8
0
 10
133.667
 20
-10.55
 11
134.018
 21
-10.5846
  0
LINE
  8
0
 10
134.018
 20
-10.5846
 11
134.355
 21
-10.687
  0
LINE
  8
0
 10
134.355
 20
-10.687
 11
134.667
 21
-10.8533
  0
LINE
  8
0
 10
134.667
 20
-10.8533
 11
134.939
 21
-11.0772
  0
LINE
  8
0
 10
134.939
 20
-11.0772
 11
135.163
 21
-11.35
  0
LINE
  8
0
 10
135.163
 20
-11.35
 11
135.33
 21
-11.6612
  0
LINE
  8
0
 10
135.33
 20
-11.6612
 11
135.432
 21
-11.9988
  0
LINE
  8
0
 10
135.432
 20
-11.9988
 11
135.467
 21
-12.35
  0
LINE
  8
0
 10
135.467
 20
-12.35
 11
135.432
 21
-12.7011
  0
LINE
  8
0
 10
135.432
 20
-12.7011
 11
135.33
 21
-13.0388
  0
LINE
  8
0
 10
135.33
 20
-13.0388
 11
135.163
 21
-13.35
  0
LINE
  8
0
 10
135.163
 20
-13.35
 11
134.939
 21
-13.6228
  0
LINE
  8
0
 10
134.939
 20
-13.6228
 11
134.667
 21
-13.8466
  0
LINE
  8
0
 10
134.667
 20
-13.8466
 11
134.355
 21
-14.013
  0
LINE
  8
0
 10
134.355
 20
-14.013
 11
134.018
 21
-14.1154
  0
LINE
  8
0
 10
134.018
 20
-14.1154
 11
133.667
 21
-14.15
  0
LINE
  8
0
 10
133.667
 20
-14.15
 11
133.316
 21
-14.1154
  0
LINE
  8
0
 10
164.232
 20
-14.1154
 11
163.895
 21
-14.013
  0
LINE
  8
0
 10
163.895
 20
-14.013
 11
163.583
 21
-13.8466
  0
LINE
  8
0
 10
163.583
 20
-13.8466
 11
163.311
 21
-13.6228
  0
LINE
  8
0
 10
163.311
 20
-13.6228
 11
163.087
 21
-13.35
  0
LINE
  8
0
 10
163.087
 20
-13.35
 11
162.92
 21
-13.0388
  0
LINE
  8
0
 10
162.92
 20
-13.0388
 11
162.818
 21
-12.7011
  0
LINE
  8
0
 10
162.818
 20
-12.7011
 11
162.783
 21
-12.35
  0
LINE
  8
0
 10
162.783
 20
-12.35
 11
162.818
 21
-11.9988
  0
LINE
  8
0
 10
162.818
 20
-11.9988
 11
162.92
 21
-11.6612
  0
LINE
  8
0
 10
162.92
 20
-11.6612
 11
163.087
 21
-11.35
  0
LINE
  8
0
 10
163.087
 20
-11.35
 11
163.311
 21
-11.0772
  0
LINE
  8
0
 10
163.311
 20
-11.0772
 11
163.583
 21
-10.8533
  0
LINE
  8
0
 10
163.583
 20
-10.8533
 11
163.895
 21
-10.687
  0
LINE
  8
0
 10
163.895
 20
-10.687
 11
164.232
 21
-10.5846
  0
LINE
  8
0
 10
164.232
 20
-10.5846
 11
164.583
 21
-10.55
  0
LINE
  8
0
 10
164.583
 20
-10.55
 11
164.934
 21
-10.5846
  0
LINE
  8
0
 10
164.934
 20
-10.5846
 11
165.272
 21
-10.687
  0
LINE
  8
0
 10
165.272
 20
-10.687
 11
165.583
 21
-10.8533
  0
LINE
  8
0
 10
165.583
 20
-10.8533
 11
165.856
 21
-11.0772
  0
LINE
  8
0
 10
165.856
 20
-11.0772
 11
166.08
 21
-11.35
  0
LINE
  8
0
 10
166.08
 20
-11.35
 11
166.246
 21
-11.6612
  0
LINE
  8
0
 10
166.246
 20
-11.6612
 11
166.349
 21
-11.9988
  0
LINE
  8
0
 10
166.349
 20
-11.9988
 11
166.383
 21
-12.35
  0
LINE
  8
0
 10
166.383
 20
-12.35
 11
166.349
 21
-12.7011
  0
LINE
  8
0
 10
166.349
 20
-12.7011
 11
166.246
 21
-13.0388
  0
LINE
  8
0
 10
166.246
 20
-13.0388
 11
166.08
 21
-13.35
  0
LINE
  8
0
 10
166.08
 20
-13.35
 11
165.856
 21
-13.6228
  0
LINE
  8
0
 10
165.856
 20
-13.6228
 11
165.583
 21
-13.8466
  0
LINE
  8
0
 10
165.583
 20
-13.8466
 11
165.272
 21
-14.013
  0
LINE
  8
0
 10
165.272
 20
-14.013
 11
164.934
 21
-14.1154
  0
LINE
  8
0
 10
164.934
 20
-14.1154
 11
164.583
 21
-14.15
  0
LINE
  8
0
 10
164.583
 20
-14.15
 11
164.232
 21
-14.1154
  0
LINE
  8
0
 10
195.149
 20
-14.1154
 11
194.811
 21
-14.013
  0
LINE
  8
0
 10
194.811
 20
-14.013
 11
194.5
 21
-13.8466
  0
LINE
  8
0
 10
194.5
 20
-13.8466
 11
194.227
 21
-13.6228
  0
LINE
  8
0
 10
194.227
 20
-13.6228
 11
194.003
 21
-13.35
  0
LINE
  8
0
 10
194.003
 20
-13.35
 11
193.837
 21
-13.0388
  0
LINE
  8
0
 10
193.837
 20
-13.0388
 11
193.735
 21
-12.7011
  0
LINE
  8
0
 10
193.735
 20
-12.7011
 11
193.7
 21
-12.35
  0
LINE
  8
0
 10
193.7
 20
-12.35
 11
193.735
 21
-11.9988
  0
LINE
  8
0
 10
193.735
 20
-11.9988
 11
193.837
 21
-11.6612
  0
LINE
  8
0
 10
193.837
 20
-11.6612
 11
194.003
 21
-11.35
  0
LINE
  8
0
 10
194.003
 20
-11.35
 11
194.227
 21
-11.0772
  0
LINE
  8
0
 10
194.227
 20
-11.0772
 11
194.5
 21
-10.8533
  0
LINE
  8
0
 10
194.5
 20
-10.8533
 11
194.811
 21
-10.687
  0
LINE
  8
0
 10
194.811
 20
-10.687
 11
195.149
 21
-10.5846
  0
LINE
  8
0
 10
195.149
 20
-10.5846
 11
195.5
 21
-10.55
  0
LINE
  8
0
 10
195.5
 20
-10.55
 11
195.851
 21
-10.5846
  0
LINE
  8
0
 10
195.851
 20
-10.5846
 11
196.189
 21
-10.687
  0
LINE
  8
0
 10
196.189
 20
-10.687
 11
196.5
 21
-10.8533
  0
LINE
  8
0
 10
196.5
 20
-10.8533
 11
196.773
 21
-11.0772
  0
LINE
  8
0
 10
196.773
 20
-11.0772
 11
196.997
 21
-11.35
  0
LINE
  8
0
 10
196.997
 20
-11.35
 11
197.163
 21
-11.6612
  0
LINE
  8
0
 10
197.163
 20
-11.6612
 11
197.265
 21
-11.9988
  0
LINE
  8
0
 10
197.265
 20
-11.9988
 11
197.3
 21
-12.35
  0
LINE
  8
0
 10
197.3
 20
-12.35
 11
197.265
 21
-12.7011
  0
LINE
  8
0
 10
197.265
 20
-12.7011
 11
197.163
 21
-13.0388
  0
LINE
  8
0
 10
197.163
 20
-13.0388
 11
196.997
 21
-13.35
  0
LINE
  8
0
 10
196.997
 20
-13.35
 11
196.773
 21
-13.6228
  0
LINE
  8
0
 10
196.773
 20
-13.6228
 11
196.5
 21
-13.8466
  0
LINE
  8
0
 10
196.5
 20
-13.8466
 11
196.189
 21
-14.013
  0
LINE
  8
0
 10
196.189
 20
-14.013
 11
195.851
 21
-14.1154
  0
LINE
  8
0
 10
195.851
 20
-14.1154
 11
195.5
 21
-14.15
  0
LINE
  8
0
 10
195.5
 20
-14.15
 11
195.149
 21
-14.1154
  0
LINE
  8
0
 10
226.066
 20
-14.1154
 11
225.728
 21
-14.013
  0
LINE
  8
0
 10
225.728
 20
-14.013
 11
225.417
 21
-13.8466
  0
LINE
  8
0
 10
225.417
 20
-13.8466
 11
225.144
 21
-13.6228
  0
LINE
  8
0
 10
225.144
 20
-13.6228
 11
224.92
 21
-13.35
  0
LINE
  8
0
 10
224.92
 20
-13.35
 11
224.754
 21
-13.0388
  0
LINE
  8
0
 10
224.754
 20
-13.0388
 11
224.651
 21
-12.7011
  0
LINE
  8
0
 10
224.651
 20
-12.7011
 11
224.617
 21
-12.35
  0
LINE
  8
0
 10
224.617
 20
-12.35
 11
224.651
 21
-11.9988
  0
LINE
  8
0
 10
224.651
 20
-11.9988
 11
224.754
 21
-11.6612
  0
LINE
  8
0
 10
224.754
 20
-11.6612
 11
224.92
 21
-11.35
  0
LINE
  8
0
 10
224.92
 20
-11.35
 11
225.144
 21
-11.0772
  0
LINE
  8
0
 10
225.144
 20
-11.0772
 11
225.417
 21
-10.8533
  0
LINE
  8
0
 10
225.417
 20
-10.8533
 11
225.728
 21
-10.687
  0
LINE
  8
0
 10
225.728
 20
-10.687
 11
226.066
 21
-10.5846
  0
LINE
  8
0
 10
226.066
 20
-10.5846
 11
226.417
 21
-10.55
  0
LINE
  8
0
 10
226.417
 20
-10.55
 11
226.768
 21
-10.5846
  0
LINE
  8
0
 10
226.768
 20
-10.5846
 11
227.105
 21
-10.687
  0
LINE
  8
0
 10
227.105
 20
-10.687
 11
227.417
 21
-10.8533
  0
LINE
  8
0
 10
227.417
 20
-10.8533
 11
227.689
 21
-11.0772
  0
LINE
  8
0
 10
227.689
 20
-11.0772
 11
227.913
 21
-11.35
  0
LINE
  8
0
 10
227.913
 20
-11.35
 11
228.08
 21
-11.6612
  0
LINE
  8
0
 10
228.08
 20
-11.6612
 11
228.182
 21
-11.9988
  0
LINE
  8
0
 10
228.182
 20
-11.9988
 11
228.217
 21
-12.35
  0
LINE
  8
0
 10
228.217
 20
-12.35
 11
228.182
 21
-12.7011
  0
LINE
  8
0
 10
228.182
 20
-12.7011
 11
228.08
 21
-13.0388
  0
LINE
  8
0
 10
228.08
 20
-13.0388
 11
227.913
 21
-13.35
  0
LINE
  8
0
 10
227.913
 20
-13.35
 11
227.689
 21
-13.6228
  0
LINE
  8
0
 10
227.689
 20
-13.6228
 11
227.417
 21
-13.8466
  0
LINE
  8
0
 10
227.417
 20
-13.8466
 11
227.105
 21
-14.013
  0
LINE
  8
0
 10
227.105
 20
-14.013
 11
226.768
 21
-14.1154
  0
LINE
  8
0
 10
226.768
 20
-14.1154
 11
226.417
 21
-14.15
  0
LINE
  8
0
 10
226.417
 20
-14.15
 11
226.066
 21
-14.1154
  0
LINE
  8
0
 10
256.982
 20
-14.1154
 11
256.645
 21
-14.013
  0
LINE
  8
0
 10
256.645
 20
-14.013
 11
256.333
 21
-13.8466
  0
LINE
  8
0
 10
256.333
 20
-13.8466
 11
256.061
 21
-13.6228
  0
LINE
  8
0
 10
256.061
 20
-13.6228
 11
255.837
 21
-13.35
  0
LINE
  8
0
 10
255.837
 20
-13.35
 11
255.67
 21
-13.0388
  0
LINE
  8
0
 10
255.67
 20
-13.0388
 11
255.568
 21
-12.7011
  0
LINE
  8
0
 10
255.568
 20
-12.7011
 11
255.533
 21
-12.35
  0
LINE
  8
0
 10
255.533
 20
-12.35
 11
255.568
 21
-11.9988
  0
LINE
  8
0
 10
255.568
 20
-11.9988
 11
255.67
 21
-11.6612
  0
LINE
  8
0
 10
255.67
 20
-11.6612
 11
255.837
 21
-11.35
  0
LINE
  8
0
 10
255.837
 20
-11.35
 11
256.061
 21
-11.0772
  0
LINE
  8
0
 10
256.061
 20
-11.0772
 11
256.333
 21
-10.8533
  0
LINE
  8
0
 10
256.333
 20
-10.8533
 11
256.645
 21
-10.687
  0
LINE
  8
0
 10
256.645
 20
-10.687
 11
256.982
 21
-10.5846
  0
LINE
  8
0
 10
256.982
 20
-10.5846
 11
257.333
 21
-10.55
  0
LINE
  8
0
 10
257.333
 20
-10.55
 11
257.684
 21
-10.5846
  0
LINE
  8
0
 10
257.684
 20
-10.5846
 11
258.022
 21
-10.687
  0
LINE
  8
0
 10
258.022
 20
-10.687
 11
258.333
 21
-10.8533
  0
LINE
  8
0
 10
258.333
 20
-10.8533
 11
258.606
 21
-11.0772
  0
LINE
  8
0
 10
258.606
 20
-11.0772
 11
258.83
 21
-11.35
  0
LINE
  8
0
 10
258.83
 20
-11.35
 11
258.996
 21
-11.6612
  0
LINE
  8
0
 10
258.996
 20
-11.6612
 11
259.099
 21
-11.9988
  0
LINE
  8
0
 10
259.099
 20
-11.9988
 11
259.133
 21
-12.35
  0
LINE
  8
0
 10
259.133
 20
-12.35
 11
259.099
 21
-12.7011
  0
LINE
  8
0
 10
259.099
 20
-12.7011
 11
258.996
 21
-13.0388
  0
LINE
  8
0
 10
258.996
 20
-13.0388
 11
258.83
 21
-13.35
  0
LINE
  8
0
 10
258.83
 20
-13.35
 11
258.606
 21
-13.6228
  0
LINE
  8
0
 10
258.606
 20
-13.6228
 11
258.333
 21
-13.8466
  0
LINE
  8
0
 10
258.333
 20
-13.8466
 11
258.022
 21
-14.013
  0
LINE
  8
0
 10
258.022
 20
-14.013
 11
257.684
 21
-14.1154
  0
LINE
  8
0
 10
257.684
 20
-14.1154
 11
257.333
 21
-14.15
  0
LINE
  8
0
 10
257.333
 20
-14.15
 11
256.982
 21
-14.1154
  0
LINE
  8
0
 10
287.899
 20
-14.1154
 11
287.561
 21
-14.013
  0
LINE
  8
0
 10
287.561
 20
-14.013
 11
287.25
 21
-13.8466
  0
LINE
  8
0
 10
287.25
 20
-13.8466
 11
286.977
 21
-13.6228
  0
LINE
  8
0
 10
286.977
 20
-13.6228
 11
286.753
 21
-13.35
  0
LINE
  8
0
 10
286.753
 20
-13.35
 11
286.587
 21
-13.0388
  0
LINE
  8
0
 10
286.587
 20
-13.0388
 11
286.485
 21
-12.7011
  0
LINE
  8
0
 10
286.485
 20
-12.7011
 11
286.45
 21
-12.35
  0
LINE
  8
0
 10
286.45
 20
-12.35
 11
286.485
 21
-11.9988
  0
LINE
  8
0
 10
286.485
 20
-11.9988
 11
286.587
 21
-11.6612
  0
LINE
  8
0
 10
286.587
 20
-11.6612
 11
286.753
 21
-11.35
  0
LINE
  8
0
 10
286.753
 20
-11.35
 11
286.977
 21
-11.0772
  0
LINE
  8
0
 10
286.977
 20
-11.0772
 11
287.25
 21
-10.8533
  0
LINE
  8
0
 10
287.25
 20
-10.8533
 11
287.561
 21
-10.687
  0
LINE
  8
0
 10
287.561
 20
-10.687
 11
287.899
 21
-10.5846
  0
LINE
  8
0
 10
287.899
 20
-10.5846
 11
288.25
 21
-10.55
  0
LINE
  8
0
 10
288.25
 20
-10.55
 11
288.601
 21
-10.5846
  0
LINE
  8
0
 10
288.601
 20
-10.5846
 11
288.939
 21
-10.687
  0
LINE
  8
0
 10
288.939
 20
-10.687
 11
289.25
 21
-10.8533
  0
LINE
  8
0
 10
289.25
 20
-10.8533
 11
289.523
 21
-11.0772
  0
LINE
  8
0
 10
289.523
 20
-11.0772
 11
289.747
 21
-11.35
  0
LINE
  8
0
 10
289.747
 20
-11.35
 11
289.913
 21
-11.6612
  0
LINE
  8
0
 10
289.913
 20
-11.6612
 11
290.015
 21
-11.9988
  0
LINE
  8
0
 10
290.015
 20
-11.9988
 11
290.05
 21
-12.35
  0
LINE
  8
0
 10
290.05
 20
-12.35
 11
290.015
 21
-12.7011
  0
LINE
  8
0
 10
290.015
 20
-12.7011
 11
289.913
 21
-13.0388
  0
LINE
  8
0
 10
289.913
 20
-13.0388
 11
289.747
 21
-13.35
  0
LINE
  8
0
 10
289.747
 20
-13.35
 11
289.523
 21
-13.6228
  0
LINE
  8
0
 10
289.523
 20
-13.6228
 11
289.25
 21
-13.8466
  0
LINE
  8
0
 10
289.25
 20
-13.8466
 11
288.939
 21
-14.013
  0
LINE
  8
0
 10
288.939
 20
-14.013
 11
288.601
 21
-14.1154
  0
LINE
  8
0
 10
288.601
 20
-14.1154
 11
288.25
 21
-14.15
  0
LINE
  8
0
 10
288.25
 20
-14.15
 11
287.899
 21
-14.1154
  0
LINE
  8
0
 10
318.816
 20
-14.1154
 11
318.478
 21
-14.013
  0
LINE
  8
0
 10
318.478
 20
-14.013
 11
318.167
 21
-13.8466
  0
LINE
  8
0
 10
318.167
 20
-13.8466
 11
317.894
 21
-13.6228
  0
LINE
  8
0
 10
317.894
 20
-13.6228
 11
317.67
 21
-13.35
  0
LINE
  8
0
 10
317.67
 20
-13.35
 11
317.504
 21
-13.0388
  0
LINE
  8
0
 10
317.504
 20
-13.0388
 11
317.401
 21
-12.7011
  0
LINE
  8
0
 10
317.401
 20
-12.7011
 11
317.367
 21
-12.35
  0
LINE
  8
0
 10
317.367
 20
-12.35
 11
317.401
 21
-11.9988
  0
LINE
  8
0
 10
317.401
 20
-11.9988
 11
317.504
 21
-11.6612
  0
LINE
  8
0
 10
317.504
 20
-11.6612
 11
317.67
 21
-11.35
  0
LINE
  8
0
 10
317.67
 20
-11.35
 11
317.894
 21
-11.0772
  0
LINE
  8
0
 10
317.894
 20
-11.0772
 11
318.167
 21
-10.8533
  0
LINE
  8
0
 10
318.167
 20
-10.8533
 11
318.478
 21
-10.687
  0
LINE
  8
0
 10
318.478
 20
-10.687
 11
318.816
 21
-10.5846
  0
LINE
  8
0
 10
318.816
 20
-10.5846
 11
319.167
 21
-10.55
  0
LINE
  8
0
 10
319.167
 20
-10.55
 11
319.518
 21
-10.5846
  0
LINE
  8
0
 10
319.518
 20
-10.5846
 11
319.855
 21
-10.687
  0
LINE
  8
0
 10
319.855
 20
-10.687
 11
320.167
 21
-10.8533
  0
LINE
  8
0
 10
320.167
 20
-10.8533
 11
320.439
 21
-11.0772
  0
LINE
  8
0
 10
320.439
 20
-11.0772
 11
320.663
 21
-11.35
  0
LINE
  8
0
 10
320.663
 20
-11.35
 11
320.83
 21
-11.6612
  0
LINE
  8
0
 10
320.83
 20
-11.6612
 11
320.932
 21
-11.9988
  0
LINE
  8
0
 10
320.932
 20
-11.9988
 11
320.967
 21
-12.35
  0
LINE
  8
0
 10
320.967
 20
-12.35
 11
320.932
 21
-12.7011
  0
LINE
  8
0
 10
320.932
 20
-12.7011
 11
320.83
 21
-13.0388
  0
LINE
  8
0
 10
320.83
 20
-13.0388
 11
320.663
 21
-13.35
  0
LINE
  8
0
 10
320.663
 20
-13.35
 11
320.439
 21
-13.6228
  0
LINE
  8
0
 10
320.439
 20
-13.6228
 11
320.167
 21
-13.8466
  0
LINE
  8
0
 10
320.167
 20
-13.8466
 11
319.855
 21
-14.013
  0
LINE
  8
0
 10
319.855
 20
-14.013
 11
319.518
 21
-14.1154
  0
LINE
  8
0
 10
319.518
 20
-14.1154
 11
319.167
 21
-14.15
  0
LINE
  8
0
 10
319.167
 20
-14.15
 11
318.816
 21
-14.1154
  0
LINE
  8
0
 10
349.732
 20
-14.1154
 11
349.395
 21
-14.013
  0
LINE
  8
0
 10
349.395
 20
-14.013
 11
349.083
 21
-13.8466
  0
LINE
  8
0
 10
349.083
 20
-13.8466
 11
348.811
 21
-13.6228
  0
LINE
  8
0
 10
348.811
 20
-13.6228
 11
348.587
 21
-13.35
  0
LINE
  8
0
 10
348.587
 20
-13.35
 11
348.42
 21
-13.0388
  0
LINE
  8
0
 10
348.42
 20
-13.0388
 11
348.318
 21
-12.7011
  0
LINE
  8
0
 10
348.318
 20
-12.7011
 11
348.283
 21
-12.35
  0
LINE
  8
0
 10
348.283
 20
-12.35
 11
348.318
 21
-11.9988
  0
LINE
  8
0
 10
348.318
 20
-11.9988
 11
348.42
 21
-11.6612
  0
LINE
  8
0
 10
348.42
 20
-11.6612
 11
348.587
 21
-11.35
  0
LINE
  8
0
 10
348.587
 20
-11.35
 11
348.811
 21
-11.0772
  0
LINE
  8
0
 10
348.811
 20
-11.0772
 11
349.083
 21
-10.8533
  0
LINE
  8
0
 10
349.083
 20
-10.8533
 11
349.395
 21
-10.687
  0
LINE
  8
0
 10
349.395
 20
-10.687
 11
349.732
 21
-10.5846
  0
LINE
  8
0
 10
349.732
 20
-10.5846
 11
350.083
 21
-10.55
  0
LINE
  8
0
 10
350.083
 20
-10.55
 11
350.434
 21
-10.5846
  0
LINE
  8
0
 10
350.434
 20
-10.5846
 11
350.772
 21
-10.687
  0
LINE
  8
0
 10
350.772
 20
-10.687
 11
351.083
 21
-10.8533
  0
LINE
  8
0
 10
351.083
 20
-10.8533
 11
351.356
 21
-11.0772
  0
LINE
  8
0
 10
351.356
 20
-11.0772
 11
351.58
 21
-11.35
  0
LINE
  8
0
 10
351.58
 20
-11.35
 11
351.746
 21
-11.6612
  0
LINE
  8
0
 10
351.746
 20
-11.6612
 11
351.849
 21
-11.9988
  0
LINE
  8
0
 10
351.849
 20
-11.9988
 11
351.883
 21
-12.35
  0
LINE
  8
0
 10
351.883
 20
-12.35
 11
351.849
 21
-12.7011
  0
LINE
  8
0
 10
351.849
 20
-12.7011
 11
351.746
 21
-13.0388
  0
LINE
  8
0
 10
351.746
 20
-13.0388
 11
351.58
 21
-13.35
  0
LINE
  8
0
 10
351.58
 20
-13.35
 11
351.356
 21
-13.6228
  0
LINE
  8
0
 10
351.356
 20
-13.6228
 11
351.083
 21
-13.8466
  0
LINE
  8
0
 10
351.083
 20
-13.8466
 11
350.772
 21
-14.013
  0
LINE
  8
0
 10
350.772
 20
-14.013
 11
350.434
 21
-14.1154
  0
LINE
  8
0
 10
350.434
 20
-14.1154
 11
350.083
 21
-14.15
  0
LINE
  8
0
 10
350.083
 20
-14.15
 11
349.732
 21
-14.1154
  0
LINE
  8
0
 10
380.649
 20
-14.1154
 11
380.311
 21
-14.013
  0
LINE
  8
0
 10
380.311
 20
-14.013
 11
380
 21
-13.8466
  0
LINE
  8
0
 10
380
 20
-13.8466
 11
379.727
 21
-13.6228
  0
LINE
  8
0
 10
379.727
 20
-13.6228
 11
379.503
 21
-13.35
  0
LINE
  8
0
 10
379.503
 20
-13.35
 11
379.337
 21
-13.0388
  0
LINE
  8
0
 10
379.337
 20
-13.0388
 11
379.235
 21
-12.7011
  0
LINE
  8
0
 10
379.235
 20
-12.7011
 11
379.2
 21
-12.35
  0
LINE
  8
0
 10
379.2
 20
-12.35
 11
379.235
 21
-11.9988
  0
LINE
  8
0
 10
379.235
 20
-11.9988
 11
379.337
 21
-11.6612
  0
LINE
  8
0
 10
379.337
 20
-11.6612
 11
379.503
 21
-11.35
  0
LINE
  8
0
 10
379.503
 20
-11.35
 11
379.727
 21
-11.0772
  0
LINE
  8
0
 10
379.727
 20
-11.0772
 11
380
 21
-10.8533
  0
LINE
  8
0
 10
380
 20
-10.8533
 11
380.311
 21
-10.687
  0
LINE
  8
0
 10
380.311
 20
-10.687
 11
380.649
 21
-10.5846
  0
LINE
  8
0
 10
380.649
 20
-10.5846
 11
381
 21
-10.55
  0
LINE
  8
0
 10
381
 20
-10.55
 11
381.351
 21
-10.5846
  0
LINE
  8
0
 10
381.351
 20
-10.5846
 11
381.689
 21
-10.687
  0
LINE
  8
0
 10
381.689
 20
-10.687
 11
382
 21
-10.8533
  0
LINE
  8
0
 10
382
 20
-10.8533
 11
382.273
 21
-11.0772
  0
LINE
  8
0
 10
382.273
 20
-11.0772
 11
382.497
 21
-11.35
  0
LINE
  8
0
 10
382.497
 20
-11.35
 11
382.663
 21
-11.6612
  0
LINE
  8
0
 10
382.663
 20
-11.6612
 11
382.765
 21
-11.9988
  0
LINE
  8
0
 10
382.765
 20
-11.9988
 11
382.8
 21
-12.35
  0
LINE
  8
0
 10
382.8
 20
-12.35
 11
382.765
 21
-12.7011
  0
LINE
  8
0
 10
382.765
 20
-12.7011
 11
382.663
 21
-13.0388
  0
LINE
  8
0
 10
382.663
 20
-13.0388
 11
382.497
 21
-13.35
  0
LINE
  8
0
 10
382.497
 20
-13.35
 11
382.273
 21
-13.6228
  0
LINE
  8
0
 10
382.273
 20
-13.6228
 11
382
 21
-13.8466
  0
LINE
  8
0
 10
382
 20
-13.8466
 11
381.689
 21
-14.013
  0
LINE
  8
0
 10
381.689
 20
-14.013
 11
381.351
 21
-14.1154
  0
LINE
  8
0
 10
381.351
 20
-14.1154
 11
381
 21
-14.15
  0
LINE
  8
0
 10
381
 20
-14.15
 11
380.649
 21
-14.1154
  0
LINE
  8
0
 10
19.2612
 20
-22.1019
 11
18.9271
 21
-21.9886
  0
LINE
  8
0
 10
18.9271
 20
-21.9886
 11
18.6214
 21
-21.8122
  0
LINE
  8
0
 10
18.6214
 20
-21.8122
 11
18.3561
 21
-21.5797
  0
LINE
  8
0
 10
18.3561
 20
-21.5797
 11
18.1412
 21
-21.2998
  0
LINE
  8
0
 10
18.1412
 20
-21.2998
 11
17.985
 21
-20.9833
  0
LINE
  8
0
 10
17.985
 20
-20.9833
 11
17.8936
 21
-20.6425
  0
LINE
  8
0
 10
17.8936
 20
-20.6425
 11
17.8704
 21
-20.2904
  0
LINE
  8
0
 10
17.8704
 20
-20.2904
 11
17.9164
 21
-19.9406
  0
LINE
  8
0
 10
17.9164
 20
-19.9406
 11
18.0297
 21
-19.6064
  0
LINE
  8
0
 10
18.0297
 20
-19.6064
 11
18.2061
 21
-19.3008
  0
LINE
  8
0
 10
18.2061
 20
-19.3008
 11
18.4387
 21
-19.0354
  0
LINE
  8
0
 10
18.4387
 20
-19.0354
 11
18.7186
 21
-18.8205
  0
LINE
  8
0
 10
18.7186
 20
-18.8205
 11
19.035
 21
-18.6644
  0
LINE
  8
0
 10
19.035
 20
-18.6644
 11
19.3758
 21
-18.573
  0
LINE
  8
0
 10
19.3758
 20
-18.573
 11
19.7279
 21
-18.5498
  0
LINE
  8
0
 10
19.7279
 20
-18.5498
 11
20.0778
 21
-18.5957
  0
LINE
  8
0
 10
20.0778
 20
-18.5957
 11
20.4119
 21
-18.7091
  0
LINE
  8
0
 10
20.4119
 20
-18.7091
 11
20.7175
 21
-18.8854
  0
LINE
  8
0
 10
20.7175
 20
-18.8854
 11
20.9829
 21
-19.118
  0
LINE
  8
0
 10
20.9829
 20
-19.118
 11
21.1978
 21
-19.3979
  0
LINE
  8
0
 10
21.1978
 20
-19.3979
 11
21.3539
 21
-19.7143
  0
LINE
  8
0
 10
21.3539
 20
-19.7143
 11
21.4454
 21
-20.0551
  0
LINE
  8
0
 10
21.4454
 20
-20.0551
 11
21.4685
 21
-20.4072
  0
LINE
  8
0
 10
21.4685
 20
-20.4072
 11
21.4226
 21
-20.7571
  0
LINE
  8
0
 10
21.4226
 20
-20.7571
 11
21.3092
 21
-21.0912
  0
LINE
  8
0
 10
21.3092
 20
-21.0912
 11
21.1329
 21
-21.3969
  0
LINE
  8
0
 10
21.1329
 20
-21.3969
 11
20.9003
 21
-21.6622
  0
LINE
  8
0
 10
20.9003
 20
-21.6622
 11
20.6204
 21
-21.8771
  0
LINE
  8
0
 10
20.6204
 20
-21.8771
 11
20.304
 21
-22.0333
  0
LINE
  8
0
 10
20.304
 20
-22.0333
 11
19.9632
 21
-22.1247
  0
LINE
  8
0
 10
19.9632
 20
-22.1247
 11
19.6111
 21
-22.1479
  0
LINE
  8
0
 10
19.6111
 20
-22.1479
 11
19.2612
 21
-22.1019
  0
LINE
  8
0
 10
29.7122
 20
-29.6967
 11
29.4355
 21
-29.6127
  0
LINE
  8
0
 10
29.4355
 20
-29.6127
 11
29.1805
 21
-29.4764
  0
LINE
  8
0
 10
29.1805
 20
-29.4764
 11
28.957
 21
-29.293
  0
LINE
  8
0
 10
28.957
 20
-29.293
 11
28.7736
 21
-29.0695
  0
LINE
  8
0
 10
28.7736
 20
-29.0695
 11
28.6373
 21
-28.8145
  0
LINE
  8
0
 10
28.6373
 20
-28.8145
 11
28.5533
 21
-28.5378
  0
LINE
  8
0
 10
28.5533
 20
-28.5378
 11
28.525
 21
-28.25
  0
LINE
  8
0
 10
28.525
 20
-28.25
 11
28.5533
 21
-27.9622
  0
LINE
  8
0
 10
28.5533
 20
-27.9622
 11
28.6373
 21
-27.6855
  0
LINE
  8
0
 10
28.6373
 20
-27.6855
 11
28.7736
 21
-27.4305
  0
LINE
  8
0
 10
28.7736
 20
-27.4305
 11
28.957
 21
-27.207
  0
LINE
  8
0
 10
28.957
 20
-27.207
 11
29.1805
 21
-27.0236
  0
LINE
  8
0
 10
29.1805
 20
-27.0236
 11
29.4355
 21
-26.8873
  0
LINE
  8
0
 10
29.4355
 20
-26.8873
 11
29.7122
 21
-26.8033
  0
LINE
  8
0
 10
29.7122
 20
-26.8033
 11
30
 21
-26.775
  0
LINE
  8
0
 10
30
 20
-26.775
 11
30.2878
 21
-26.8033
  0
LINE
  8
0
 10
30.2878
 20
-26.8033
 11
30.5645
 21
-26.8873
  0
LINE
  8
0
 10
30.5645
 20
-26.8873
 11
30.8195
 21
-27.0236
  0
LINE
  8
0
 10
30.8195
 20
-27.0236
 11
31.043
 21
-27.207
  0
LINE
  8
0
 10
31.043
 20
-27.207
 11
31.2264
 21
-27.4305
  0
LINE
  8
0
 10
31.2264
 20
-27.4305
 11
31.3627
 21
-27.6855
  0
LINE
  8
0
 10
31.3627
 20
-27.6855
 11
31.4467
 21
-27.9622
  0
LINE
  8
0
 10
31.4467
 20
-27.9622
 11
31.475
 21
-28.25
  0
LINE
  8
0
 10
31.475
 20
-28.25
 11
31.4467
 21
-28.5378
  0
LINE
  8
0
 10
31.4467
 20
-28.5378
 11
31.3627
 21
-28.8145
  0
LINE
  8
0
 10
31.3627
 20
-28.8145
 11
31.2264
 21
-29.0695
  0
LINE
  8
0
 10
31.2264
 20
-29.0695
 11
31.043
 21
-29.293
  0
LINE
  8
0
 10
31.043
 20
-29.293
 11
30.8195
 21
-29.4764
  0
LINE
  8
0
 10
30.8195
 20
-29.4764
 11
30.5645
 21
-29.6127
  0
LINE
  8
0
 10
30.5645
 20
-29.6127
 11
30.2878
 21
-29.6967
  0
LINE
  8
0
 10
30.2878
 20
-29.6967
 11
30
 21
-29.725
  0
LINE
  8
0
 10
30
 20
-29.725
 11
29.7122
 21
-29.6967
  0
LINE
  8
0
 10
49.1211
 20
-35.6215
 11
48.787
 21
-35.5082
  0
LINE
  8
0
 10
48.787
 20
-35.5082
 11
48.4813
 21
-35.3319
  0
LINE
  8
0
 10
48.4813
 20
-35.3319
 11
48.216
 21
-35.0993
  0
LINE
  8
0
 10
48.216
 20
-35.0993
 11
48.0011
 21
-34.8194
  0
LINE
  8
0
 10
48.0011
 20
-34.8194
 11
47.8449
 21
-34.5029
  0
LINE
  8
0
 10
47.8449
 20
-34.5029
 11
47.7535
 21
-34.1621
  0
LINE
  8
0
 10
47.7535
 20
-34.1621
 11
47.7303
 21
-33.81
  0
LINE
  8
0
 10
47.7303
 20
-33.81
 11
47.7763
 21
-33.4602
  0
LINE
  8
0
 10
47.7763
 20
-33.4602
 11
47.8896
 21
-33.126
  0
LINE
  8
0
 10
47.8896
 20
-33.126
 11
48.066
 21
-32.8204
  0
LINE
  8
0
 10
48.066
 20
-32.8204
 11
48.2986
 21
-32.555
  0
LINE
  8
0
 10
48.2986
 20
-32.555
 11
48.5784
 21
-32.3401
  0
LINE
  8
0
 10
48.5784
 20
-32.3401
 11
48.8949
 21
-32.184
  0
LINE
  8
0
 10
48.8949
 20
-32.184
 11
49.2357
 21
-32.0926
  0
LINE
  8
0
 10
49.2357
 20
-32.0926
 11
49.5878
 21
-32.0694
  0
LINE
  8
0
 10
49.5878
 20
-32.0694
 11
49.9377
 21
-32.1154
  0
LINE
  8
0
 10
49.9377
 20
-32.1154
 11
50.2718
 21
-32.2287
  0
LINE
  8
0
 10
50.2718
 20
-32.2287
 11
50.5774
 21
-32.405
  0
LINE
  8
0
 10
50.5774
 20
-32.405
 11
50.8428
 21
-32.6376
  0
LINE
  8
0
 10
50.8428
 20
-32.6376
 11
51.0577
 21
-32.9175
  0
LINE
  8
0
 10
51.0577
 20
-32.9175
 11
51.2138
 21
-33.2339
  0
LINE
  8
0
 10
51.2138
 20
-33.2339
 11
51.3053
 21
-33.5748
  0
LINE
  8
0
 10
51.3053
 20
-33.5748
 11
51.3284
 21
-33.9269
  0
LINE
  8
0
 10
51.3284
 20
-33.9269
 11
51.2825
 21
-34.2767
  0
LINE
  8
0
 10
51.2825
 20
-34.2767
 11
51.1691
 21
-34.6109
  0
LINE
  8
0
 10
51.1691
 20
-34.6109
 11
50.9928
 21
-34.9165
  0
LINE
  8
0
 10
50.9928
 20
-34.9165
 11
50.7602
 21
-35.1819
  0
LINE
  8
0
 10
50.7602
 20
-35.1819
 11
50.4803
 21
-35.3967
  0
LINE
  8
0
 10
50.4803
 20
-35.3967
 11
50.1639
 21
-35.5529
  0
LINE
  8
0
 10
50.1639
 20
-35.5529
 11
49.8231
 21
-35.6443
  0
LINE
  8
0
 10
49.8231
 20
-35.6443
 11
49.471
 21
-35.6675
  0
LINE
  8
0
 10
49.471
 20
-35.6675
 11
49.1211
 21
-35.6215
  0
LINE
  8
0
 10
394.644
 20
-43.2275
 11
394.317
 21
-43.0957
  0
LINE
  8
0
 10
394.317
 20
-43.0957
 11
394.022
 21
-42.9026
  0
LINE
  8
0
 10
394.022
 20
-42.9026
 11
393.77
 21
-42.6555
  0
LINE
  8
0
 10
393.77
 20
-42.6555
 11
393.571
 21
-42.3641
  0
LINE
  8
0
 10
393.571
 20
-42.3641
 11
393.433
 21
-42.0394
  0
LINE
  8
0
 10
393.433
 20
-42.0394
 11
393.36
 21
-41.694
  0
LINE
  8
0
 10
393.36
 20
-41.694
 11
393.357
 21
-41.3412
  0
LINE
  8
0
 10
393.357
 20
-41.3412
 11
393.422
 21
-40.9944
  0
LINE
  8
0
 10
393.422
 20
-40.9944
 11
393.554
 21
-40.6671
  0
LINE
  8
0
 10
393.554
 20
-40.6671
 11
393.747
 21
-40.3718
  0
LINE
  8
0
 10
393.747
 20
-40.3718
 11
393.994
 21
-40.1199
  0
LINE
  8
0
 10
393.994
 20
-40.1199
 11
394.286
 21
-39.921
  0
LINE
  8
0
 10
394.286
 20
-39.921
 11
394.611
 21
-39.7827
  0
LINE
  8
0
 10
394.611
 20
-39.7827
 11
394.956
 21
-39.7105
  0
LINE
  8
0
 10
394.956
 20
-39.7105
 11
395.309
 21
-39.707
  0
LINE
  8
0
 10
395.309
 20
-39.707
 11
395.656
 21
-39.7724
  0
LINE
  8
0
 10
395.656
 20
-39.7724
 11
395.983
 21
-39.9043
  0
LINE
  8
0
 10
395.983
 20
-39.9043
 11
396.278
 21
-40.0974
  0
LINE
  8
0
 10
396.278
 20
-40.0974
 11
396.53
 21
-40.3445
  0
LINE
  8
0
 10
396.53
 20
-40.3445
 11
396.729
 21
-40.6359
  0
LINE
  8
0
 10
396.729
 20
-40.6359
 11
396.867
 21
-40.9606
  0
LINE
  8
0
 10
396.867
 20
-40.9606
 11
396.939
 21
-41.3059
  0
LINE
  8
0
 10
396.939
 20
-41.3059
 11
396.943
 21
-41.6588
  0
LINE
  8
0
 10
396.943
 20
-41.6588
 11
396.878
 21
-42.0055
  0
LINE
  8
0
 10
396.878
 20
-42.0055
 11
396.746
 21
-42.3328
  0
LINE
  8
0
 10
396.746
 20
-42.3328
 11
396.553
 21
-42.6281
  0
LINE
  8
0
 10
396.553
 20
-42.6281
 11
396.306
 21
-42.8801
  0
LINE
  8
0
 10
396.306
 20
-42.8801
 11
396.014
 21
-43.079
  0
LINE
  8
0
 10
396.014
 20
-43.079
 11
395.689
 21
-43.2173
  0
LINE
  8
0
 10
395.689
 20
-43.2173
 11
395.344
 21
-43.2895
  0
LINE
  8
0
 10
395.344
 20
-43.2895
 11
394.991
 21
-43.293
  0
LINE
  8
0
 10
394.991
 20
-43.293
 11
394.644
 21
-43.2275
  0
LINE
  8
0
 10
78.981
 20
-49.1412
 11
78.6469
 21
-49.0278
  0
LINE
  8
0
 10
78.6469
 20
-49.0278
 11
78.3412
 21
-48.8515
  0
LINE
  8
0
 10
78.3412
 20
-48.8515
 11
78.0759
 21
-48.6189
  0
LINE
  8
0
 10
78.0759
 20
-48.6189
 11
77.861
 21
-48.339
  0
LINE
  8
0
 10
77.861
 20
-48.339
 11
77.7048
 21
-48.0226
  0
LINE
  8
0
 10
77.7048
 20
-48.0226
 11
77.6134
 21
-47.6818
  0
LINE
  8
0
 10
77.6134
 20
-47.6818
 11
77.5902
 21
-47.3297
  0
LINE
  8
0
 10
77.5902
 20
-47.3297
 11
77.6362
 21
-46.9798
  0
LINE
  8
0
 10
77.6362
 20
-46.9798
 11
77.7495
 21
-46.6456
  0
LINE
  8
0
 10
77.7495
 20
-46.6456
 11
77.9259
 21
-46.34
  0
LINE
  8
0
 10
77.9259
 20
-46.34
 11
78.1584
 21
-46.0747
  0
LINE
  8
0
 10
78.1584
 20
-46.0747
 11
78.4383
 21
-45.8598
  0
LINE
  8
0
 10
78.4383
 20
-45.8598
 11
78.7548
 21
-45.7036
  0
LINE
  8
0
 10
78.7548
 20
-45.7036
 11
79.0956
 21
-45.6122
  0
LINE
  8
0
 10
79.0956
 20
-45.6122
 11
79.4477
 21
-45.589
  0
LINE
  8
0
 10
79.4477
 20
-45.589
 11
79.7975
 21
-45.635
  0
LINE
  8
0
 10
79.7975
 20
-45.635
 11
80.1317
 21
-45.7483
  0
LINE
  8
0
 10
80.1317
 20
-45.7483
 11
80.4373
 21
-45.9247
  0
LINE
  8
0
 10
80.4373
 20
-45.9247
 11
80.7027
 21
-46.1573
  0
LINE
  8
0
 10
80.7027
 20
-46.1573
 11
80.9176
 21
-46.4371
  0
LINE
  8
0
 10
80.9176
 20
-46.4371
 11
81.0737
 21
-46.7536
  0
LINE
  8
0
 10
81.0737
 20
-46.7536
 11
81.1651
 21
-47.0944
  0
LINE
  8
0
 10
81.1651
 20
-47.0944
 11
81.1883
 21
-47.4465
  0
LINE
  8
0
 10
81.1883
 20
-47.4465
 11
81.1423
 21
-47.7964
  0
LINE
  8
0
 10
81.1423
 20
-47.7964
 11
81.029
 21
-48.1305
  0
LINE
  8
0
 10
81.029
 20
-48.1305
 11
80.8527
 21
-48.4361
  0
LINE
  8
0
 10
80.8527
 20
-48.4361
 11
80.6201
 21
-48.7015
  0
LINE
  8
0
 10
80.6201
 20
-48.7015
 11
80.3402
 21
-48.9164
  0
LINE
  8
0
 10
80.3402
 20
-48.9164
 11
80.0238
 21
-49.0725
  0
LINE
  8
0
 10
80.0238
 20
-49.0725
 11
79.683
 21
-49.1639
  0
LINE
  8
0
 10
79.683
 20
-49.1639
 11
79.3309
 21
-49.1871
  0
LINE
  8
0
 10
79.3309
 20
-49.1871
 11
78.981
 21
-49.1412
  0
LINE
  8
0
 10
108.841
 20
-62.6608
 11
108.507
 21
-62.5474
  0
LINE
  8
0
 10
108.507
 20
-62.5474
 11
108.201
 21
-62.3711
  0
LINE
  8
0
 10
108.201
 20
-62.3711
 11
107.936
 21
-62.1385
  0
LINE
  8
0
 10
107.936
 20
-62.1385
 11
107.721
 21
-61.8586
  0
LINE
  8
0
 10
107.721
 20
-61.8586
 11
107.565
 21
-61.5422
  0
LINE
  8
0
 10
107.565
 20
-61.5422
 11
107.473
 21
-61.2014
  0
LINE
  8
0
 10
107.473
 20
-61.2014
 11
107.45
 21
-60.8493
  0
LINE
  8
0
 10
107.45
 20
-60.8493
 11
107.496
 21
-60.4994
  0
LINE
  8
0
 10
107.496
 20
-60.4994
 11
107.609
 21
-60.1653
  0
LINE
  8
0
 10
107.609
 20
-60.1653
 11
107.786
 21
-59.8596
  0
LINE
  8
0
 10
107.786
 20
-59.8596
 11
108.018
 21
-59.5943
  0
LINE
  8
0
 10
108.018
 20
-59.5943
 11
108.298
 21
-59.3794
  0
LINE
  8
0
 10
108.298
 20
-59.3794
 11
108.615
 21
-59.2233
  0
LINE
  8
0
 10
108.615
 20
-59.2233
 11
108.955
 21
-59.1318
  0
LINE
  8
0
 10
108.955
 20
-59.1318
 11
109.308
 21
-59.1087
  0
LINE
  8
0
 10
109.308
 20
-59.1087
 11
109.657
 21
-59.1546
  0
LINE
  8
0
 10
109.657
 20
-59.1546
 11
109.992
 21
-59.268
  0
LINE
  8
0
 10
109.992
 20
-59.268
 11
110.297
 21
-59.4443
  0
LINE
  8
0
 10
110.297
 20
-59.4443
 11
110.563
 21
-59.6769
  0
LINE
  8
0
 10
110.563
 20
-59.6769
 11
110.777
 21
-59.9568
  0
LINE
  8
0
 10
110.777
 20
-59.9568
 11
110.934
 21
-60.2732
  0
LINE
  8
0
 10
110.934
 20
-60.2732
 11
111.025
 21
-60.614
  0
LINE
  8
0
 10
111.025
 20
-60.614
 11
111.048
 21
-60.9661
  0
LINE
  8
0
 10
111.048
 20
-60.9661
 11
111.002
 21
-61.316
  0
LINE
  8
0
 10
111.002
 20
-61.316
 11
110.889
 21
-61.6501
  0
LINE
  8
0
 10
110.889
 20
-61.6501
 11
110.713
 21
-61.9557
  0
LINE
  8
0
 10
110.713
 20
-61.9557
 11
110.48
 21
-62.2211
  0
LINE
  8
0
 10
110.48
 20
-62.2211
 11
110.2
 21
-62.436
  0
LINE
  8
0
 10
110.2
 20
-62.436
 11
109.884
 21
-62.5921
  0
LINE
  8
0
 10
109.884
 20
-62.5921
 11
109.543
 21
-62.6836
  0
LINE
  8
0
 10
109.543
 20
-62.6836
 11
109.191
 21
-62.7067
  0
LINE
  8
0
 10
109.191
 20
-62.7067
 11
108.841
 21
-62.6608
  0
LINE
  8
0
 10
397.851
 20
-72.7975
 11
397.524
 21
-72.6656
  0
LINE
  8
0
 10
397.524
 20
-72.6656
 11
397.228
 21
-72.4725
  0
LINE
  8
0
 10
397.228
 20
-72.4725
 11
396.976
 21
-72.2254
  0
LINE
  8
0
 10
396.976
 20
-72.2254
 11
396.777
 21
-71.934
  0
LINE
  8
0
 10
396.777
 20
-71.934
 11
396.639
 21
-71.6093
  0
LINE
  8
0
 10
396.639
 20
-71.6093
 11
396.567
 21
-71.2639
  0
LINE
  8
0
 10
396.567
 20
-71.2639
 11
396.563
 21
-70.9111
  0
LINE
  8
0
 10
396.563
 20
-70.9111
 11
396.629
 21
-70.5644
  0
LINE
  8
0
 10
396.629
 20
-70.5644
 11
396.761
 21
-70.2371
  0
LINE
  8
0
 10
396.761
 20
-70.2371
 11
396.954
 21
-69.9418
  0
LINE
  8
0
 10
396.954
 20
-69.9418
 11
397.201
 21
-69.6898
  0
LINE
  8
0
 10
397.201
 20
-69.6898
 11
397.492
 21
-69.4909
  0
LINE
  8
0
 10
397.492
 20
-69.4909
 11
397.817
 21
-69.3526
  0
LINE
  8
0
 10
397.817
 20
-69.3526
 11
398.162
 21
-69.2804
  0
LINE
  8
0
 10
398.162
 20
-69.2804
 11
398.515
 21
-69.2769
  0
LINE
  8
0
 10
398.515
 20
-69.2769
 11
398.862
 21
-69.3424
  0
LINE
  8
0
 10
398.862
 20
-69.3424
 11
399.189
 21
-69.4742
  0
LINE
  8
0
 10
399.189
 20
-69.4742
 11
399.485
 21
-69.6673
  0
LINE
  8
0
 10
399.485
 20
-69.6673
 11
399.736
 21
-69.9144
  0
LINE
  8
0
 10
399.736
 20
-69.9144
 11
399.935
 21
-70.2058
  0
LINE
  8
0
 10
399.935
 20
-70.2058
 11
400.074
 21
-70.5305
  0
LINE
  8
0
 10
400.074
 20
-70.5305
 11
400.146
 21
-70.8759
  0
LINE
  8
0
 10
400.146
 20
-70.8759
 11
400.149
 21
-71.2287
  0
LINE
  8
0
 10
400.149
 20
-71.2287
 11
400.084
 21
-71.5755
  0
LINE
  8
0
 10
400.084
 20
-71.5755
 11
399.952
 21
-71.9028
  0
LINE
  8
0
 10
399.952
 20
-71.9028
 11
399.759
 21
-72.1981
  0
LINE
  8
0
 10
399.759
 20
-72.1981
 11
399.512
 21
-72.45
  0
LINE
  8
0
 10
399.512
 20
-72.45
 11
399.22
 21
-72.6489
  0
LINE
  8
0
 10
399.22
 20
-72.6489
 11
398.896
 21
-72.7872
  0
LINE
  8
0
 10
398.896
 20
-72.7872
 11
398.55
 21
-72.8594
  0
LINE
  8
0
 10
398.55
 20
-72.8594
 11
398.198
 21
-72.8629
  0
LINE
  8
0
 10
398.198
 20
-72.8629
 11
397.851
 21
-72.7975
  0
LINE
  8
0
 10
138.701
 20
-76.1804
 11
138.367
 21
-76.0671
  0
LINE
  8
0
 10
138.367
 20
-76.0671
 11
138.061
 21
-75.8907
  0
LINE
  8
0
 10
138.061
 20
-75.8907
 11
137.796
 21
-75.6581
  0
LINE
  8
0
 10
137.796
 20
-75.6581
 11
137.581
 21
-75.3783
  0
LINE
  8
0
 10
137.581
 20
-75.3783
 11
137.425
 21
-75.0618
  0
LINE
  8
0
 10
137.425
 20
-75.0618
 11
137.333
 21
-74.721
  0
LINE
  8
0
 10
137.333
 20
-74.721
 11
137.31
 21
-74.3689
  0
LINE
  8
0
 10
137.31
 20
-74.3689
 11
137.356
 21
-74.019
  0
LINE
  8
0
 10
137.356
 20
-74.019
 11
137.469
 21
-73.6849
  0
LINE
  8
0
 10
137.469
 20
-73.6849
 11
137.646
 21
-73.3793
  0
LINE
  8
0
 10
137.646
 20
-73.3793
 11
137.878
 21
-73.1139
  0
LINE
  8
0
 10
137.878
 20
-73.1139
 11
138.158
 21
-72.899
  0
LINE
  8
0
 10
138.158
 20
-72.899
 11
138.475
 21
-72.7429
  0
LINE
  8
0
 10
138.475
 20
-72.7429
 11
138.815
 21
-72.6515
  0
LINE
  8
0
 10
138.815
 20
-72.6515
 11
139.167
 21
-72.6283
  0
LINE
  8
0
 10
139.167
 20
-72.6283
 11
139.517
 21
-72.6742
  0
LINE
  8
0
 10
139.517
 20
-72.6742
 11
139.851
 21
-72.7876
  0
LINE
  8
0
 10
139.851
 20
-72.7876
 11
140.157
 21
-72.9639
  0
LINE
  8
0
 10
140.157
 20
-72.9639
 11
140.422
 21
-73.1965
  0
LINE
  8
0
 10
140.422
 20
-73.1965
 11
140.637
 21
-73.4764
  0
LINE
  8
0
 10
140.637
 20
-73.4764
 11
140.794
 21
-73.7928
  0
LINE
  8
0
 10
140.794
 20
-73.7928
 11
140.885
 21
-74.1336
  0
LINE
  8
0
 10
140.885
 20
-74.1336
 11
140.908
 21
-74.4857
  0
LINE
  8
0
 10
140.908
 20
-74.4857
 11
140.862
 21
-74.8356
  0
LINE
  8
0
 10
140.862
 20
-74.8356
 11
140.749
 21
-75.1698
  0
LINE
  8
0
 10
140.749
 20
-75.1698
 11
140.572
 21
-75.4754
  0
LINE
  8
0
 10
140.572
 20
-75.4754
 11
140.34
 21
-75.7407
  0
LINE
  8
0
 10
140.34
 20
-75.7407
 11
140.06
 21
-75.9556
  0
LINE
  8
0
 10
140.06
 20
-75.9556
 11
139.744
 21
-76.1118
  0
LINE
  8
0
 10
139.744
 20
-76.1118
 11
139.403
 21
-76.2032
  0
LINE
  8
0
 10
139.403
 20
-76.2032
 11
139.051
 21
-76.2264
  0
LINE
  8
0
 10
139.051
 20
-76.2264
 11
138.701
 21
-76.1804
  0
LINE
  8
0
 10
390.165
 20
-81.57
 11
389.822
 21
-81.4883
  0
LINE
  8
0
 10
389.822
 20
-81.4883
 11
389.501
 21
-81.3412
  0
LINE
  8
0
 10
389.501
 20
-81.3412
 11
389.215
 21
-81.1344
  0
LINE
  8
0
 10
389.215
 20
-81.1344
 11
388.975
 21
-80.8758
  0
LINE
  8
0
 10
388.975
 20
-80.8758
 11
388.79
 21
-80.5753
  0
LINE
  8
0
 10
388.79
 20
-80.5753
 11
388.668
 21
-80.2445
  0
LINE
  8
0
 10
388.668
 20
-80.2445
 11
388.612
 21
-79.8961
  0
LINE
  8
0
 10
388.612
 20
-79.8961
 11
388.625
 21
-79.5435
  0
LINE
  8
0
 10
388.625
 20
-79.5435
 11
388.707
 21
-79.2002
  0
LINE
  8
0
 10
388.707
 20
-79.2002
 11
388.854
 21
-78.8794
  0
LINE
  8
0
 10
388.854
 20
-78.8794
 11
389.061
 21
-78.5935
  0
LINE
  8
0
 10
389.061
 20
-78.5935
 11
389.319
 21
-78.3535
  0
LINE
  8
0
 10
389.319
 20
-78.3535
 11
389.62
 21
-78.1685
  0
LINE
  8
0
 10
389.62
 20
-78.1685
 11
389.95
 21
-78.0457
  0
LINE
  8
0
 10
389.95
 20
-78.0457
 11
390.299
 21
-77.9899
  0
LINE
  8
0
 10
390.299
 20
-77.9899
 11
390.651
 21
-78.003
  0
LINE
  8
0
 10
390.651
 20
-78.003
 11
390.995
 21
-78.0847
  0
LINE
  8
0
 10
390.995
 20
-78.0847
 11
391.316
 21
-78.2318
  0
LINE
  8
0
 10
391.316
 20
-78.2318
 11
391.601
 21
-78.4386
  0
LINE
  8
0
 10
391.601
 20
-78.4386
 11
391.841
 21
-78.6973
  0
LINE
  8
0
 10
391.841
 20
-78.6973
 11
392.026
 21
-78.9978
  0
LINE
  8
0
 10
392.026
 20
-78.9978
 11
392.149
 21
-79.3285
  0
LINE
  8
0
 10
392.149
 20
-79.3285
 11
392.205
 21
-79.677
  0
LINE
  8
0
 10
392.205
 20
-79.677
 11
392.192
 21
-80.0296
  0
LINE
  8
0
 10
392.192
 20
-80.0296
 11
392.11
 21
-80.3728
  0
LINE
  8
0
 10
392.11
 20
-80.3728
 11
391.963
 21
-80.6936
  0
LINE
  8
0
 10
391.963
 20
-80.6936
 11
391.756
 21
-80.9795
  0
LINE
  8
0
 10
391.756
 20
-80.9795
 11
391.498
 21
-81.2195
  0
LINE
  8
0
 10
391.498
 20
-81.2195
 11
391.197
 21
-81.4045
  0
LINE
  8
0
 10
391.197
 20
-81.4045
 11
390.866
 21
-81.5273
  0
LINE
  8
0
 10
390.866
 20
-81.5273
 11
390.518
 21
-81.5832
  0
LINE
  8
0
 10
390.518
 20
-81.5832
 11
390.165
 21
-81.57
  0
LINE
  8
0
 10
168.561
 20
-89.7
 11
168.227
 21
-89.5867
  0
LINE
  8
0
 10
168.227
 20
-89.5867
 11
167.921
 21
-89.4104
  0
LINE
  8
0
 10
167.921
 20
-89.4104
 11
167.656
 21
-89.1778
  0
LINE
  8
0
 10
167.656
 20
-89.1778
 11
167.441
 21
-88.8979
  0
LINE
  8
0
 10
167.441
 20
-88.8979
 11
167.285
 21
-88.5815
  0
LINE
  8
0
 10
167.285
 20
-88.5815
 11
167.193
 21
-88.2406
  0
LINE
  8
0
 10
167.193
 20
-88.2406
 11
167.17
 21
-87.8885
  0
LINE
  8
0
 10
167.17
 20
-87.8885
 11
167.216
 21
-87.5387
  0
LINE
  8
0
 10
167.216
 20
-87.5387
 11
167.329
 21
-87.2045
  0
LINE
  8
0
 10
167.329
 20
-87.2045
 11
167.506
 21
-86.8989
  0
LINE
  8
0
 10
167.506
 20
-86.8989
 11
167.738
 21
-86.6335
  0
LINE
  8
0
 10
167.738
 20
-86.6335
 11
168.018
 21
-86.4187
  0
LINE
  8
0
 10
168.018
 20
-86.4187
 11
168.334
 21
-86.2625
  0
LINE
  8
0
 10
168.334
 20
-86.2625
 11
168.675
 21
-86.1711
  0
LINE
  8
0
 10
168.675
 20
-86.1711
 11
169.027
 21
-86.1479
  0
LINE
  8
0
 10
169.027
 20
-86.1479
 11
169.377
 21
-86.1939
  0
LINE
  8
0
 10
169.377
 20
-86.1939
 11
169.711
 21
-86.3072
  0
LINE
  8
0
 10
169.711
 20
-86.3072
 11
170.017
 21
-86.4836
  0
LINE
  8
0
 10
170.017
 20
-86.4836
 11
170.282
 21
-86.7161
  0
LINE
  8
0
 10
170.282
 20
-86.7161
 11
170.497
 21
-86.996
  0
LINE
  8
0
 10
170.497
 20
-86.996
 11
170.653
 21
-87.3125
  0
LINE
  8
0
 10
170.653
 20
-87.3125
 11
170.745
 21
-87.6533
  0
LINE
  8
0
 10
170.745
 20
-87.6533
 11
170.768
 21
-88.0054
  0
LINE
  8
0
 10
170.768
 20
-88.0054
 11
170.722
 21
-88.3552
  0
LINE
  8
0
 10
170.722
 20
-88.3552
 11
170.609
 21
-88.6894
  0
LINE
  8
0
 10
170.609
 20
-88.6894
 11
170.432
 21
-88.995
  0
LINE
  8
0
 10
170.432
 20
-88.995
 11
170.2
 21
-89.2604
  0
LINE
  8
0
 10
170.2
 20
-89.2604
 11
169.92
 21
-89.4753
  0
LINE
  8
0
 10
169.92
 20
-89.4753
 11
169.603
 21
-89.6314
  0
LINE
  8
0
 10
169.603
 20
-89.6314
 11
169.263
 21
-89.7228
  0
LINE
  8
0
 10
169.263
 20
-89.7228
 11
168.911
 21
-89.746
  0
LINE
  8
0
 10
168.911
 20
-89.746
 11
168.561
 21
-89.7
  0
LINE
  8
0
 10
364.098
 20
-94.2779
 11
363.755
 21
-94.1962
  0
LINE
  8
0
 10
363.755
 20
-94.1962
 11
363.434
 21
-94.0491
  0
LINE
  8
0
 10
363.434
 20
-94.0491
 11
363.148
 21
-93.8423
  0
LINE
  8
0
 10
363.148
 20
-93.8423
 11
362.908
 21
-93.5836
  0
LINE
  8
0
 10
362.908
 20
-93.5836
 11
362.723
 21
-93.2831
  0
LINE
  8
0
 10
362.723
 20
-93.2831
 11
362.6
 21
-92.9523
  0
LINE
  8
0
 10
362.6
 20
-92.9523
 11
362.544
 21
-92.6039
  0
LINE
  8
0
 10
362.544
 20
-92.6039
 11
362.557
 21
-92.2513
  0
LINE
  8
0
 10
362.557
 20
-92.2513
 11
362.639
 21
-91.908
  0
LINE
  8
0
 10
362.639
 20
-91.908
 11
362.786
 21
-91.5873
  0
LINE
  8
0
 10
362.786
 20
-91.5873
 11
362.993
 21
-91.3014
  0
LINE
  8
0
 10
362.993
 20
-91.3014
 11
363.252
 21
-91.0614
  0
LINE
  8
0
 10
363.252
 20
-91.0614
 11
363.552
 21
-90.8764
  0
LINE
  8
0
 10
363.552
 20
-90.8764
 11
363.883
 21
-90.7536
  0
LINE
  8
0
 10
363.883
 20
-90.7536
 11
364.231
 21
-90.6977
  0
LINE
  8
0
 10
364.231
 20
-90.6977
 11
364.584
 21
-90.7109
  0
LINE
  8
0
 10
364.584
 20
-90.7109
 11
364.927
 21
-90.7926
  0
LINE
  8
0
 10
364.927
 20
-90.7926
 11
365.248
 21
-90.9397
  0
LINE
  8
0
 10
365.248
 20
-90.9397
 11
365.534
 21
-91.1465
  0
LINE
  8
0
 10
365.534
 20
-91.1465
 11
365.774
 21
-91.4051
  0
LINE
  8
0
 10
365.774
 20
-91.4051
 11
365.959
 21
-91.7056
  0
LINE
  8
0
 10
365.959
 20
-91.7056
 11
366.082
 21
-92.0364
  0
LINE
  8
0
 10
366.082
 20
-92.0364
 11
366.138
 21
-92.3848
  0
LINE
  8
0
 10
366.138
 20
-92.3848
 11
366.125
 21
-92.7374
  0
LINE
  8
0
 10
366.125
 20
-92.7374
 11
366.043
 21
-93.0807
  0
LINE
  8
0
 10
366.043
 20
-93.0807
 11
365.896
 21
-93.4015
  0
LINE
  8
0
 10
365.896
 20
-93.4015
 11
365.689
 21
-93.6873
  0
LINE
  8
0
 10
365.689
 20
-93.6873
 11
365.43
 21
-93.9274
  0
LINE
  8
0
 10
365.43
 20
-93.9274
 11
365.13
 21
-94.1123
  0
LINE
  8
0
 10
365.13
 20
-94.1123
 11
364.799
 21
-94.2351
  0
LINE
  8
0
 10
364.799
 20
-94.2351
 11
364.451
 21
-94.291
  0
LINE
  8
0
 10
364.451
 20
-94.291
 11
364.098
 21
-94.2779
  0
LINE
  8
0
 10
198.421
 20
-103.22
 11
198.086
 21
-103.106
  0
LINE
  8
0
 10
198.086
 20
-103.106
 11
197.781
 21
-102.93
  0
LINE
  8
0
 10
197.781
 20
-102.93
 11
197.515
 21
-102.697
  0
LINE
  8
0
 10
197.515
 20
-102.697
 11
197.301
 21
-102.418
  0
LINE
  8
0
 10
197.301
 20
-102.418
 11
197.144
 21
-102.101
  0
LINE
  8
0
 10
197.144
 20
-102.101
 11
197.053
 21
-101.76
  0
LINE
  8
0
 10
197.053
 20
-101.76
 11
197.03
 21
-101.408
  0
LINE
  8
0
 10
197.03
 20
-101.408
 11
197.076
 21
-101.058
  0
LINE
  8
0
 10
197.076
 20
-101.058
 11
197.189
 21
-100.724
  0
LINE
  8
0
 10
197.189
 20
-100.724
 11
197.365
 21
-100.419
  0
LINE
  8
0
 10
197.365
 20
-100.419
 11
197.598
 21
-100.153
  0
LINE
  8
0
 10
197.598
 20
-100.153
 11
197.878
 21
-99.9383
  0
LINE
  8
0
 10
197.878
 20
-99.9383
 11
198.194
 21
-99.7821
  0
LINE
  8
0
 10
198.194
 20
-99.7821
 11
198.535
 21
-99.6907
  0
LINE
  8
0
 10
198.535
 20
-99.6907
 11
198.887
 21
-99.6675
  0
LINE
  8
0
 10
198.887
 20
-99.6675
 11
199.237
 21
-99.7135
  0
LINE
  8
0
 10
199.237
 20
-99.7135
 11
199.571
 21
-99.8268
  0
LINE
  8
0
 10
199.571
 20
-99.8268
 11
199.877
 21
-100.003
  0
LINE
  8
0
 10
199.877
 20
-100.003
 11
200.142
 21
-100.236
  0
LINE
  8
0
 10
200.142
 20
-100.236
 11
200.357
 21
-100.516
  0
LINE
  8
0
 10
200.357
 20
-100.516
 11
200.513
 21
-100.832
  0
LINE
  8
0
 10
200.513
 20
-100.832
 11
200.605
 21
-101.173
  0
LINE
  8
0
 10
200.605
 20
-101.173
 11
200.628
 21
-101.525
  0
LINE
  8
0
 10
200.628
 20
-101.525
 11
200.582
 21
-101.875
  0
LINE
  8
0
 10
200.582
 20
-101.875
 11
200.469
 21
-102.209
  0
LINE
  8
0
 10
200.469
 20
-102.209
 11
200.292
 21
-102.515
  0
LINE
  8
0
 10
200.292
 20
-102.515
 11
200.06
 21
-102.78
  0
LINE
  8
0
 10
200.06
 20
-102.78
 11
199.78
 21
-102.995
  0
LINE
  8
0
 10
199.78
 20
-102.995
 11
199.463
 21
-103.151
  0
LINE
  8
0
 10
199.463
 20
-103.151
 11
199.123
 21
-103.242
  0
LINE
  8
0
 10
199.123
 20
-103.242
 11
198.77
 21
-103.266
  0
LINE
  8
0
 10
198.77
 20
-103.266
 11
198.421
 21
-103.22
  0
LINE
  8
0
 10
338.031
 20
-106.986
 11
337.687
 21
-106.904
  0
LINE
  8
0
 10
337.687
 20
-106.904
 11
337.367
 21
-106.757
  0
LINE
  8
0
 10
337.367
 20
-106.757
 11
337.081
 21
-106.55
  0
LINE
  8
0
 10
337.081
 20
-106.55
 11
336.841
 21
-106.291
  0
LINE
  8
0
 10
336.841
 20
-106.291
 11
336.656
 21
-105.991
  0
LINE
  8
0
 10
336.656
 20
-105.991
 11
336.533
 21
-105.66
  0
LINE
  8
0
 10
336.533
 20
-105.66
 11
336.477
 21
-105.312
  0
LINE
  8
0
 10
336.477
 20
-105.312
 11
336.49
 21
-104.959
  0
LINE
  8
0
 10
336.49
 20
-104.959
 11
336.572
 21
-104.616
  0
LINE
  8
0
 10
336.572
 20
-104.616
 11
336.719
 21
-104.295
  0
LINE
  8
0
 10
336.719
 20
-104.295
 11
336.926
 21
-104.009
  0
LINE
  8
0
 10
336.926
 20
-104.009
 11
337.184
 21
-103.769
  0
LINE
  8
0
 10
337.184
 20
-103.769
 11
337.485
 21
-103.584
  0
LINE
  8
0
 10
337.485
 20
-103.584
 11
337.816
 21
-103.461
  0
LINE
  8
0
 10
337.816
 20
-103.461
 11
338.164
 21
-103.406
  0
LINE
  8
0
 10
338.164
 20
-103.406
 11
338.517
 21
-103.419
  0
LINE
  8
0
 10
338.517
 20
-103.419
 11
338.86
 21
-103.5
  0
LINE
  8
0
 10
338.86
 20
-103.5
 11
339.181
 21
-103.648
  0
LINE
  8
0
 10
339.181
 20
-103.648
 11
339.467
 21
-103.854
  0
LINE
  8
0
 10
339.467
 20
-103.854
 11
339.707
 21
-104.113
  0
LINE
  8
0
 10
339.707
 20
-104.113
 11
339.892
 21
-104.413
  0
LINE
  8
0
 10
339.892
 20
-104.413
 11
340.014
 21
-104.744
  0
LINE
  8
0
 10
340.014
 20
-104.744
 11
340.07
 21
-105.093
  0
LINE
  8
0
 10
340.07
 20
-105.093
 11
340.057
 21
-105.445
  0
LINE
  8
0
 10
340.057
 20
-105.445
 11
339.975
 21
-105.789
  0
LINE
  8
0
 10
339.975
 20
-105.789
 11
339.828
 21
-106.109
  0
LINE
  8
0
 10
339.828
 20
-106.109
 11
339.621
 21
-106.395
  0
LINE
  8
0
 10
339.621
 20
-106.395
 11
339.363
 21
-106.635
  0
LINE
  8
0
 10
339.363
 20
-106.635
 11
339.062
 21
-106.82
  0
LINE
  8
0
 10
339.062
 20
-106.82
 11
338.732
 21
-106.943
  0
LINE
  8
0
 10
338.732
 20
-106.943
 11
338.383
 21
-106.999
  0
LINE
  8
0
 10
338.383
 20
-106.999
 11
338.031
 21
-106.986
  0
LINE
  8
0
 10
228.28
 20
-116.739
 11
227.946
 21
-116.626
  0
LINE
  8
0
 10
227.946
 20
-116.626
 11
227.641
 21
-116.45
  0
LINE
  8
0
 10
227.641
 20
-116.45
 11
227.375
 21
-116.217
  0
LINE
  8
0
 10
227.375
 20
-116.217
 11
227.16
 21
-115.937
  0
LINE
  8
0
 10
227.16
 20
-115.937
 11
227.004
 21
-115.621
  0
LINE
  8
0
 10
227.004
 20
-115.621
 11
226.913
 21
-115.28
  0
LINE
  8
0
 10
226.913
 20
-115.28
 11
226.89
 21
-114.928
  0
LINE
  8
0
 10
226.89
 20
-114.928
 11
226.936
 21
-114.578
  0
LINE
  8
0
 10
226.936
 20
-114.578
 11
227.049
 21
-114.244
  0
LINE
  8
0
 10
227.049
 20
-114.244
 11
227.225
 21
-113.938
  0
LINE
  8
0
 10
227.225
 20
-113.938
 11
227.458
 21
-113.673
  0
LINE
  8
0
 10
227.458
 20
-113.673
 11
227.738
 21
-113.458
  0
LINE
  8
0
 10
227.738
 20
-113.458
 11
228.054
 21
-113.302
  0
LINE
  8
0
 10
228.054
 20
-113.302
 11
228.395
 21
-113.21
  0
LINE
  8
0
 10
228.395
 20
-113.21
 11
228.747
 21
-113.187
  0
LINE
  8
0
 10
228.747
 20
-113.187
 11
229.097
 21
-113.233
  0
LINE
  8
0
 10
229.097
 20
-113.233
 11
229.431
 21
-113.346
  0
LINE
  8
0
 10
229.431
 20
-113.346
 11
229.737
 21
-113.523
  0
LINE
  8
0
 10
229.737
 20
-113.523
 11
230.002
 21
-113.755
  0
LINE
  8
0
 10
230.002
 20
-113.755
 11
230.217
 21
-114.035
  0
LINE
  8
0
 10
230.217
 20
-114.035
 11
230.373
 21
-114.352
  0
LINE
  8
0
 10
230.373
 20
-114.352
 11
230.465
 21
-114.693
  0
LINE
  8
0
 10
230.465
 20
-114.693
 11
230.488
 21
-115.045
  0
LINE
  8
0
 10
230.488
 20
-115.045
 11
230.442
 21
-115.394
  0
LINE
  8
0
 10
230.442
 20
-115.394
 11
230.328
 21
-115.729
  0
LINE
  8
0
 10
230.328
 20
-115.729
 11
230.152
 21
-116.034
  0
LINE
  8
0
 10
230.152
 20
-116.034
 11
229.92
 21
-116.3
  0
LINE
  8
0
 10
229.92
 20
-116.3
 11
229.64
 21
-116.514
  0
LINE
  8
0
 10
229.64
 20
-116.514
 11
229.323
 21
-116.671
  0
LINE
  8
0
 10
229.323
 20
-116.671
 11
228.982
 21
-116.762
  0
LINE
  8
0
 10
228.982
 20
-116.762
 11
228.63
 21
-116.785
  0
LINE
  8
0
 10
228.63
 20
-116.785
 11
228.28
 21
-116.739
  0
LINE
  8
0
 10
314.48
 20
-128.635
 11
314.137
 21
-128.551
  0
LINE
  8
0
 10
314.137
 20
-128.551
 11
313.818
 21
-128.401
  0
LINE
  8
0
 10
313.818
 20
-128.401
 11
313.534
 21
-128.191
  0
LINE
  8
0
 10
313.534
 20
-128.191
 11
313.296
 21
-127.931
  0
LINE
  8
0
 10
313.296
 20
-127.931
 11
313.114
 21
-127.629
  0
LINE
  8
0
 10
313.114
 20
-127.629
 11
312.994
 21
-127.297
  0
LINE
  8
0
 10
312.994
 20
-127.297
 11
312.941
 21
-126.948
  0
LINE
  8
0
 10
312.941
 20
-126.948
 11
312.957
 21
-126.595
  0
LINE
  8
0
 10
312.957
 20
-126.595
 11
313.042
 21
-126.253
  0
LINE
  8
0
 10
313.042
 20
-126.253
 11
313.192
 21
-125.933
  0
LINE
  8
0
 10
313.192
 20
-125.933
 11
313.401
 21
-125.649
  0
LINE
  8
0
 10
313.401
 20
-125.649
 11
313.662
 21
-125.411
  0
LINE
  8
0
 10
313.662
 20
-125.411
 11
313.964
 21
-125.229
  0
LINE
  8
0
 10
313.964
 20
-125.229
 11
314.296
 21
-125.109
  0
LINE
  8
0
 10
314.296
 20
-125.109
 11
314.645
 21
-125.056
  0
LINE
  8
0
 10
314.645
 20
-125.056
 11
314.997
 21
-125.073
  0
LINE
  8
0
 10
314.997
 20
-125.073
 11
315.34
 21
-125.157
  0
LINE
  8
0
 10
315.34
 20
-125.157
 11
315.659
 21
-125.307
  0
LINE
  8
0
 10
315.659
 20
-125.307
 11
315.943
 21
-125.517
  0
LINE
  8
0
 10
315.943
 20
-125.517
 11
316.181
 21
-125.777
  0
LINE
  8
0
 10
316.181
 20
-125.777
 11
316.363
 21
-126.079
  0
LINE
  8
0
 10
316.363
 20
-126.079
 11
316.483
 21
-126.411
  0
LINE
  8
0
 10
316.483
 20
-126.411
 11
316.536
 21
-126.76
  0
LINE
  8
0
 10
316.536
 20
-126.76
 11
316.52
 21
-127.113
  0
LINE
  8
0
 10
316.52
 20
-127.113
 11
316.435
 21
-127.455
  0
LINE
  8
0
 10
316.435
 20
-127.455
 11
316.285
 21
-127.775
  0
LINE
  8
0
 10
316.285
 20
-127.775
 11
316.076
 21
-128.059
  0
LINE
  8
0
 10
316.076
 20
-128.059
 11
315.815
 21
-128.296
  0
LINE
  8
0
 10
315.815
 20
-128.296
 11
315.513
 21
-128.479
  0
LINE
  8
0
 10
315.513
 20
-128.479
 11
315.181
 21
-128.599
  0
LINE
  8
0
 10
315.181
 20
-128.599
 11
314.832
 21
-128.652
  0
LINE
  8
0
 10
314.832
 20
-128.652
 11
314.48
 21
-128.635
  0
LINE
  8
0
 10
258.14
 20
-130.259
 11
257.806
 21
-130.146
  0
LINE
  8
0
 10
257.806
 20
-130.146
 11
257.501
 21
-129.969
  0
LINE
  8
0
 10
257.501
 20
-129.969
 11
257.235
 21
-129.737
  0
LINE
  8
0
 10
257.235
 20
-129.737
 11
257.02
 21
-129.457
  0
LINE
  8
0
 10
257.02
 20
-129.457
 11
256.864
 21
-129.14
  0
LINE
  8
0
 10
256.864
 20
-129.14
 11
256.773
 21
-128.8
  0
LINE
  8
0
 10
256.773
 20
-128.8
 11
256.75
 21
-128.447
  0
LINE
  8
0
 10
256.75
 20
-128.447
 11
256.796
 21
-128.098
  0
LINE
  8
0
 10
256.796
 20
-128.098
 11
256.909
 21
-127.763
  0
LINE
  8
0
 10
256.909
 20
-127.763
 11
257.085
 21
-127.458
  0
LINE
  8
0
 10
257.085
 20
-127.458
 11
257.318
 21
-127.192
  0
LINE
  8
0
 10
257.318
 20
-127.192
 11
257.598
 21
-126.978
  0
LINE
  8
0
 10
257.598
 20
-126.978
 11
257.914
 21
-126.821
  0
LINE
  8
0
 10
257.914
 20
-126.821
 11
258.255
 21
-126.73
  0
LINE
  8
0
 10
258.255
 20
-126.73
 11
258.607
 21
-126.707
  0
LINE
  8
0
 10
258.607
 20
-126.707
 11
258.957
 21
-126.753
  0
LINE
  8
0
 10
258.957
 20
-126.753
 11
259.291
 21
-126.866
  0
LINE
  8
0
 10
259.291
 20
-126.866
 11
259.597
 21
-127.042
  0
LINE
  8
0
 10
259.597
 20
-127.042
 11
259.862
 21
-127.275
  0
LINE
  8
0
 10
259.862
 20
-127.275
 11
260.077
 21
-127.555
  0
LINE
  8
0
 10
260.077
 20
-127.555
 11
260.233
 21
-127.871
  0
LINE
  8
0
 10
260.233
 20
-127.871
 11
260.324
 21
-128.212
  0
LINE
  8
0
 10
260.324
 20
-128.212
 11
260.348
 21
-128.564
  0
LINE
  8
0
 10
260.348
 20
-128.564
 11
260.302
 21
-128.914
  0
LINE
  8
0
 10
260.302
 20
-128.914
 11
260.188
 21
-129.248
  0
LINE
  8
0
 10
260.188
 20
-129.248
 11
260.012
 21
-129.554
  0
LINE
  8
0
 10
260.012
 20
-129.554
 11
259.779
 21
-129.819
  0
LINE
  8
0
 10
259.779
 20
-129.819
 11
259.5
 21
-130.034
  0
LINE
  8
0
 10
259.5
 20
-130.034
 11
259.183
 21
-130.19
  0
LINE
  8
0
 10
259.183
 20
-130.19
 11
258.842
 21
-130.282
  0
LINE
  8
0
 10
258.842
 20
-130.282
 11
258.49
 21
-130.305
  0
LINE
  8
0
 10
258.49
 20
-130.305
 11
258.14
 21
-130.259
  0
LINE
  8
0
 10
288
 20
-143.779
 11
287.666
 21
-143.665
  0
LINE
  8
0
 10
287.666
 20
-143.665
 11
287.36
 21
-143.489
  0
LINE
  8
0
 10
287.36
 20
-143.489
 11
287.095
 21
-143.256
  0
LINE
  8
0
 10
287.095
 20
-143.256
 11
286.88
 21
-142.976
  0
LINE
  8
0
 10
286.88
 20
-142.976
 11
286.724
 21
-142.66
  0
LINE
  8
0
 10
286.724
 20
-142.66
 11
286.633
 21
-142.319
  0
LINE
  8
0
 10
286.633
 20
-142.319
 11
286.609
 21
-141.967
  0
LINE
  8
0
 10
286.609
 20
-141.967
 11
286.655
 21
-141.617
  0
LINE
  8
0
 10
286.655
 20
-141.617
 11
286.769
 21
-141.283
  0
LINE
  8
0
 10
286.769
 20
-141.283
 11
286.945
 21
-140.977
  0
LINE
  8
0
 10
286.945
 20
-140.977
 11
287.178
 21
-140.712
  0
LINE
  8
0
 10
287.178
 20
-140.712
 11
287.458
 21
-140.497
  0
LINE
  8
0
 10
287.458
 20
-140.497
 11
287.774
 21
-140.341
  0
LINE
  8
0
 10
287.774
 20
-140.341
 11
288.115
 21
-140.25
  0
LINE
  8
0
 10
288.115
 20
-140.25
 11
288.467
 21
-140.226
  0
LINE
  8
0
 10
288.467
 20
-140.226
 11
288.817
 21
-140.272
  0
LINE
  8
0
 10
288.817
 20
-140.272
 11
289.151
 21
-140.386
  0
LINE
  8
0
 10
289.151
 20
-140.386
 11
289.457
 21
-140.562
  0
LINE
  8
0
 10
289.457
 20
-140.562
 11
289.722
 21
-140.795
  0
LINE
  8
0
 10
289.722
 20
-140.795
 11
289.937
 21
-141.075
  0
LINE
  8
0
 10
289.937
 20
-141.075
 11
290.093
 21
-141.391
  0
LINE
  8
0
 10
290.093
 20
-141.391
 11
290.184
 21
-141.732
  0
LINE
  8
0
 10
290.184
 20
-141.732
 11
290.208
 21
-142.084
  0
LINE
  8
0
 10
290.208
 20
-142.084
 11
290.162
 21
-142.434
  0
LINE
  8
0
 10
290.162
 20
-142.434
 11
290.048
 21
-142.768
  0
LINE
  8
0
 10
290.048
 20
-142.768
 11
289.872
 21
-143.074
  0
LINE
  8
0
 10
289.872
 20
-143.074
 11
289.639
 21
-143.339
  0
LINE
  8
0
 10
289.639
 20
-143.339
 11
289.359
 21
-143.554
  0
LINE
  8
0
 10
289.359
 20
-143.554
 11
289.043
 21
-143.71
  0
LINE
  8
0
 10
289.043
 20
-143.71
 11
288.702
 21
-143.801
  0
LINE
  8
0
 10
288.702
 20
-143.801
 11
288.35
 21
-143.825
  0
LINE
  8
0
 10
288.35
 20
-143.825
 11
288
 21
-143.779
  0
LINE
  8
0
 10
304.824
 20
-144.856
 11
304.482
 21
-144.772
  0
LINE
  8
0
 10
304.482
 20
-144.772
 11
304.162
 21
-144.622
  0
LINE
  8
0
 10
304.162
 20
-144.622
 11
303.878
 21
-144.413
  0
LINE
  8
0
 10
303.878
 20
-144.413
 11
303.64
 21
-144.152
  0
LINE
  8
0
 10
303.64
 20
-144.152
 11
303.458
 21
-143.85
  0
LINE
  8
0
 10
303.458
 20
-143.85
 11
303.338
 21
-143.518
  0
LINE
  8
0
 10
303.338
 20
-143.518
 11
303.285
 21
-143.169
  0
LINE
  8
0
 10
303.285
 20
-143.169
 11
303.302
 21
-142.816
  0
LINE
  8
0
 10
303.302
 20
-142.816
 11
303.386
 21
-142.474
  0
LINE
  8
0
 10
303.386
 20
-142.474
 11
303.536
 21
-142.155
  0
LINE
  8
0
 10
303.536
 20
-142.155
 11
303.746
 21
-141.87
  0
LINE
  8
0
 10
303.746
 20
-141.87
 11
304.006
 21
-141.633
  0
LINE
  8
0
 10
304.006
 20
-141.633
 11
304.308
 21
-141.45
  0
LINE
  8
0
 10
304.308
 20
-141.45
 11
304.64
 21
-141.33
  0
LINE
  8
0
 10
304.64
 20
-141.33
 11
304.989
 21
-141.278
  0
LINE
  8
0
 10
304.989
 20
-141.278
 11
305.342
 21
-141.294
  0
LINE
  8
0
 10
305.342
 20
-141.294
 11
305.684
 21
-141.379
  0
LINE
  8
0
 10
305.684
 20
-141.379
 11
306.004
 21
-141.528
  0
LINE
  8
0
 10
306.004
 20
-141.528
 11
306.288
 21
-141.738
  0
LINE
  8
0
 10
306.288
 20
-141.738
 11
306.525
 21
-141.999
  0
LINE
  8
0
 10
306.525
 20
-141.999
 11
306.708
 21
-142.301
  0
LINE
  8
0
 10
306.708
 20
-142.301
 11
306.828
 21
-142.633
  0
LINE
  8
0
 10
306.828
 20
-142.633
 11
306.88
 21
-142.981
  0
LINE
  8
0
 10
306.88
 20
-142.981
 11
306.864
 21
-143.334
  0
LINE
  8
0
 10
306.864
 20
-143.334
 11
306.78
 21
-143.676
  0
LINE
  8
0
 10
306.78
 20
-143.676
 11
306.63
 21
-143.996
  0
LINE
  8
0
 10
306.63
 20
-143.996
 11
306.42
 21
-144.28
  0
LINE
  8
0
 10
306.42
 20
-144.28
 11
306.16
 21
-144.518
  0
LINE
  8
0
 10
306.16
 20
-144.518
 11
305.858
 21
-144.7
  0
LINE
  8
0
 10
305.858
 20
-144.7
 11
305.526
 21
-144.82
  0
LINE
  8
0
 10
305.526
 20
-144.82
 11
305.177
 21
-144.873
  0
LINE
  8
0
 10
305.177
 20
-144.873
 11
304.824
 21
-144.856
  0
LINE
  8
0
 10
301.19
 20
-152.588
 11
302.634
 21
-149.399
  0
LINE
  8
0
 10
302.634
 20
-149.399
 11
307.188
 21
-151.461
  0
LINE
  8
0
 10
307.188
 20
-151.461
 11
305.745
 21
-154.65
  0
LINE
  8
0
 10
305.745
 20
-154.65
 11
301.19
 21
-152.588
  0
ENDSEC
  0
SECTION
  2
OBJECTS
  0
DICTIONARY
  0
ENDSEC
  0
EOF
