  0
SECTION
  2
BLOCKS
  0
ENDSEC
  0
SECTION
  2
ENTITIES
  0
LINE
  8
0
 10
0
 20
20
 11
0
 21
0
  0
LINE
  8
0
 10
0
 20
0
 11
43.8774
 21
0
  0
LINE
  8
0
 10
43.8774
 20
0
 11
43.8774
 21
80
  0
LINE
  8
0
 10
43.8774
 20
80
 11
0
 21
80
  0
LINE
  8
0
 10
0
 20
80
 11
0
 21
60
  0
LINE
  8
0
 10
0
 20
60
 11
-3
 21
60
  0
LINE
  8
0
 10
-3
 20
60
 11
-3
 21
80
  0
LINE
  8
0
 10
-3
 20
80
 11
-30
 21
80
  0
LINE
  8
0
 10
-30
 20
80
 11
-30
 21
0
  0
LINE
  8
0
 10
-30
 20
0
 11
-3
 21
0
  0
LINE
  8
0
 10
-3
 20
0
 11
-3
 21
20
  0
LINE
  8
0
 10
-3
 20
20
 11
0
 21
20
  0
LINE
  8
0
 10
16.6488
 20
70.0746
 11
16.3112
 21
70.177
  0
LINE
  8
0
 10
16.3112
 20
70.177
 11
16
 21
70.3434
  0
LINE
  8
0
 10
16
 20
70.3434
 11
15.7272
 21
70.5672
  0
LINE
  8
0
 10
15.7272
 20
70.5672
 11
15.5034
 21
70.84
  0
LINE
  8
0
 10
15.5034
 20
70.84
 11
15.337
 21
71.1512
  0
LINE
  8
0
 10
15.337
 20
71.1512
 11
15.2346
 21
71.4888
  0
LINE
  8
0
 10
15.2346
 20
71.4888
 11
15.2
 21
71.84
  0
LINE
  8
0
 10
15.2
 20
71.84
 11
15.2346
 21
72.1911
  0
LINE
  8
0
 10
15.2346
 20
72.1911
 11
15.337
 21
72.5288
  0
LINE
  8
0
 10
15.337
 20
72.5288
 11
15.5034
 21
72.84
  0
LINE
  8
0
 10
15.5034
 20
72.84
 11
15.7272
 21
73.1128
  0
LINE
  8
0
 10
15.7272
 20
73.1128
 11
16
 21
73.3366
  0
LINE
  8
0
 10
16
 20
73.3366
 11
16.3112
 21
73.503
  0
LINE
  8
0
 10
16.3112
 20
73.503
 11
16.6488
 21
73.6054
  0
LINE
  8
0
 10
16.6488
 20
73.6054
 11
17
 21
73.64
  0
LINE
  8
0
 10
17
 20
73.64
 11
17.3512
 21
73.6054
  0
LINE
  8
0
 10
17.3512
 20
73.6054
 11
17.6888
 21
73.503
  0
LINE
  8
0
 10
17.6888
 20
73.503
 11
18
 21
73.3366
  0
LINE
  8
0
 10
18
 20
73.3366
 11
18.2728
 21
73.1128
  0
LINE
  8
0
 10
18.2728
 20
73.1128
 11
18.4966
 21
72.84
  0
LINE
  8
0
 10
18.4966
 20
72.84
 11
18.663
 21
72.5288
  0
LINE
  8
0
 10
18.663
 20
72.5288
 11
18.7654
 21
72.1911
  0
LINE
  8
0
 10
18.7654
 20
72.1911
 11
18.8
 21
71.84
  0
LINE
  8
0
 10
18.8
 20
71.84
 11
18.7654
 21
71.4888
  0
LINE
  8
0
 10
18.7654
 20
71.4888
 11
18.663
 21
71.1512
  0
LINE
  8
0
 10
18.663
 20
71.1512
 11
18.4966
 21
70.84
  0
LINE
  8
0
 10
18.4966
 20
70.84
 11
18.2728
 21
70.5672
  0
LINE
  8
0
 10
18.2728
 20
70.5672
 11
18
 21
70.3434
  0
LINE
  8
0
 10
18
 20
70.3434
 11
17.6888
 21
70.177
  0
LINE
  8
0
 10
17.6888
 20
70.177
 11
17.3512
 21
70.0746
  0
LINE
  8
0
 10
17.3512
 20
70.0746
 11
17
 21
70.04
  0
LINE
  8
0
 10
17
 20
70.04
 11
16.6488
 21
70.0746
  0
LINE
  8
0
 10
35.5262
 20
70.0746
 11
35.1886
 21
70.177
  0
LINE
  8
0
 10
35.1886
 20
70.177
 11
34.8774
 21
70.3434
  0
LINE
  8
0
 10
34.8774
 20
70.3434
 11
34.6046
 21
70.5672
  0
LINE
  8
0
 10
34.6046
 20
70.5672
 11
34.3808
 21
70.84
  0
LINE
  8
0
 10
34.3808
 20
70.84
 11
34.2144
 21
71.1512
  0
LINE
  8
0
 10
34.2144
 20
71.1512
 11
34.112
 21
71.4888
  0
LINE
  8
0
 10
34.112
 20
71.4888
 11
34.0774
 21
71.84
  0
LINE
  8
0
 10
34.0774
 20
71.84
 11
34.112
 21
72.1911
  0
LINE
  8
0
 10
34.112
 20
72.1911
 11
34.2144
 21
72.5288
  0
LINE
  8
0
 10
34.2144
 20
72.5288
 11
34.3808
 21
72.84
  0
LINE
  8
0
 10
34.3808
 20
72.84
 11
34.6046
 21
73.1128
  0
LINE
  8
0
 10
34.6046
 20
73.1128
 11
34.8774
 21
73.3366
  0
LINE
  8
0
 10
34.8774
 20
73.3366
 11
35.1886
 21
73.503
  0
LINE
  8
0
 10
35.1886
 20
73.503
 11
35.5262
 21
73.6054
  0
LINE
  8
0
 10
35.5262
 20
73.6054
 11
35.8774
 21
73.64
  0
LINE
  8
0
 10
35.8774
 20
73.64
 11
36.2285
 21
73.6054
  0
LINE
  8
0
 10
36.2285
 20
73.6054
 11
36.5662
 21
73.503
  0
LINE
  8
0
 10
36.5662
 20
73.503
 11
36.8774
 21
73.3366
  0
LINE
  8
0
 10
36.8774
 20
73.3366
 11
37.1502
 21
73.1128
  0
LINE
  8
0
 10
37.1502
 20
73.1128
 11
37.374
 21
72.84
  0
LINE
  8
0
 10
37.374
 20
72.84
 11
37.5404
 21
72.5288
  0
LINE
  8
0
 10
37.5404
 20
72.5288
 11
37.6428
 21
72.1911
  0
LINE
  8
0
 10
37.6428
 20
72.1911
 11
37.6774
 21
71.84
  0
LINE
  8
0
 10
37.6774
 20
71.84
 11
37.6428
 21
71.4888
  0
LINE
  8
0
 10
37.6428
 20
71.4888
 11
37.5404
 21
71.1512
  0
LINE
  8
0
 10
37.5404
 20
71.1512
 11
37.374
 21
70.84
  0
LINE
  8
0
 10
37.374
 20
70.84
 11
37.1502
 21
70.5672
  0
LINE
  8
0
 10
37.1502
 20
70.5672
 11
36.8774
 21
70.3434
  0
LINE
  8
0
 10
36.8774
 20
70.3434
 11
36.5662
 21
70.177
  0
LINE
  8
0
 10
36.5662
 20
70.177
 11
36.2285
 21
70.0746
  0
LINE
  8
0
 10
36.2285
 20
70.0746
 11
35.8774
 21
70.04
  0
LINE
  8
0
 10
35.8774
 20
70.04
 11
35.5262
 21
70.0746
  0
LINE
  8
0
 10
16.6488
 20
6.39458
 11
16.3112
 21
6.49701
  0
LINE
  8
0
 10
16.3112
 20
6.49701
 11
16
 21
6.66335
  0
LINE
  8
0
 10
16
 20
6.66335
 11
15.7272
 21
6.88721
  0
LINE
  8
0
 10
15.7272
 20
6.88721
 11
15.5034
 21
7.15997
  0
LINE
  8
0
 10
15.5034
 20
7.15997
 11
15.337
 21
7.47116
  0
LINE
  8
0
 10
15.337
 20
7.47116
 11
15.2346
 21
7.80884
  0
LINE
  8
0
 10
15.2346
 20
7.80884
 11
15.2
 21
8.15999
  0
LINE
  8
0
 10
15.2
 20
8.15999
 11
15.2346
 21
8.51114
  0
LINE
  8
0
 10
15.2346
 20
8.51114
 11
15.337
 21
8.84882
  0
LINE
  8
0
 10
15.337
 20
8.84882
 11
15.5034
 21
9.16
  0
LINE
  8
0
 10
15.5034
 20
9.16
 11
15.7272
 21
9.43277
  0
LINE
  8
0
 10
15.7272
 20
9.43277
 11
16
 21
9.65663
  0
LINE
  8
0
 10
16
 20
9.65663
 11
16.3112
 21
9.82297
  0
LINE
  8
0
 10
16.3112
 20
9.82297
 11
16.6488
 21
9.9254
  0
LINE
  8
0
 10
16.6488
 20
9.9254
 11
17
 21
9.95998
  0
LINE
  8
0
 10
17
 20
9.95998
 11
17.3512
 21
9.9254
  0
LINE
  8
0
 10
17.3512
 20
9.9254
 11
17.6888
 21
9.82297
  0
LINE
  8
0
 10
17.6888
 20
9.82297
 11
18
 21
9.65663
  0
LINE
  8
0
 10
18
 20
9.65663
 11
18.2728
 21
9.43277
  0
LINE
  8
0
 10
18.2728
 20
9.43277
 11
18.4966
 21
9.16
  0
LINE
  8
0
 10
18.4966
 20
9.16
 11
18.663
 21
8.84882
  0
LINE
  8
0
 10
18.663
 20
8.84882
 11
18.7654
 21
8.51114
  0
LINE
  8
0
 10
18.7654
 20
8.51114
 11
18.8
 21
8.15999
  0
LINE
  8
0
 10
18.8
 20
8.15999
 11
18.7654
 21
7.80884
  0
LINE
  8
0
 10
18.7654
 20
7.80884
 11
18.663
 21
7.47116
  0
LINE
  8
0
 10
18.663
 20
7.47116
 11
18.4966
 21
7.15997
  0
LINE
  8
0
 10
18.4966
 20
7.15997
 11
18.2728
 21
6.88721
  0
LINE
  8
0
 10
18.2728
 20
6.88721
 11
18
 21
6.66335
  0
LINE
  8
0
 10
18
 20
6.66335
 11
17.6888
 21
6.49701
  0
LINE
  8
0
 10
17.6888
 20
6.49701
 11
17.3512
 21
6.39458
  0
LINE
  8
0
 10
17.3512
 20
6.39458
 11
17
 21
6.36
  0
LINE
  8
0
 10
17
 20
6.36
 11
16.6488
 21
6.39458
  0
LINE
  8
0
 10
35.5262
 20
6.39458
 11
35.1886
 21
6.49701
  0
LINE
  8
0
 10
35.1886
 20
6.49701
 11
34.8774
 21
6.66335
  0
LINE
  8
0
 10
34.8774
 20
6.66335
 11
34.6046
 21
6.88721
  0
LINE
  8
0
 10
34.6046
 20
6.88721
 11
34.3808
 21
7.15997
  0
LINE
  8
0
 10
34.3808
 20
7.15997
 11
34.2144
 21
7.47116
  0
LINE
  8
0
 10
34.2144
 20
7.47116
 11
34.112
 21
7.80884
  0
LINE
  8
0
 10
34.112
 20
7.80884
 11
34.0774
 21
8.15999
  0
LINE
  8
0
 10
34.0774
 20
8.15999
 11
34.112
 21
8.51114
  0
LINE
  8
0
 10
34.112
 20
8.51114
 11
34.2144
 21
8.84882
  0
LINE
  8
0
 10
34.2144
 20
8.84882
 11
34.3808
 21
9.16
  0
LINE
  8
0
 10
34.3808
 20
9.16
 11
34.6046
 21
9.43277
  0
LINE
  8
0
 10
34.6046
 20
9.43277
 11
34.8774
 21
9.65663
  0
LINE
  8
0
 10
34.8774
 20
9.65663
 11
35.1886
 21
9.82297
  0
LINE
  8
0
 10
35.1886
 20
9.82297
 11
35.5262
 21
9.9254
  0
LINE
  8
0
 10
35.5262
 20
9.9254
 11
35.8774
 21
9.95998
  0
LINE
  8
0
 10
35.8774
 20
9.95998
 11
36.2285
 21
9.9254
  0
LINE
  8
0
 10
36.2285
 20
9.9254
 11
36.5662
 21
9.82297
  0
LINE
  8
0
 10
36.5662
 20
9.82297
 11
36.8774
 21
9.65663
  0
LINE
  8
0
 10
36.8774
 20
9.65663
 11
37.1502
 21
9.43277
  0
LINE
  8
0
 10
37.1502
 20
9.43277
 11
37.374
 21
9.16
  0
LINE
  8
0
 10
37.374
 20
9.16
 11
37.5404
 21
8.84882
  0
LINE
  8
0
 10
37.5404
 20
8.84882
 11
37.6428
 21
8.51114
  0
LINE
  8
0
 10
37.6428
 20
8.51114
 11
37.6774
 21
8.15999
  0
LINE
  8
0
 10
37.6774
 20
8.15999
 11
37.6428
 21
7.80884
  0
LINE
  8
0
 10
37.6428
 20
7.80884
 11
37.5404
 21
7.47116
  0
LINE
  8
0
 10
37.5404
 20
7.47116
 11
37.374
 21
7.15997
  0
LINE
  8
0
 10
37.374
 20
7.15997
 11
37.1502
 21
6.88721
  0
LINE
  8
0
 10
37.1502
 20
6.88721
 11
36.8774
 21
6.66335
  0
LINE
  8
0
 10
36.8774
 20
6.66335
 11
36.5662
 21
6.49701
  0
LINE
  8
0
 10
36.5662
 20
6.49701
 11
36.2285
 21
6.39458
  0
LINE
  8
0
 10
36.2285
 20
6.39458
 11
35.8774
 21
6.36
  0
LINE
  8
0
 10
35.8774
 20
6.36
 11
35.5262
 21
6.39458
  0
ENDSEC
  0
SECTION
  2
OBJECTS
  0
DICTIONARY
  0
ENDSEC
  0
EOF
