  0
SECTION
  2
BLOCKS
  0
ENDSEC
  0
SECTION
  2
ENTITIES
  0
LINE
  8
0
 10
81.0718
 20
0.0576477
 11
81.6346
 21
0.228363
  0
LINE
  8
0
 10
81.6346
 20
0.228363
 11
82.1532
 21
0.5056
  0
LINE
  8
0
 10
82.1532
 20
0.5056
 11
82.6078
 21
0.878693
  0
LINE
  8
0
 10
82.6078
 20
0.878693
 11
82.9809
 21
1.3333
  0
LINE
  8
0
 10
82.9809
 20
1.3333
 11
83.2581
 21
1.85196
  0
LINE
  8
0
 10
83.2581
 20
1.85196
 11
83.4289
 21
2.41473
  0
LINE
  8
0
 10
83.4289
 20
2.41473
 11
83.4865
 21
3
  0
LINE
  8
0
 10
83.4865
 20
3
 11
83.4865
 21
77
  0
LINE
  8
0
 10
83.4865
 20
77
 11
83.4289
 21
77.5853
  0
LINE
  8
0
 10
83.4289
 20
77.5853
 11
83.2581
 21
78.148
  0
LINE
  8
0
 10
83.2581
 20
78.148
 11
82.9809
 21
78.6667
  0
LINE
  8
0
 10
82.9809
 20
78.6667
 11
82.6078
 21
79.1213
  0
LINE
  8
0
 10
82.6078
 20
79.1213
 11
82.1532
 21
79.4944
  0
LINE
  8
0
 10
82.1532
 20
79.4944
 11
81.6346
 21
79.7716
  0
LINE
  8
0
 10
81.6346
 20
79.7716
 11
81.0718
 21
79.9424
  0
LINE
  8
0
 10
81.0718
 20
79.9424
 11
80.4865
 21
80
  0
LINE
  8
0
 10
80.4865
 20
80
 11
5
 21
80
  0
LINE
  8
0
 10
5
 20
80
 11
5
 21
0
  0
LINE
  8
0
 10
5
 20
0
 11
80.4865
 21
0
  0
LINE
  8
0
 10
80.4865
 20
0
 11
81.0718
 21
0.0576477
  0
LINE
  8
0
 10
11.6488
 20
70.0746
 11
11.3112
 21
70.177
  0
LINE
  8
0
 10
11.3112
 20
70.177
 11
11
 21
70.3434
  0
LINE
  8
0
 10
11
 20
70.3434
 11
10.7272
 21
70.5672
  0
LINE
  8
0
 10
10.7272
 20
70.5672
 11
10.5034
 21
70.84
  0
LINE
  8
0
 10
10.5034
 20
70.84
 11
10.337
 21
71.1512
  0
LINE
  8
0
 10
10.337
 20
71.1512
 11
10.2346
 21
71.4888
  0
LINE
  8
0
 10
10.2346
 20
71.4888
 11
10.2
 21
71.84
  0
LINE
  8
0
 10
10.2
 20
71.84
 11
10.2346
 21
72.1911
  0
LINE
  8
0
 10
10.2346
 20
72.1911
 11
10.337
 21
72.5288
  0
LINE
  8
0
 10
10.337
 20
72.5288
 11
10.5034
 21
72.84
  0
LINE
  8
0
 10
10.5034
 20
72.84
 11
10.7272
 21
73.1128
  0
LINE
  8
0
 10
10.7272
 20
73.1128
 11
11
 21
73.3366
  0
LINE
  8
0
 10
11
 20
73.3366
 11
11.3112
 21
73.503
  0
LINE
  8
0
 10
11.3112
 20
73.503
 11
11.6488
 21
73.6054
  0
LINE
  8
0
 10
11.6488
 20
73.6054
 11
12
 21
73.64
  0
LINE
  8
0
 10
12
 20
73.64
 11
12.3512
 21
73.6054
  0
LINE
  8
0
 10
12.3512
 20
73.6054
 11
12.6888
 21
73.503
  0
LINE
  8
0
 10
12.6888
 20
73.503
 11
13
 21
73.3366
  0
LINE
  8
0
 10
13
 20
73.3366
 11
13.2728
 21
73.1128
  0
LINE
  8
0
 10
13.2728
 20
73.1128
 11
13.4966
 21
72.84
  0
LINE
  8
0
 10
13.4966
 20
72.84
 11
13.663
 21
72.5288
  0
LINE
  8
0
 10
13.663
 20
72.5288
 11
13.7654
 21
72.1911
  0
LINE
  8
0
 10
13.7654
 20
72.1911
 11
13.8
 21
71.84
  0
LINE
  8
0
 10
13.8
 20
71.84
 11
13.7654
 21
71.4888
  0
LINE
  8
0
 10
13.7654
 20
71.4888
 11
13.663
 21
71.1512
  0
LINE
  8
0
 10
13.663
 20
71.1512
 11
13.4966
 21
70.84
  0
LINE
  8
0
 10
13.4966
 20
70.84
 11
13.2728
 21
70.5672
  0
LINE
  8
0
 10
13.2728
 20
70.5672
 11
13
 21
70.3434
  0
LINE
  8
0
 10
13
 20
70.3434
 11
12.6888
 21
70.177
  0
LINE
  8
0
 10
12.6888
 20
70.177
 11
12.3512
 21
70.0746
  0
LINE
  8
0
 10
12.3512
 20
70.0746
 11
12
 21
70.04
  0
LINE
  8
0
 10
12
 20
70.04
 11
11.6488
 21
70.0746
  0
LINE
  8
0
 10
41.3921
 20
70.0746
 11
41.0544
 21
70.177
  0
LINE
  8
0
 10
41.0544
 20
70.177
 11
40.7432
 21
70.3434
  0
LINE
  8
0
 10
40.7432
 20
70.3434
 11
40.4705
 21
70.5672
  0
LINE
  8
0
 10
40.4705
 20
70.5672
 11
40.2466
 21
70.84
  0
LINE
  8
0
 10
40.2466
 20
70.84
 11
40.0803
 21
71.1512
  0
LINE
  8
0
 10
40.0803
 20
71.1512
 11
39.9778
 21
71.4888
  0
LINE
  8
0
 10
39.9778
 20
71.4888
 11
39.9433
 21
71.84
  0
LINE
  8
0
 10
39.9433
 20
71.84
 11
39.9778
 21
72.1911
  0
LINE
  8
0
 10
39.9778
 20
72.1911
 11
40.0803
 21
72.5288
  0
LINE
  8
0
 10
40.0803
 20
72.5288
 11
40.2466
 21
72.84
  0
LINE
  8
0
 10
40.2466
 20
72.84
 11
40.4705
 21
73.1128
  0
LINE
  8
0
 10
40.4705
 20
73.1128
 11
40.7432
 21
73.3366
  0
LINE
  8
0
 10
40.7432
 20
73.3366
 11
41.0544
 21
73.503
  0
LINE
  8
0
 10
41.0544
 20
73.503
 11
41.3921
 21
73.6054
  0
LINE
  8
0
 10
41.3921
 20
73.6054
 11
41.7433
 21
73.64
  0
LINE
  8
0
 10
41.7433
 20
73.64
 11
42.0944
 21
73.6054
  0
LINE
  8
0
 10
42.0944
 20
73.6054
 11
42.4321
 21
73.503
  0
LINE
  8
0
 10
42.4321
 20
73.503
 11
42.7433
 21
73.3366
  0
LINE
  8
0
 10
42.7433
 20
73.3366
 11
43.016
 21
73.1128
  0
LINE
  8
0
 10
43.016
 20
73.1128
 11
43.2399
 21
72.84
  0
LINE
  8
0
 10
43.2399
 20
72.84
 11
43.4062
 21
72.5288
  0
LINE
  8
0
 10
43.4062
 20
72.5288
 11
43.5087
 21
72.1911
  0
LINE
  8
0
 10
43.5087
 20
72.1911
 11
43.5432
 21
71.84
  0
LINE
  8
0
 10
43.5432
 20
71.84
 11
43.5087
 21
71.4888
  0
LINE
  8
0
 10
43.5087
 20
71.4888
 11
43.4062
 21
71.1512
  0
LINE
  8
0
 10
43.4062
 20
71.1512
 11
43.2399
 21
70.84
  0
LINE
  8
0
 10
43.2399
 20
70.84
 11
43.016
 21
70.5672
  0
LINE
  8
0
 10
43.016
 20
70.5672
 11
42.7433
 21
70.3434
  0
LINE
  8
0
 10
42.7433
 20
70.3434
 11
42.4321
 21
70.177
  0
LINE
  8
0
 10
42.4321
 20
70.177
 11
42.0944
 21
70.0746
  0
LINE
  8
0
 10
42.0944
 20
70.0746
 11
41.7433
 21
70.04
  0
LINE
  8
0
 10
41.7433
 20
70.04
 11
41.3921
 21
70.0746
  0
LINE
  8
0
 10
71.1354
 20
70.0746
 11
70.7977
 21
70.177
  0
LINE
  8
0
 10
70.7977
 20
70.177
 11
70.4865
 21
70.3434
  0
LINE
  8
0
 10
70.4865
 20
70.3434
 11
70.2137
 21
70.5672
  0
LINE
  8
0
 10
70.2137
 20
70.5672
 11
69.9899
 21
70.84
  0
LINE
  8
0
 10
69.9899
 20
70.84
 11
69.8235
 21
71.1512
  0
LINE
  8
0
 10
69.8235
 20
71.1512
 11
69.7211
 21
71.4888
  0
LINE
  8
0
 10
69.7211
 20
71.4888
 11
69.6865
 21
71.84
  0
LINE
  8
0
 10
69.6865
 20
71.84
 11
69.7211
 21
72.1911
  0
LINE
  8
0
 10
69.7211
 20
72.1911
 11
69.8235
 21
72.5288
  0
LINE
  8
0
 10
69.8235
 20
72.5288
 11
69.9899
 21
72.84
  0
LINE
  8
0
 10
69.9899
 20
72.84
 11
70.2137
 21
73.1128
  0
LINE
  8
0
 10
70.2137
 20
73.1128
 11
70.4865
 21
73.3366
  0
LINE
  8
0
 10
70.4865
 20
73.3366
 11
70.7977
 21
73.503
  0
LINE
  8
0
 10
70.7977
 20
73.503
 11
71.1354
 21
73.6054
  0
LINE
  8
0
 10
71.1354
 20
73.6054
 11
71.4865
 21
73.64
  0
LINE
  8
0
 10
71.4865
 20
73.64
 11
71.8377
 21
73.6054
  0
LINE
  8
0
 10
71.8377
 20
73.6054
 11
72.1753
 21
73.503
  0
LINE
  8
0
 10
72.1753
 20
73.503
 11
72.4865
 21
73.3366
  0
LINE
  8
0
 10
72.4865
 20
73.3366
 11
72.7593
 21
73.1128
  0
LINE
  8
0
 10
72.7593
 20
73.1128
 11
72.9832
 21
72.84
  0
LINE
  8
0
 10
72.9832
 20
72.84
 11
73.1495
 21
72.5288
  0
LINE
  8
0
 10
73.1495
 20
72.5288
 11
73.2519
 21
72.1911
  0
LINE
  8
0
 10
73.2519
 20
72.1911
 11
73.2865
 21
71.84
  0
LINE
  8
0
 10
73.2865
 20
71.84
 11
73.2519
 21
71.4888
  0
LINE
  8
0
 10
73.2519
 20
71.4888
 11
73.1495
 21
71.1512
  0
LINE
  8
0
 10
73.1495
 20
71.1512
 11
72.9832
 21
70.84
  0
LINE
  8
0
 10
72.9832
 20
70.84
 11
72.7593
 21
70.5672
  0
LINE
  8
0
 10
72.7593
 20
70.5672
 11
72.4865
 21
70.3434
  0
LINE
  8
0
 10
72.4865
 20
70.3434
 11
72.1753
 21
70.177
  0
LINE
  8
0
 10
72.1753
 20
70.177
 11
71.8377
 21
70.0746
  0
LINE
  8
0
 10
71.8377
 20
70.0746
 11
71.4865
 21
70.04
  0
LINE
  8
0
 10
71.4865
 20
70.04
 11
71.1354
 21
70.0746
  0
LINE
  8
0
 10
29.2433
 20
55.5
 11
29.2433
 21
59.5
  0
LINE
  8
0
 10
29.2433
 20
59.5
 11
54.2433
 21
59.5
  0
LINE
  8
0
 10
54.2433
 20
59.5
 11
54.2433
 21
55.5
  0
LINE
  8
0
 10
54.2433
 20
55.5
 11
29.2433
 21
55.5
  0
LINE
  8
0
 10
29.2433
 20
20.5
 11
29.2433
 21
24.5
  0
LINE
  8
0
 10
29.2433
 20
24.5
 11
54.2433
 21
24.5
  0
LINE
  8
0
 10
54.2433
 20
24.5
 11
54.2433
 21
20.5
  0
LINE
  8
0
 10
54.2433
 20
20.5
 11
29.2433
 21
20.5
  0
LINE
  8
0
 10
11.6488
 20
6.39458
 11
11.3112
 21
6.49701
  0
LINE
  8
0
 10
11.3112
 20
6.49701
 11
11
 21
6.66335
  0
LINE
  8
0
 10
11
 20
6.66335
 11
10.7272
 21
6.88721
  0
LINE
  8
0
 10
10.7272
 20
6.88721
 11
10.5034
 21
7.15997
  0
LINE
  8
0
 10
10.5034
 20
7.15997
 11
10.337
 21
7.47116
  0
LINE
  8
0
 10
10.337
 20
7.47116
 11
10.2346
 21
7.80884
  0
LINE
  8
0
 10
10.2346
 20
7.80884
 11
10.2
 21
8.15999
  0
LINE
  8
0
 10
10.2
 20
8.15999
 11
10.2346
 21
8.51114
  0
LINE
  8
0
 10
10.2346
 20
8.51114
 11
10.337
 21
8.84882
  0
LINE
  8
0
 10
10.337
 20
8.84882
 11
10.5034
 21
9.16
  0
LINE
  8
0
 10
10.5034
 20
9.16
 11
10.7272
 21
9.43277
  0
LINE
  8
0
 10
10.7272
 20
9.43277
 11
11
 21
9.65663
  0
LINE
  8
0
 10
11
 20
9.65663
 11
11.3112
 21
9.82297
  0
LINE
  8
0
 10
11.3112
 20
9.82297
 11
11.6488
 21
9.9254
  0
LINE
  8
0
 10
11.6488
 20
9.9254
 11
12
 21
9.95998
  0
LINE
  8
0
 10
12
 20
9.95998
 11
12.3512
 21
9.9254
  0
LINE
  8
0
 10
12.3512
 20
9.9254
 11
12.6888
 21
9.82297
  0
LINE
  8
0
 10
12.6888
 20
9.82297
 11
13
 21
9.65663
  0
LINE
  8
0
 10
13
 20
9.65663
 11
13.2728
 21
9.43277
  0
LINE
  8
0
 10
13.2728
 20
9.43277
 11
13.4966
 21
9.16
  0
LINE
  8
0
 10
13.4966
 20
9.16
 11
13.663
 21
8.84882
  0
LINE
  8
0
 10
13.663
 20
8.84882
 11
13.7654
 21
8.51114
  0
LINE
  8
0
 10
13.7654
 20
8.51114
 11
13.8
 21
8.15999
  0
LINE
  8
0
 10
13.8
 20
8.15999
 11
13.7654
 21
7.80884
  0
LINE
  8
0
 10
13.7654
 20
7.80884
 11
13.663
 21
7.47116
  0
LINE
  8
0
 10
13.663
 20
7.47116
 11
13.4966
 21
7.15997
  0
LINE
  8
0
 10
13.4966
 20
7.15997
 11
13.2728
 21
6.88721
  0
LINE
  8
0
 10
13.2728
 20
6.88721
 11
13
 21
6.66335
  0
LINE
  8
0
 10
13
 20
6.66335
 11
12.6888
 21
6.49701
  0
LINE
  8
0
 10
12.6888
 20
6.49701
 11
12.3512
 21
6.39458
  0
LINE
  8
0
 10
12.3512
 20
6.39458
 11
12
 21
6.36
  0
LINE
  8
0
 10
12
 20
6.36
 11
11.6488
 21
6.39458
  0
LINE
  8
0
 10
41.3921
 20
6.39458
 11
41.0544
 21
6.49701
  0
LINE
  8
0
 10
41.0544
 20
6.49701
 11
40.7432
 21
6.66335
  0
LINE
  8
0
 10
40.7432
 20
6.66335
 11
40.4705
 21
6.88721
  0
LINE
  8
0
 10
40.4705
 20
6.88721
 11
40.2466
 21
7.15997
  0
LINE
  8
0
 10
40.2466
 20
7.15997
 11
40.0803
 21
7.47116
  0
LINE
  8
0
 10
40.0803
 20
7.47116
 11
39.9778
 21
7.80884
  0
LINE
  8
0
 10
39.9778
 20
7.80884
 11
39.9433
 21
8.15999
  0
LINE
  8
0
 10
39.9433
 20
8.15999
 11
39.9778
 21
8.51114
  0
LINE
  8
0
 10
39.9778
 20
8.51114
 11
40.0803
 21
8.84882
  0
LINE
  8
0
 10
40.0803
 20
8.84882
 11
40.2466
 21
9.16
  0
LINE
  8
0
 10
40.2466
 20
9.16
 11
40.4705
 21
9.43277
  0
LINE
  8
0
 10
40.4705
 20
9.43277
 11
40.7432
 21
9.65663
  0
LINE
  8
0
 10
40.7432
 20
9.65663
 11
41.0544
 21
9.82297
  0
LINE
  8
0
 10
41.0544
 20
9.82297
 11
41.3921
 21
9.9254
  0
LINE
  8
0
 10
41.3921
 20
9.9254
 11
41.7433
 21
9.95998
  0
LINE
  8
0
 10
41.7433
 20
9.95998
 11
42.0944
 21
9.9254
  0
LINE
  8
0
 10
42.0944
 20
9.9254
 11
42.4321
 21
9.82297
  0
LINE
  8
0
 10
42.4321
 20
9.82297
 11
42.7433
 21
9.65663
  0
LINE
  8
0
 10
42.7433
 20
9.65663
 11
43.016
 21
9.43277
  0
LINE
  8
0
 10
43.016
 20
9.43277
 11
43.2399
 21
9.16
  0
LINE
  8
0
 10
43.2399
 20
9.16
 11
43.4062
 21
8.84882
  0
LINE
  8
0
 10
43.4062
 20
8.84882
 11
43.5087
 21
8.51114
  0
LINE
  8
0
 10
43.5087
 20
8.51114
 11
43.5432
 21
8.15999
  0
LINE
  8
0
 10
43.5432
 20
8.15999
 11
43.5087
 21
7.80884
  0
LINE
  8
0
 10
43.5087
 20
7.80884
 11
43.4062
 21
7.47116
  0
LINE
  8
0
 10
43.4062
 20
7.47116
 11
43.2399
 21
7.15997
  0
LINE
  8
0
 10
43.2399
 20
7.15997
 11
43.016
 21
6.88721
  0
LINE
  8
0
 10
43.016
 20
6.88721
 11
42.7433
 21
6.66335
  0
LINE
  8
0
 10
42.7433
 20
6.66335
 11
42.4321
 21
6.49701
  0
LINE
  8
0
 10
42.4321
 20
6.49701
 11
42.0944
 21
6.39458
  0
LINE
  8
0
 10
42.0944
 20
6.39458
 11
41.7433
 21
6.36
  0
LINE
  8
0
 10
41.7433
 20
6.36
 11
41.3921
 21
6.39458
  0
LINE
  8
0
 10
71.1354
 20
6.39458
 11
70.7977
 21
6.49701
  0
LINE
  8
0
 10
70.7977
 20
6.49701
 11
70.4865
 21
6.66335
  0
LINE
  8
0
 10
70.4865
 20
6.66335
 11
70.2137
 21
6.88721
  0
LINE
  8
0
 10
70.2137
 20
6.88721
 11
69.9899
 21
7.15997
  0
LINE
  8
0
 10
69.9899
 20
7.15997
 11
69.8235
 21
7.47116
  0
LINE
  8
0
 10
69.8235
 20
7.47116
 11
69.7211
 21
7.80884
  0
LINE
  8
0
 10
69.7211
 20
7.80884
 11
69.6865
 21
8.15999
  0
LINE
  8
0
 10
69.6865
 20
8.15999
 11
69.7211
 21
8.51114
  0
LINE
  8
0
 10
69.7211
 20
8.51114
 11
69.8235
 21
8.84882
  0
LINE
  8
0
 10
69.8235
 20
8.84882
 11
69.9899
 21
9.16
  0
LINE
  8
0
 10
69.9899
 20
9.16
 11
70.2137
 21
9.43277
  0
LINE
  8
0
 10
70.2137
 20
9.43277
 11
70.4865
 21
9.65663
  0
LINE
  8
0
 10
70.4865
 20
9.65663
 11
70.7977
 21
9.82297
  0
LINE
  8
0
 10
70.7977
 20
9.82297
 11
71.1354
 21
9.9254
  0
LINE
  8
0
 10
71.1354
 20
9.9254
 11
71.4865
 21
9.95998
  0
LINE
  8
0
 10
71.4865
 20
9.95998
 11
71.8377
 21
9.9254
  0
LINE
  8
0
 10
71.8377
 20
9.9254
 11
72.1753
 21
9.82297
  0
LINE
  8
0
 10
72.1753
 20
9.82297
 11
72.4865
 21
9.65663
  0
LINE
  8
0
 10
72.4865
 20
9.65663
 11
72.7593
 21
9.43277
  0
LINE
  8
0
 10
72.7593
 20
9.43277
 11
72.9832
 21
9.16
  0
LINE
  8
0
 10
72.9832
 20
9.16
 11
73.1495
 21
8.84882
  0
LINE
  8
0
 10
73.1495
 20
8.84882
 11
73.2519
 21
8.51114
  0
LINE
  8
0
 10
73.2519
 20
8.51114
 11
73.2865
 21
8.15999
  0
LINE
  8
0
 10
73.2865
 20
8.15999
 11
73.2519
 21
7.80884
  0
LINE
  8
0
 10
73.2519
 20
7.80884
 11
73.1495
 21
7.47116
  0
LINE
  8
0
 10
73.1495
 20
7.47116
 11
72.9832
 21
7.15997
  0
LINE
  8
0
 10
72.9832
 20
7.15997
 11
72.7593
 21
6.88721
  0
LINE
  8
0
 10
72.7593
 20
6.88721
 11
72.4865
 21
6.66335
  0
LINE
  8
0
 10
72.4865
 20
6.66335
 11
72.1753
 21
6.49701
  0
LINE
  8
0
 10
72.1753
 20
6.49701
 11
71.8377
 21
6.39458
  0
LINE
  8
0
 10
71.8377
 20
6.39458
 11
71.4865
 21
6.36
  0
LINE
  8
0
 10
71.4865
 20
6.36
 11
71.1354
 21
6.39458
  0
ENDSEC
  0
SECTION
  2
OBJECTS
  0
DICTIONARY
  0
ENDSEC
  0
EOF
