  0
SECTION
  2
BLOCKS
  0
ENDSEC
  0
SECTION
  2
ENTITIES
  0
LINE
  8
0
 10
340.906
 20
71.35
 11
337.406
 21
71.35
  0
LINE
  8
0
 10
337.406
 20
71.35
 11
337.406
 21
80
  0
LINE
  8
0
 10
337.406
 20
80
 11
0
 21
80
  0
LINE
  8
0
 10
0
 20
80
 11
0
 21
0
  0
LINE
  8
0
 10
0
 20
0
 11
340.906
 21
0
  0
LINE
  8
0
 10
340.906
 20
0
 11
340.906
 21
71.35
  0
LINE
  8
0
 10
8
 20
72
 11
8
 21
77
  0
LINE
  8
0
 10
8
 20
77
 11
13
 21
77
  0
LINE
  8
0
 10
13
 20
77
 11
13
 21
72
  0
LINE
  8
0
 10
13
 20
72
 11
8
 21
72
  0
LINE
  8
0
 10
36.2009
 20
62
 11
36.2009
 21
67
  0
LINE
  8
0
 10
36.2009
 20
67
 11
61.2009
 21
67
  0
LINE
  8
0
 10
61.2009
 20
67
 11
61.2009
 21
62
  0
LINE
  8
0
 10
61.2009
 20
62
 11
36.2009
 21
62
  0
LINE
  8
0
 10
157.953
 20
62
 11
157.953
 21
67
  0
LINE
  8
0
 10
157.953
 20
67
 11
182.953
 21
67
  0
LINE
  8
0
 10
182.953
 20
67
 11
182.953
 21
62
  0
LINE
  8
0
 10
182.953
 20
62
 11
157.953
 21
62
  0
LINE
  8
0
 10
279.705
 20
62
 11
279.705
 21
67
  0
LINE
  8
0
 10
279.705
 20
67
 11
304.705
 21
67
  0
LINE
  8
0
 10
304.705
 20
67
 11
304.705
 21
62
  0
LINE
  8
0
 10
304.705
 20
62
 11
279.705
 21
62
  0
LINE
  8
0
 10
36.2009
 20
13
 11
36.2009
 21
18
  0
LINE
  8
0
 10
36.2009
 20
18
 11
61.2009
 21
18
  0
LINE
  8
0
 10
61.2009
 20
18
 11
61.2009
 21
13
  0
LINE
  8
0
 10
61.2009
 20
13
 11
36.2009
 21
13
  0
LINE
  8
0
 10
157.953
 20
13
 11
157.953
 21
18
  0
LINE
  8
0
 10
157.953
 20
18
 11
182.953
 21
18
  0
LINE
  8
0
 10
182.953
 20
18
 11
182.953
 21
13
  0
LINE
  8
0
 10
182.953
 20
13
 11
157.953
 21
13
  0
LINE
  8
0
 10
279.705
 20
13
 11
279.705
 21
18
  0
LINE
  8
0
 10
279.705
 20
18
 11
304.705
 21
18
  0
LINE
  8
0
 10
304.705
 20
18
 11
304.705
 21
13
  0
LINE
  8
0
 10
304.705
 20
13
 11
279.705
 21
13
  0
ENDSEC
  0
SECTION
  2
OBJECTS
  0
DICTIONARY
  0
ENDSEC
  0
EOF
