  0
SECTION
  2
BLOCKS
  0
ENDSEC
  0
SECTION
  2
ENTITIES
  0
LINE
  8
0
 10
400.585
 20
0.0576477
 11
401.148
 21
0.228363
  0
LINE
  8
0
 10
401.148
 20
0.228363
 11
401.667
 21
0.5056
  0
LINE
  8
0
 10
401.667
 20
0.5056
 11
402.121
 21
0.878693
  0
LINE
  8
0
 10
402.121
 20
0.878693
 11
402.494
 21
1.3333
  0
LINE
  8
0
 10
402.494
 20
1.3333
 11
402.772
 21
1.85196
  0
LINE
  8
0
 10
402.772
 20
1.85196
 11
402.942
 21
2.41473
  0
LINE
  8
0
 10
402.942
 20
2.41473
 11
403
 21
3
  0
LINE
  8
0
 10
403
 20
3
 11
403
 21
77
  0
LINE
  8
0
 10
403
 20
77
 11
402.942
 21
77.5853
  0
LINE
  8
0
 10
402.942
 20
77.5853
 11
402.772
 21
78.148
  0
LINE
  8
0
 10
402.772
 20
78.148
 11
402.494
 21
78.6667
  0
LINE
  8
0
 10
402.494
 20
78.6667
 11
402.121
 21
79.1213
  0
LINE
  8
0
 10
402.121
 20
79.1213
 11
401.667
 21
79.4944
  0
LINE
  8
0
 10
401.667
 20
79.4944
 11
401.148
 21
79.7716
  0
LINE
  8
0
 10
401.148
 20
79.7716
 11
400.585
 21
79.9424
  0
LINE
  8
0
 10
400.585
 20
79.9424
 11
400
 21
80
  0
LINE
  8
0
 10
400
 20
80
 11
3
 21
80
  0
LINE
  8
0
 10
3
 20
80
 11
2.41473
 21
79.9424
  0
LINE
  8
0
 10
2.41473
 20
79.9424
 11
1.85196
 21
79.7716
  0
LINE
  8
0
 10
1.85196
 20
79.7716
 11
1.3333
 21
79.4944
  0
LINE
  8
0
 10
1.3333
 20
79.4944
 11
0.878693
 21
79.1213
  0
LINE
  8
0
 10
0.878693
 20
79.1213
 11
0.5056
 21
78.6667
  0
LINE
  8
0
 10
0.5056
 20
78.6667
 11
0.228363
 21
78.148
  0
LINE
  8
0
 10
0.228363
 20
78.148
 11
0.0576477
 21
77.5853
  0
LINE
  8
0
 10
0.0576477
 20
77.5853
 11
0
 21
77
  0
LINE
  8
0
 10
0
 20
77
 11
0
 21
3
  0
LINE
  8
0
 10
0
 20
3
 11
0.0576477
 21
2.41473
  0
LINE
  8
0
 10
0.0576477
 20
2.41473
 11
0.228363
 21
1.85196
  0
LINE
  8
0
 10
0.228363
 20
1.85196
 11
0.5056
 21
1.3333
  0
LINE
  8
0
 10
0.5056
 20
1.3333
 11
0.878693
 21
0.878693
  0
LINE
  8
0
 10
0.878693
 20
0.878693
 11
1.3333
 21
0.5056
  0
LINE
  8
0
 10
1.3333
 20
0.5056
 11
1.85196
 21
0.228363
  0
LINE
  8
0
 10
1.85196
 20
0.228363
 11
2.41473
 21
0.0576477
  0
LINE
  8
0
 10
2.41473
 20
0.0576477
 11
3
 21
0
  0
LINE
  8
0
 10
3
 20
0
 11
400
 21
0
  0
LINE
  8
0
 10
400
 20
0
 11
400.585
 21
0.0576477
  0
LINE
  8
0
 10
380.649
 20
70.0746
 11
380.311
 21
70.177
  0
LINE
  8
0
 10
380.311
 20
70.177
 11
380
 21
70.3434
  0
LINE
  8
0
 10
380
 20
70.3434
 11
379.727
 21
70.5672
  0
LINE
  8
0
 10
379.727
 20
70.5672
 11
379.503
 21
70.84
  0
LINE
  8
0
 10
379.503
 20
70.84
 11
379.337
 21
71.1512
  0
LINE
  8
0
 10
379.337
 20
71.1512
 11
379.235
 21
71.4888
  0
LINE
  8
0
 10
379.235
 20
71.4888
 11
379.2
 21
71.84
  0
LINE
  8
0
 10
379.2
 20
71.84
 11
379.235
 21
72.1911
  0
LINE
  8
0
 10
379.235
 20
72.1911
 11
379.337
 21
72.5288
  0
LINE
  8
0
 10
379.337
 20
72.5288
 11
379.503
 21
72.84
  0
LINE
  8
0
 10
379.503
 20
72.84
 11
379.727
 21
73.1128
  0
LINE
  8
0
 10
379.727
 20
73.1128
 11
380
 21
73.3366
  0
LINE
  8
0
 10
380
 20
73.3366
 11
380.311
 21
73.503
  0
LINE
  8
0
 10
380.311
 20
73.503
 11
380.649
 21
73.6054
  0
LINE
  8
0
 10
380.649
 20
73.6054
 11
381
 21
73.64
  0
LINE
  8
0
 10
381
 20
73.64
 11
381.351
 21
73.6054
  0
LINE
  8
0
 10
381.351
 20
73.6054
 11
381.689
 21
73.503
  0
LINE
  8
0
 10
381.689
 20
73.503
 11
382
 21
73.3366
  0
LINE
  8
0
 10
382
 20
73.3366
 11
382.273
 21
73.1128
  0
LINE
  8
0
 10
382.273
 20
73.1128
 11
382.497
 21
72.84
  0
LINE
  8
0
 10
382.497
 20
72.84
 11
382.663
 21
72.5288
  0
LINE
  8
0
 10
382.663
 20
72.5288
 11
382.765
 21
72.1911
  0
LINE
  8
0
 10
382.765
 20
72.1911
 11
382.8
 21
71.84
  0
LINE
  8
0
 10
382.8
 20
71.84
 11
382.765
 21
71.4888
  0
LINE
  8
0
 10
382.765
 20
71.4888
 11
382.663
 21
71.1512
  0
LINE
  8
0
 10
382.663
 20
71.1512
 11
382.497
 21
70.84
  0
LINE
  8
0
 10
382.497
 20
70.84
 11
382.273
 21
70.5672
  0
LINE
  8
0
 10
382.273
 20
70.5672
 11
382
 21
70.3434
  0
LINE
  8
0
 10
382
 20
70.3434
 11
381.689
 21
70.177
  0
LINE
  8
0
 10
381.689
 20
70.177
 11
381.351
 21
70.0746
  0
LINE
  8
0
 10
381.351
 20
70.0746
 11
381
 21
70.04
  0
LINE
  8
0
 10
381
 20
70.04
 11
380.649
 21
70.0746
  0
LINE
  8
0
 10
349.732
 20
70.0746
 11
349.395
 21
70.177
  0
LINE
  8
0
 10
349.395
 20
70.177
 11
349.083
 21
70.3434
  0
LINE
  8
0
 10
349.083
 20
70.3434
 11
348.811
 21
70.5672
  0
LINE
  8
0
 10
348.811
 20
70.5672
 11
348.587
 21
70.84
  0
LINE
  8
0
 10
348.587
 20
70.84
 11
348.42
 21
71.1512
  0
LINE
  8
0
 10
348.42
 20
71.1512
 11
348.318
 21
71.4888
  0
LINE
  8
0
 10
348.318
 20
71.4888
 11
348.283
 21
71.84
  0
LINE
  8
0
 10
348.283
 20
71.84
 11
348.318
 21
72.1911
  0
LINE
  8
0
 10
348.318
 20
72.1911
 11
348.42
 21
72.5288
  0
LINE
  8
0
 10
348.42
 20
72.5288
 11
348.587
 21
72.84
  0
LINE
  8
0
 10
348.587
 20
72.84
 11
348.811
 21
73.1128
  0
LINE
  8
0
 10
348.811
 20
73.1128
 11
349.083
 21
73.3366
  0
LINE
  8
0
 10
349.083
 20
73.3366
 11
349.395
 21
73.503
  0
LINE
  8
0
 10
349.395
 20
73.503
 11
349.732
 21
73.6054
  0
LINE
  8
0
 10
349.732
 20
73.6054
 11
350.083
 21
73.64
  0
LINE
  8
0
 10
350.083
 20
73.64
 11
350.434
 21
73.6054
  0
LINE
  8
0
 10
350.434
 20
73.6054
 11
350.772
 21
73.503
  0
LINE
  8
0
 10
350.772
 20
73.503
 11
351.083
 21
73.3366
  0
LINE
  8
0
 10
351.083
 20
73.3366
 11
351.356
 21
73.1128
  0
LINE
  8
0
 10
351.356
 20
73.1128
 11
351.58
 21
72.84
  0
LINE
  8
0
 10
351.58
 20
72.84
 11
351.746
 21
72.5288
  0
LINE
  8
0
 10
351.746
 20
72.5288
 11
351.849
 21
72.1911
  0
LINE
  8
0
 10
351.849
 20
72.1911
 11
351.883
 21
71.84
  0
LINE
  8
0
 10
351.883
 20
71.84
 11
351.849
 21
71.4888
  0
LINE
  8
0
 10
351.849
 20
71.4888
 11
351.746
 21
71.1512
  0
LINE
  8
0
 10
351.746
 20
71.1512
 11
351.58
 21
70.84
  0
LINE
  8
0
 10
351.58
 20
70.84
 11
351.356
 21
70.5672
  0
LINE
  8
0
 10
351.356
 20
70.5672
 11
351.083
 21
70.3434
  0
LINE
  8
0
 10
351.083
 20
70.3434
 11
350.772
 21
70.177
  0
LINE
  8
0
 10
350.772
 20
70.177
 11
350.434
 21
70.0746
  0
LINE
  8
0
 10
350.434
 20
70.0746
 11
350.083
 21
70.04
  0
LINE
  8
0
 10
350.083
 20
70.04
 11
349.732
 21
70.0746
  0
LINE
  8
0
 10
318.816
 20
70.0746
 11
318.478
 21
70.177
  0
LINE
  8
0
 10
318.478
 20
70.177
 11
318.167
 21
70.3434
  0
LINE
  8
0
 10
318.167
 20
70.3434
 11
317.894
 21
70.5672
  0
LINE
  8
0
 10
317.894
 20
70.5672
 11
317.67
 21
70.84
  0
LINE
  8
0
 10
317.67
 20
70.84
 11
317.504
 21
71.1512
  0
LINE
  8
0
 10
317.504
 20
71.1512
 11
317.401
 21
71.4888
  0
LINE
  8
0
 10
317.401
 20
71.4888
 11
317.367
 21
71.84
  0
LINE
  8
0
 10
317.367
 20
71.84
 11
317.401
 21
72.1911
  0
LINE
  8
0
 10
317.401
 20
72.1911
 11
317.504
 21
72.5288
  0
LINE
  8
0
 10
317.504
 20
72.5288
 11
317.67
 21
72.84
  0
LINE
  8
0
 10
317.67
 20
72.84
 11
317.894
 21
73.1128
  0
LINE
  8
0
 10
317.894
 20
73.1128
 11
318.167
 21
73.3366
  0
LINE
  8
0
 10
318.167
 20
73.3366
 11
318.478
 21
73.503
  0
LINE
  8
0
 10
318.478
 20
73.503
 11
318.816
 21
73.6054
  0
LINE
  8
0
 10
318.816
 20
73.6054
 11
319.167
 21
73.64
  0
LINE
  8
0
 10
319.167
 20
73.64
 11
319.518
 21
73.6054
  0
LINE
  8
0
 10
319.518
 20
73.6054
 11
319.855
 21
73.503
  0
LINE
  8
0
 10
319.855
 20
73.503
 11
320.167
 21
73.3366
  0
LINE
  8
0
 10
320.167
 20
73.3366
 11
320.439
 21
73.1128
  0
LINE
  8
0
 10
320.439
 20
73.1128
 11
320.663
 21
72.84
  0
LINE
  8
0
 10
320.663
 20
72.84
 11
320.83
 21
72.5288
  0
LINE
  8
0
 10
320.83
 20
72.5288
 11
320.932
 21
72.1911
  0
LINE
  8
0
 10
320.932
 20
72.1911
 11
320.967
 21
71.84
  0
LINE
  8
0
 10
320.967
 20
71.84
 11
320.932
 21
71.4888
  0
LINE
  8
0
 10
320.932
 20
71.4888
 11
320.83
 21
71.1512
  0
LINE
  8
0
 10
320.83
 20
71.1512
 11
320.663
 21
70.84
  0
LINE
  8
0
 10
320.663
 20
70.84
 11
320.439
 21
70.5672
  0
LINE
  8
0
 10
320.439
 20
70.5672
 11
320.167
 21
70.3434
  0
LINE
  8
0
 10
320.167
 20
70.3434
 11
319.855
 21
70.177
  0
LINE
  8
0
 10
319.855
 20
70.177
 11
319.518
 21
70.0746
  0
LINE
  8
0
 10
319.518
 20
70.0746
 11
319.167
 21
70.04
  0
LINE
  8
0
 10
319.167
 20
70.04
 11
318.816
 21
70.0746
  0
LINE
  8
0
 10
287.899
 20
70.0746
 11
287.561
 21
70.177
  0
LINE
  8
0
 10
287.561
 20
70.177
 11
287.25
 21
70.3434
  0
LINE
  8
0
 10
287.25
 20
70.3434
 11
286.977
 21
70.5672
  0
LINE
  8
0
 10
286.977
 20
70.5672
 11
286.753
 21
70.84
  0
LINE
  8
0
 10
286.753
 20
70.84
 11
286.587
 21
71.1512
  0
LINE
  8
0
 10
286.587
 20
71.1512
 11
286.485
 21
71.4888
  0
LINE
  8
0
 10
286.485
 20
71.4888
 11
286.45
 21
71.84
  0
LINE
  8
0
 10
286.45
 20
71.84
 11
286.485
 21
72.1911
  0
LINE
  8
0
 10
286.485
 20
72.1911
 11
286.587
 21
72.5288
  0
LINE
  8
0
 10
286.587
 20
72.5288
 11
286.753
 21
72.84
  0
LINE
  8
0
 10
286.753
 20
72.84
 11
286.977
 21
73.1128
  0
LINE
  8
0
 10
286.977
 20
73.1128
 11
287.25
 21
73.3366
  0
LINE
  8
0
 10
287.25
 20
73.3366
 11
287.561
 21
73.503
  0
LINE
  8
0
 10
287.561
 20
73.503
 11
287.899
 21
73.6054
  0
LINE
  8
0
 10
287.899
 20
73.6054
 11
288.25
 21
73.64
  0
LINE
  8
0
 10
288.25
 20
73.64
 11
288.601
 21
73.6054
  0
LINE
  8
0
 10
288.601
 20
73.6054
 11
288.939
 21
73.503
  0
LINE
  8
0
 10
288.939
 20
73.503
 11
289.25
 21
73.3366
  0
LINE
  8
0
 10
289.25
 20
73.3366
 11
289.523
 21
73.1128
  0
LINE
  8
0
 10
289.523
 20
73.1128
 11
289.747
 21
72.84
  0
LINE
  8
0
 10
289.747
 20
72.84
 11
289.913
 21
72.5288
  0
LINE
  8
0
 10
289.913
 20
72.5288
 11
290.015
 21
72.1911
  0
LINE
  8
0
 10
290.015
 20
72.1911
 11
290.05
 21
71.84
  0
LINE
  8
0
 10
290.05
 20
71.84
 11
290.015
 21
71.4888
  0
LINE
  8
0
 10
290.015
 20
71.4888
 11
289.913
 21
71.1512
  0
LINE
  8
0
 10
289.913
 20
71.1512
 11
289.747
 21
70.84
  0
LINE
  8
0
 10
289.747
 20
70.84
 11
289.523
 21
70.5672
  0
LINE
  8
0
 10
289.523
 20
70.5672
 11
289.25
 21
70.3434
  0
LINE
  8
0
 10
289.25
 20
70.3434
 11
288.939
 21
70.177
  0
LINE
  8
0
 10
288.939
 20
70.177
 11
288.601
 21
70.0746
  0
LINE
  8
0
 10
288.601
 20
70.0746
 11
288.25
 21
70.04
  0
LINE
  8
0
 10
288.25
 20
70.04
 11
287.899
 21
70.0746
  0
LINE
  8
0
 10
256.982
 20
70.0746
 11
256.645
 21
70.177
  0
LINE
  8
0
 10
256.645
 20
70.177
 11
256.333
 21
70.3434
  0
LINE
  8
0
 10
256.333
 20
70.3434
 11
256.061
 21
70.5672
  0
LINE
  8
0
 10
256.061
 20
70.5672
 11
255.837
 21
70.84
  0
LINE
  8
0
 10
255.837
 20
70.84
 11
255.67
 21
71.1512
  0
LINE
  8
0
 10
255.67
 20
71.1512
 11
255.568
 21
71.4888
  0
LINE
  8
0
 10
255.568
 20
71.4888
 11
255.533
 21
71.84
  0
LINE
  8
0
 10
255.533
 20
71.84
 11
255.568
 21
72.1911
  0
LINE
  8
0
 10
255.568
 20
72.1911
 11
255.67
 21
72.5288
  0
LINE
  8
0
 10
255.67
 20
72.5288
 11
255.837
 21
72.84
  0
LINE
  8
0
 10
255.837
 20
72.84
 11
256.061
 21
73.1128
  0
LINE
  8
0
 10
256.061
 20
73.1128
 11
256.333
 21
73.3366
  0
LINE
  8
0
 10
256.333
 20
73.3366
 11
256.645
 21
73.503
  0
LINE
  8
0
 10
256.645
 20
73.503
 11
256.982
 21
73.6054
  0
LINE
  8
0
 10
256.982
 20
73.6054
 11
257.333
 21
73.64
  0
LINE
  8
0
 10
257.333
 20
73.64
 11
257.684
 21
73.6054
  0
LINE
  8
0
 10
257.684
 20
73.6054
 11
258.022
 21
73.503
  0
LINE
  8
0
 10
258.022
 20
73.503
 11
258.333
 21
73.3366
  0
LINE
  8
0
 10
258.333
 20
73.3366
 11
258.606
 21
73.1128
  0
LINE
  8
0
 10
258.606
 20
73.1128
 11
258.83
 21
72.84
  0
LINE
  8
0
 10
258.83
 20
72.84
 11
258.996
 21
72.5288
  0
LINE
  8
0
 10
258.996
 20
72.5288
 11
259.099
 21
72.1911
  0
LINE
  8
0
 10
259.099
 20
72.1911
 11
259.133
 21
71.84
  0
LINE
  8
0
 10
259.133
 20
71.84
 11
259.099
 21
71.4888
  0
LINE
  8
0
 10
259.099
 20
71.4888
 11
258.996
 21
71.1512
  0
LINE
  8
0
 10
258.996
 20
71.1512
 11
258.83
 21
70.84
  0
LINE
  8
0
 10
258.83
 20
70.84
 11
258.606
 21
70.5672
  0
LINE
  8
0
 10
258.606
 20
70.5672
 11
258.333
 21
70.3434
  0
LINE
  8
0
 10
258.333
 20
70.3434
 11
258.022
 21
70.177
  0
LINE
  8
0
 10
258.022
 20
70.177
 11
257.684
 21
70.0746
  0
LINE
  8
0
 10
257.684
 20
70.0746
 11
257.333
 21
70.04
  0
LINE
  8
0
 10
257.333
 20
70.04
 11
256.982
 21
70.0746
  0
LINE
  8
0
 10
226.066
 20
70.0746
 11
225.728
 21
70.177
  0
LINE
  8
0
 10
225.728
 20
70.177
 11
225.417
 21
70.3434
  0
LINE
  8
0
 10
225.417
 20
70.3434
 11
225.144
 21
70.5672
  0
LINE
  8
0
 10
225.144
 20
70.5672
 11
224.92
 21
70.84
  0
LINE
  8
0
 10
224.92
 20
70.84
 11
224.754
 21
71.1512
  0
LINE
  8
0
 10
224.754
 20
71.1512
 11
224.651
 21
71.4888
  0
LINE
  8
0
 10
224.651
 20
71.4888
 11
224.617
 21
71.84
  0
LINE
  8
0
 10
224.617
 20
71.84
 11
224.651
 21
72.1911
  0
LINE
  8
0
 10
224.651
 20
72.1911
 11
224.754
 21
72.5288
  0
LINE
  8
0
 10
224.754
 20
72.5288
 11
224.92
 21
72.84
  0
LINE
  8
0
 10
224.92
 20
72.84
 11
225.144
 21
73.1128
  0
LINE
  8
0
 10
225.144
 20
73.1128
 11
225.417
 21
73.3366
  0
LINE
  8
0
 10
225.417
 20
73.3366
 11
225.728
 21
73.503
  0
LINE
  8
0
 10
225.728
 20
73.503
 11
226.066
 21
73.6054
  0
LINE
  8
0
 10
226.066
 20
73.6054
 11
226.417
 21
73.64
  0
LINE
  8
0
 10
226.417
 20
73.64
 11
226.768
 21
73.6054
  0
LINE
  8
0
 10
226.768
 20
73.6054
 11
227.105
 21
73.503
  0
LINE
  8
0
 10
227.105
 20
73.503
 11
227.417
 21
73.3366
  0
LINE
  8
0
 10
227.417
 20
73.3366
 11
227.689
 21
73.1128
  0
LINE
  8
0
 10
227.689
 20
73.1128
 11
227.913
 21
72.84
  0
LINE
  8
0
 10
227.913
 20
72.84
 11
228.08
 21
72.5288
  0
LINE
  8
0
 10
228.08
 20
72.5288
 11
228.182
 21
72.1911
  0
LINE
  8
0
 10
228.182
 20
72.1911
 11
228.217
 21
71.84
  0
LINE
  8
0
 10
228.217
 20
71.84
 11
228.182
 21
71.4888
  0
LINE
  8
0
 10
228.182
 20
71.4888
 11
228.08
 21
71.1512
  0
LINE
  8
0
 10
228.08
 20
71.1512
 11
227.913
 21
70.84
  0
LINE
  8
0
 10
227.913
 20
70.84
 11
227.689
 21
70.5672
  0
LINE
  8
0
 10
227.689
 20
70.5672
 11
227.417
 21
70.3434
  0
LINE
  8
0
 10
227.417
 20
70.3434
 11
227.105
 21
70.177
  0
LINE
  8
0
 10
227.105
 20
70.177
 11
226.768
 21
70.0746
  0
LINE
  8
0
 10
226.768
 20
70.0746
 11
226.417
 21
70.04
  0
LINE
  8
0
 10
226.417
 20
70.04
 11
226.066
 21
70.0746
  0
LINE
  8
0
 10
195.149
 20
70.0746
 11
194.811
 21
70.177
  0
LINE
  8
0
 10
194.811
 20
70.177
 11
194.5
 21
70.3434
  0
LINE
  8
0
 10
194.5
 20
70.3434
 11
194.227
 21
70.5672
  0
LINE
  8
0
 10
194.227
 20
70.5672
 11
194.003
 21
70.84
  0
LINE
  8
0
 10
194.003
 20
70.84
 11
193.837
 21
71.1512
  0
LINE
  8
0
 10
193.837
 20
71.1512
 11
193.735
 21
71.4888
  0
LINE
  8
0
 10
193.735
 20
71.4888
 11
193.7
 21
71.84
  0
LINE
  8
0
 10
193.7
 20
71.84
 11
193.735
 21
72.1911
  0
LINE
  8
0
 10
193.735
 20
72.1911
 11
193.837
 21
72.5288
  0
LINE
  8
0
 10
193.837
 20
72.5288
 11
194.003
 21
72.84
  0
LINE
  8
0
 10
194.003
 20
72.84
 11
194.227
 21
73.1128
  0
LINE
  8
0
 10
194.227
 20
73.1128
 11
194.5
 21
73.3366
  0
LINE
  8
0
 10
194.5
 20
73.3366
 11
194.811
 21
73.503
  0
LINE
  8
0
 10
194.811
 20
73.503
 11
195.149
 21
73.6054
  0
LINE
  8
0
 10
195.149
 20
73.6054
 11
195.5
 21
73.64
  0
LINE
  8
0
 10
195.5
 20
73.64
 11
195.851
 21
73.6054
  0
LINE
  8
0
 10
195.851
 20
73.6054
 11
196.189
 21
73.503
  0
LINE
  8
0
 10
196.189
 20
73.503
 11
196.5
 21
73.3366
  0
LINE
  8
0
 10
196.5
 20
73.3366
 11
196.773
 21
73.1128
  0
LINE
  8
0
 10
196.773
 20
73.1128
 11
196.997
 21
72.84
  0
LINE
  8
0
 10
196.997
 20
72.84
 11
197.163
 21
72.5288
  0
LINE
  8
0
 10
197.163
 20
72.5288
 11
197.265
 21
72.1911
  0
LINE
  8
0
 10
197.265
 20
72.1911
 11
197.3
 21
71.84
  0
LINE
  8
0
 10
197.3
 20
71.84
 11
197.265
 21
71.4888
  0
LINE
  8
0
 10
197.265
 20
71.4888
 11
197.163
 21
71.1512
  0
LINE
  8
0
 10
197.163
 20
71.1512
 11
196.997
 21
70.84
  0
LINE
  8
0
 10
196.997
 20
70.84
 11
196.773
 21
70.5672
  0
LINE
  8
0
 10
196.773
 20
70.5672
 11
196.5
 21
70.3434
  0
LINE
  8
0
 10
196.5
 20
70.3434
 11
196.189
 21
70.177
  0
LINE
  8
0
 10
196.189
 20
70.177
 11
195.851
 21
70.0746
  0
LINE
  8
0
 10
195.851
 20
70.0746
 11
195.5
 21
70.04
  0
LINE
  8
0
 10
195.5
 20
70.04
 11
195.149
 21
70.0746
  0
LINE
  8
0
 10
164.232
 20
70.0746
 11
163.895
 21
70.177
  0
LINE
  8
0
 10
163.895
 20
70.177
 11
163.583
 21
70.3434
  0
LINE
  8
0
 10
163.583
 20
70.3434
 11
163.311
 21
70.5672
  0
LINE
  8
0
 10
163.311
 20
70.5672
 11
163.087
 21
70.84
  0
LINE
  8
0
 10
163.087
 20
70.84
 11
162.92
 21
71.1512
  0
LINE
  8
0
 10
162.92
 20
71.1512
 11
162.818
 21
71.4888
  0
LINE
  8
0
 10
162.818
 20
71.4888
 11
162.783
 21
71.84
  0
LINE
  8
0
 10
162.783
 20
71.84
 11
162.818
 21
72.1911
  0
LINE
  8
0
 10
162.818
 20
72.1911
 11
162.92
 21
72.5288
  0
LINE
  8
0
 10
162.92
 20
72.5288
 11
163.087
 21
72.84
  0
LINE
  8
0
 10
163.087
 20
72.84
 11
163.311
 21
73.1128
  0
LINE
  8
0
 10
163.311
 20
73.1128
 11
163.583
 21
73.3366
  0
LINE
  8
0
 10
163.583
 20
73.3366
 11
163.895
 21
73.503
  0
LINE
  8
0
 10
163.895
 20
73.503
 11
164.232
 21
73.6054
  0
LINE
  8
0
 10
164.232
 20
73.6054
 11
164.583
 21
73.64
  0
LINE
  8
0
 10
164.583
 20
73.64
 11
164.934
 21
73.6054
  0
LINE
  8
0
 10
164.934
 20
73.6054
 11
165.272
 21
73.503
  0
LINE
  8
0
 10
165.272
 20
73.503
 11
165.583
 21
73.3366
  0
LINE
  8
0
 10
165.583
 20
73.3366
 11
165.856
 21
73.1128
  0
LINE
  8
0
 10
165.856
 20
73.1128
 11
166.08
 21
72.84
  0
LINE
  8
0
 10
166.08
 20
72.84
 11
166.246
 21
72.5288
  0
LINE
  8
0
 10
166.246
 20
72.5288
 11
166.349
 21
72.1911
  0
LINE
  8
0
 10
166.349
 20
72.1911
 11
166.383
 21
71.84
  0
LINE
  8
0
 10
166.383
 20
71.84
 11
166.349
 21
71.4888
  0
LINE
  8
0
 10
166.349
 20
71.4888
 11
166.246
 21
71.1512
  0
LINE
  8
0
 10
166.246
 20
71.1512
 11
166.08
 21
70.84
  0
LINE
  8
0
 10
166.08
 20
70.84
 11
165.856
 21
70.5672
  0
LINE
  8
0
 10
165.856
 20
70.5672
 11
165.583
 21
70.3434
  0
LINE
  8
0
 10
165.583
 20
70.3434
 11
165.272
 21
70.177
  0
LINE
  8
0
 10
165.272
 20
70.177
 11
164.934
 21
70.0746
  0
LINE
  8
0
 10
164.934
 20
70.0746
 11
164.583
 21
70.04
  0
LINE
  8
0
 10
164.583
 20
70.04
 11
164.232
 21
70.0746
  0
LINE
  8
0
 10
133.316
 20
70.0746
 11
132.978
 21
70.177
  0
LINE
  8
0
 10
132.978
 20
70.177
 11
132.667
 21
70.3434
  0
LINE
  8
0
 10
132.667
 20
70.3434
 11
132.394
 21
70.5672
  0
LINE
  8
0
 10
132.394
 20
70.5672
 11
132.17
 21
70.84
  0
LINE
  8
0
 10
132.17
 20
70.84
 11
132.004
 21
71.1512
  0
LINE
  8
0
 10
132.004
 20
71.1512
 11
131.901
 21
71.4888
  0
LINE
  8
0
 10
131.901
 20
71.4888
 11
131.867
 21
71.84
  0
LINE
  8
0
 10
131.867
 20
71.84
 11
131.901
 21
72.1911
  0
LINE
  8
0
 10
131.901
 20
72.1911
 11
132.004
 21
72.5288
  0
LINE
  8
0
 10
132.004
 20
72.5288
 11
132.17
 21
72.84
  0
LINE
  8
0
 10
132.17
 20
72.84
 11
132.394
 21
73.1128
  0
LINE
  8
0
 10
132.394
 20
73.1128
 11
132.667
 21
73.3366
  0
LINE
  8
0
 10
132.667
 20
73.3366
 11
132.978
 21
73.503
  0
LINE
  8
0
 10
132.978
 20
73.503
 11
133.316
 21
73.6054
  0
LINE
  8
0
 10
133.316
 20
73.6054
 11
133.667
 21
73.64
  0
LINE
  8
0
 10
133.667
 20
73.64
 11
134.018
 21
73.6054
  0
LINE
  8
0
 10
134.018
 20
73.6054
 11
134.355
 21
73.503
  0
LINE
  8
0
 10
134.355
 20
73.503
 11
134.667
 21
73.3366
  0
LINE
  8
0
 10
134.667
 20
73.3366
 11
134.939
 21
73.1128
  0
LINE
  8
0
 10
134.939
 20
73.1128
 11
135.163
 21
72.84
  0
LINE
  8
0
 10
135.163
 20
72.84
 11
135.33
 21
72.5288
  0
LINE
  8
0
 10
135.33
 20
72.5288
 11
135.432
 21
72.1911
  0
LINE
  8
0
 10
135.432
 20
72.1911
 11
135.467
 21
71.84
  0
LINE
  8
0
 10
135.467
 20
71.84
 11
135.432
 21
71.4888
  0
LINE
  8
0
 10
135.432
 20
71.4888
 11
135.33
 21
71.1512
  0
LINE
  8
0
 10
135.33
 20
71.1512
 11
135.163
 21
70.84
  0
LINE
  8
0
 10
135.163
 20
70.84
 11
134.939
 21
70.5672
  0
LINE
  8
0
 10
134.939
 20
70.5672
 11
134.667
 21
70.3434
  0
LINE
  8
0
 10
134.667
 20
70.3434
 11
134.355
 21
70.177
  0
LINE
  8
0
 10
134.355
 20
70.177
 11
134.018
 21
70.0746
  0
LINE
  8
0
 10
134.018
 20
70.0746
 11
133.667
 21
70.04
  0
LINE
  8
0
 10
133.667
 20
70.04
 11
133.316
 21
70.0746
  0
LINE
  8
0
 10
102.399
 20
70.0746
 11
102.061
 21
70.177
  0
LINE
  8
0
 10
102.061
 20
70.177
 11
101.75
 21
70.3434
  0
LINE
  8
0
 10
101.75
 20
70.3434
 11
101.477
 21
70.5672
  0
LINE
  8
0
 10
101.477
 20
70.5672
 11
101.253
 21
70.84
  0
LINE
  8
0
 10
101.253
 20
70.84
 11
101.087
 21
71.1512
  0
LINE
  8
0
 10
101.087
 20
71.1512
 11
100.985
 21
71.4888
  0
LINE
  8
0
 10
100.985
 20
71.4888
 11
100.95
 21
71.84
  0
LINE
  8
0
 10
100.95
 20
71.84
 11
100.985
 21
72.1911
  0
LINE
  8
0
 10
100.985
 20
72.1911
 11
101.087
 21
72.5288
  0
LINE
  8
0
 10
101.087
 20
72.5288
 11
101.253
 21
72.84
  0
LINE
  8
0
 10
101.253
 20
72.84
 11
101.477
 21
73.1128
  0
LINE
  8
0
 10
101.477
 20
73.1128
 11
101.75
 21
73.3366
  0
LINE
  8
0
 10
101.75
 20
73.3366
 11
102.061
 21
73.503
  0
LINE
  8
0
 10
102.061
 20
73.503
 11
102.399
 21
73.6054
  0
LINE
  8
0
 10
102.399
 20
73.6054
 11
102.75
 21
73.64
  0
LINE
  8
0
 10
102.75
 20
73.64
 11
103.101
 21
73.6054
  0
LINE
  8
0
 10
103.101
 20
73.6054
 11
103.439
 21
73.503
  0
LINE
  8
0
 10
103.439
 20
73.503
 11
103.75
 21
73.3366
  0
LINE
  8
0
 10
103.75
 20
73.3366
 11
104.023
 21
73.1128
  0
LINE
  8
0
 10
104.023
 20
73.1128
 11
104.247
 21
72.84
  0
LINE
  8
0
 10
104.247
 20
72.84
 11
104.413
 21
72.5288
  0
LINE
  8
0
 10
104.413
 20
72.5288
 11
104.515
 21
72.1911
  0
LINE
  8
0
 10
104.515
 20
72.1911
 11
104.55
 21
71.84
  0
LINE
  8
0
 10
104.55
 20
71.84
 11
104.515
 21
71.4888
  0
LINE
  8
0
 10
104.515
 20
71.4888
 11
104.413
 21
71.1512
  0
LINE
  8
0
 10
104.413
 20
71.1512
 11
104.247
 21
70.84
  0
LINE
  8
0
 10
104.247
 20
70.84
 11
104.023
 21
70.5672
  0
LINE
  8
0
 10
104.023
 20
70.5672
 11
103.75
 21
70.3434
  0
LINE
  8
0
 10
103.75
 20
70.3434
 11
103.439
 21
70.177
  0
LINE
  8
0
 10
103.439
 20
70.177
 11
103.101
 21
70.0746
  0
LINE
  8
0
 10
103.101
 20
70.0746
 11
102.75
 21
70.04
  0
LINE
  8
0
 10
102.75
 20
70.04
 11
102.399
 21
70.0746
  0
LINE
  8
0
 10
71.4822
 20
70.0746
 11
71.1445
 21
70.177
  0
LINE
  8
0
 10
71.1445
 20
70.177
 11
70.8333
 21
70.3434
  0
LINE
  8
0
 10
70.8333
 20
70.3434
 11
70.5605
 21
70.5672
  0
LINE
  8
0
 10
70.5605
 20
70.5672
 11
70.3367
 21
70.84
  0
LINE
  8
0
 10
70.3367
 20
70.84
 11
70.1703
 21
71.1512
  0
LINE
  8
0
 10
70.1703
 20
71.1512
 11
70.0679
 21
71.4888
  0
LINE
  8
0
 10
70.0679
 20
71.4888
 11
70.0333
 21
71.84
  0
LINE
  8
0
 10
70.0333
 20
71.84
 11
70.0679
 21
72.1911
  0
LINE
  8
0
 10
70.0679
 20
72.1911
 11
70.1703
 21
72.5288
  0
LINE
  8
0
 10
70.1703
 20
72.5288
 11
70.3367
 21
72.84
  0
LINE
  8
0
 10
70.3367
 20
72.84
 11
70.5605
 21
73.1128
  0
LINE
  8
0
 10
70.5605
 20
73.1128
 11
70.8333
 21
73.3366
  0
LINE
  8
0
 10
70.8333
 20
73.3366
 11
71.1445
 21
73.503
  0
LINE
  8
0
 10
71.1445
 20
73.503
 11
71.4822
 21
73.6054
  0
LINE
  8
0
 10
71.4822
 20
73.6054
 11
71.8333
 21
73.64
  0
LINE
  8
0
 10
71.8333
 20
73.64
 11
72.1845
 21
73.6054
  0
LINE
  8
0
 10
72.1845
 20
73.6054
 11
72.5222
 21
73.503
  0
LINE
  8
0
 10
72.5222
 20
73.503
 11
72.8333
 21
73.3366
  0
LINE
  8
0
 10
72.8333
 20
73.3366
 11
73.1061
 21
73.1128
  0
LINE
  8
0
 10
73.1061
 20
73.1128
 11
73.33
 21
72.84
  0
LINE
  8
0
 10
73.33
 20
72.84
 11
73.4963
 21
72.5288
  0
LINE
  8
0
 10
73.4963
 20
72.5288
 11
73.5987
 21
72.1911
  0
LINE
  8
0
 10
73.5987
 20
72.1911
 11
73.6333
 21
71.84
  0
LINE
  8
0
 10
73.6333
 20
71.84
 11
73.5987
 21
71.4888
  0
LINE
  8
0
 10
73.5987
 20
71.4888
 11
73.4963
 21
71.1512
  0
LINE
  8
0
 10
73.4963
 20
71.1512
 11
73.33
 21
70.84
  0
LINE
  8
0
 10
73.33
 20
70.84
 11
73.1061
 21
70.5672
  0
LINE
  8
0
 10
73.1061
 20
70.5672
 11
72.8333
 21
70.3434
  0
LINE
  8
0
 10
72.8333
 20
70.3434
 11
72.5222
 21
70.177
  0
LINE
  8
0
 10
72.5222
 20
70.177
 11
72.1845
 21
70.0746
  0
LINE
  8
0
 10
72.1845
 20
70.0746
 11
71.8333
 21
70.04
  0
LINE
  8
0
 10
71.8333
 20
70.04
 11
71.4822
 21
70.0746
  0
LINE
  8
0
 10
40.5655
 20
70.0746
 11
40.2278
 21
70.177
  0
LINE
  8
0
 10
40.2278
 20
70.177
 11
39.9166
 21
70.3434
  0
LINE
  8
0
 10
39.9166
 20
70.3434
 11
39.6439
 21
70.5672
  0
LINE
  8
0
 10
39.6439
 20
70.5672
 11
39.42
 21
70.84
  0
LINE
  8
0
 10
39.42
 20
70.84
 11
39.2537
 21
71.1512
  0
LINE
  8
0
 10
39.2537
 20
71.1512
 11
39.1512
 21
71.4888
  0
LINE
  8
0
 10
39.1512
 20
71.4888
 11
39.1167
 21
71.84
  0
LINE
  8
0
 10
39.1167
 20
71.84
 11
39.1512
 21
72.1911
  0
LINE
  8
0
 10
39.1512
 20
72.1911
 11
39.2537
 21
72.5288
  0
LINE
  8
0
 10
39.2537
 20
72.5288
 11
39.42
 21
72.84
  0
LINE
  8
0
 10
39.42
 20
72.84
 11
39.6439
 21
73.1128
  0
LINE
  8
0
 10
39.6439
 20
73.1128
 11
39.9166
 21
73.3366
  0
LINE
  8
0
 10
39.9166
 20
73.3366
 11
40.2278
 21
73.503
  0
LINE
  8
0
 10
40.2278
 20
73.503
 11
40.5655
 21
73.6054
  0
LINE
  8
0
 10
40.5655
 20
73.6054
 11
40.9167
 21
73.64
  0
LINE
  8
0
 10
40.9167
 20
73.64
 11
41.2678
 21
73.6054
  0
LINE
  8
0
 10
41.2678
 20
73.6054
 11
41.6055
 21
73.503
  0
LINE
  8
0
 10
41.6055
 20
73.503
 11
41.9167
 21
73.3366
  0
LINE
  8
0
 10
41.9167
 20
73.3366
 11
42.1894
 21
73.1128
  0
LINE
  8
0
 10
42.1894
 20
73.1128
 11
42.4133
 21
72.84
  0
LINE
  8
0
 10
42.4133
 20
72.84
 11
42.5796
 21
72.5288
  0
LINE
  8
0
 10
42.5796
 20
72.5288
 11
42.6821
 21
72.1911
  0
LINE
  8
0
 10
42.6821
 20
72.1911
 11
42.7166
 21
71.84
  0
LINE
  8
0
 10
42.7166
 20
71.84
 11
42.6821
 21
71.4888
  0
LINE
  8
0
 10
42.6821
 20
71.4888
 11
42.5796
 21
71.1512
  0
LINE
  8
0
 10
42.5796
 20
71.1512
 11
42.4133
 21
70.84
  0
LINE
  8
0
 10
42.4133
 20
70.84
 11
42.1894
 21
70.5672
  0
LINE
  8
0
 10
42.1894
 20
70.5672
 11
41.9167
 21
70.3434
  0
LINE
  8
0
 10
41.9167
 20
70.3434
 11
41.6055
 21
70.177
  0
LINE
  8
0
 10
41.6055
 20
70.177
 11
41.2678
 21
70.0746
  0
LINE
  8
0
 10
41.2678
 20
70.0746
 11
40.9167
 21
70.04
  0
LINE
  8
0
 10
40.9167
 20
70.04
 11
40.5655
 21
70.0746
  0
LINE
  8
0
 10
9.64885
 20
70.0746
 11
9.31117
 21
70.177
  0
LINE
  8
0
 10
9.31117
 20
70.177
 11
8.99998
 21
70.3434
  0
LINE
  8
0
 10
8.99998
 20
70.3434
 11
8.72722
 21
70.5672
  0
LINE
  8
0
 10
8.72722
 20
70.5672
 11
8.50336
 21
70.84
  0
LINE
  8
0
 10
8.50336
 20
70.84
 11
8.33702
 21
71.1512
  0
LINE
  8
0
 10
8.33702
 20
71.1512
 11
8.23459
 21
71.4888
  0
LINE
  8
0
 10
8.23459
 20
71.4888
 11
8.20001
 21
71.84
  0
LINE
  8
0
 10
8.20001
 20
71.84
 11
8.23459
 21
72.1911
  0
LINE
  8
0
 10
8.23459
 20
72.1911
 11
8.33702
 21
72.5288
  0
LINE
  8
0
 10
8.33702
 20
72.5288
 11
8.50336
 21
72.84
  0
LINE
  8
0
 10
8.50336
 20
72.84
 11
8.72722
 21
73.1128
  0
LINE
  8
0
 10
8.72722
 20
73.1128
 11
8.99998
 21
73.3366
  0
LINE
  8
0
 10
8.99998
 20
73.3366
 11
9.31117
 21
73.503
  0
LINE
  8
0
 10
9.31117
 20
73.503
 11
9.64885
 21
73.6054
  0
LINE
  8
0
 10
9.64885
 20
73.6054
 11
10
 21
73.64
  0
LINE
  8
0
 10
10
 20
73.64
 11
10.3512
 21
73.6054
  0
LINE
  8
0
 10
10.3512
 20
73.6054
 11
10.6888
 21
73.503
  0
LINE
  8
0
 10
10.6888
 20
73.503
 11
11
 21
73.3366
  0
LINE
  8
0
 10
11
 20
73.3366
 11
11.2728
 21
73.1128
  0
LINE
  8
0
 10
11.2728
 20
73.1128
 11
11.4966
 21
72.84
  0
LINE
  8
0
 10
11.4966
 20
72.84
 11
11.663
 21
72.5288
  0
LINE
  8
0
 10
11.663
 20
72.5288
 11
11.7654
 21
72.1911
  0
LINE
  8
0
 10
11.7654
 20
72.1911
 11
11.8
 21
71.84
  0
LINE
  8
0
 10
11.8
 20
71.84
 11
11.7654
 21
71.4888
  0
LINE
  8
0
 10
11.7654
 20
71.4888
 11
11.663
 21
71.1512
  0
LINE
  8
0
 10
11.663
 20
71.1512
 11
11.4966
 21
70.84
  0
LINE
  8
0
 10
11.4966
 20
70.84
 11
11.2728
 21
70.5672
  0
LINE
  8
0
 10
11.2728
 20
70.5672
 11
11
 21
70.3434
  0
LINE
  8
0
 10
11
 20
70.3434
 11
10.6888
 21
70.177
  0
LINE
  8
0
 10
10.6888
 20
70.177
 11
10.3512
 21
70.0746
  0
LINE
  8
0
 10
10.3512
 20
70.0746
 11
10
 21
70.04
  0
LINE
  8
0
 10
10
 20
70.04
 11
9.64885
 21
70.0746
  0
LINE
  8
0
 10
137.5
 20
57
 11
137.5
 21
61
  0
LINE
  8
0
 10
137.5
 20
61
 11
162.5
 21
61
  0
LINE
  8
0
 10
162.5
 20
61
 11
162.5
 21
57
  0
LINE
  8
0
 10
162.5
 20
57
 11
137.5
 21
57
  0
LINE
  8
0
 10
247.5
 20
57
 11
247.5
 21
61
  0
LINE
  8
0
 10
247.5
 20
61
 11
272.5
 21
61
  0
LINE
  8
0
 10
272.5
 20
61
 11
272.5
 21
57
  0
LINE
  8
0
 10
272.5
 20
57
 11
247.5
 21
57
  0
LINE
  8
0
 10
333.5
 20
57
 11
333.5
 21
61
  0
LINE
  8
0
 10
333.5
 20
61
 11
358.5
 21
61
  0
LINE
  8
0
 10
358.5
 20
61
 11
358.5
 21
57
  0
LINE
  8
0
 10
358.5
 20
57
 11
333.5
 21
57
  0
LINE
  8
0
 10
27.5
 20
57
 11
27.5
 21
61
  0
LINE
  8
0
 10
27.5
 20
61
 11
52.5
 21
61
  0
LINE
  8
0
 10
52.5
 20
61
 11
52.5
 21
57
  0
LINE
  8
0
 10
52.5
 20
57
 11
27.5
 21
57
  0
LINE
  8
0
 10
27.5
 20
19
 11
27.5
 21
23
  0
LINE
  8
0
 10
27.5
 20
23
 11
52.5
 21
23
  0
LINE
  8
0
 10
52.5
 20
23
 11
52.5
 21
19
  0
LINE
  8
0
 10
52.5
 20
19
 11
27.5
 21
19
  0
LINE
  8
0
 10
137.5
 20
19
 11
137.5
 21
23
  0
LINE
  8
0
 10
137.5
 20
23
 11
162.5
 21
23
  0
LINE
  8
0
 10
162.5
 20
23
 11
162.5
 21
19
  0
LINE
  8
0
 10
162.5
 20
19
 11
137.5
 21
19
  0
LINE
  8
0
 10
247.5
 20
19
 11
247.5
 21
23
  0
LINE
  8
0
 10
247.5
 20
23
 11
272.5
 21
23
  0
LINE
  8
0
 10
272.5
 20
23
 11
272.5
 21
19
  0
LINE
  8
0
 10
272.5
 20
19
 11
247.5
 21
19
  0
LINE
  8
0
 10
333.5
 20
19
 11
333.5
 21
23
  0
LINE
  8
0
 10
333.5
 20
23
 11
358.5
 21
23
  0
LINE
  8
0
 10
358.5
 20
23
 11
358.5
 21
19
  0
LINE
  8
0
 10
358.5
 20
19
 11
333.5
 21
19
  0
LINE
  8
0
 10
380.649
 20
6.39458
 11
380.311
 21
6.49701
  0
LINE
  8
0
 10
380.311
 20
6.49701
 11
380
 21
6.66335
  0
LINE
  8
0
 10
380
 20
6.66335
 11
379.727
 21
6.88721
  0
LINE
  8
0
 10
379.727
 20
6.88721
 11
379.503
 21
7.15997
  0
LINE
  8
0
 10
379.503
 20
7.15997
 11
379.337
 21
7.47116
  0
LINE
  8
0
 10
379.337
 20
7.47116
 11
379.235
 21
7.80884
  0
LINE
  8
0
 10
379.235
 20
7.80884
 11
379.2
 21
8.15999
  0
LINE
  8
0
 10
379.2
 20
8.15999
 11
379.235
 21
8.51114
  0
LINE
  8
0
 10
379.235
 20
8.51114
 11
379.337
 21
8.84882
  0
LINE
  8
0
 10
379.337
 20
8.84882
 11
379.503
 21
9.16
  0
LINE
  8
0
 10
379.503
 20
9.16
 11
379.727
 21
9.43277
  0
LINE
  8
0
 10
379.727
 20
9.43277
 11
380
 21
9.65663
  0
LINE
  8
0
 10
380
 20
9.65663
 11
380.311
 21
9.82297
  0
LINE
  8
0
 10
380.311
 20
9.82297
 11
380.649
 21
9.9254
  0
LINE
  8
0
 10
380.649
 20
9.9254
 11
381
 21
9.95998
  0
LINE
  8
0
 10
381
 20
9.95998
 11
381.351
 21
9.9254
  0
LINE
  8
0
 10
381.351
 20
9.9254
 11
381.689
 21
9.82297
  0
LINE
  8
0
 10
381.689
 20
9.82297
 11
382
 21
9.65663
  0
LINE
  8
0
 10
382
 20
9.65663
 11
382.273
 21
9.43277
  0
LINE
  8
0
 10
382.273
 20
9.43277
 11
382.497
 21
9.16
  0
LINE
  8
0
 10
382.497
 20
9.16
 11
382.663
 21
8.84882
  0
LINE
  8
0
 10
382.663
 20
8.84882
 11
382.765
 21
8.51114
  0
LINE
  8
0
 10
382.765
 20
8.51114
 11
382.8
 21
8.15999
  0
LINE
  8
0
 10
382.8
 20
8.15999
 11
382.765
 21
7.80884
  0
LINE
  8
0
 10
382.765
 20
7.80884
 11
382.663
 21
7.47116
  0
LINE
  8
0
 10
382.663
 20
7.47116
 11
382.497
 21
7.15997
  0
LINE
  8
0
 10
382.497
 20
7.15997
 11
382.273
 21
6.88721
  0
LINE
  8
0
 10
382.273
 20
6.88721
 11
382
 21
6.66335
  0
LINE
  8
0
 10
382
 20
6.66335
 11
381.689
 21
6.49701
  0
LINE
  8
0
 10
381.689
 20
6.49701
 11
381.351
 21
6.39458
  0
LINE
  8
0
 10
381.351
 20
6.39458
 11
381
 21
6.36
  0
LINE
  8
0
 10
381
 20
6.36
 11
380.649
 21
6.39458
  0
LINE
  8
0
 10
349.732
 20
6.39458
 11
349.395
 21
6.49701
  0
LINE
  8
0
 10
349.395
 20
6.49701
 11
349.083
 21
6.66335
  0
LINE
  8
0
 10
349.083
 20
6.66335
 11
348.811
 21
6.88721
  0
LINE
  8
0
 10
348.811
 20
6.88721
 11
348.587
 21
7.15997
  0
LINE
  8
0
 10
348.587
 20
7.15997
 11
348.42
 21
7.47116
  0
LINE
  8
0
 10
348.42
 20
7.47116
 11
348.318
 21
7.80884
  0
LINE
  8
0
 10
348.318
 20
7.80884
 11
348.283
 21
8.15999
  0
LINE
  8
0
 10
348.283
 20
8.15999
 11
348.318
 21
8.51114
  0
LINE
  8
0
 10
348.318
 20
8.51114
 11
348.42
 21
8.84882
  0
LINE
  8
0
 10
348.42
 20
8.84882
 11
348.587
 21
9.16
  0
LINE
  8
0
 10
348.587
 20
9.16
 11
348.811
 21
9.43277
  0
LINE
  8
0
 10
348.811
 20
9.43277
 11
349.083
 21
9.65663
  0
LINE
  8
0
 10
349.083
 20
9.65663
 11
349.395
 21
9.82297
  0
LINE
  8
0
 10
349.395
 20
9.82297
 11
349.732
 21
9.9254
  0
LINE
  8
0
 10
349.732
 20
9.9254
 11
350.083
 21
9.95998
  0
LINE
  8
0
 10
350.083
 20
9.95998
 11
350.434
 21
9.9254
  0
LINE
  8
0
 10
350.434
 20
9.9254
 11
350.772
 21
9.82297
  0
LINE
  8
0
 10
350.772
 20
9.82297
 11
351.083
 21
9.65663
  0
LINE
  8
0
 10
351.083
 20
9.65663
 11
351.356
 21
9.43277
  0
LINE
  8
0
 10
351.356
 20
9.43277
 11
351.58
 21
9.16
  0
LINE
  8
0
 10
351.58
 20
9.16
 11
351.746
 21
8.84882
  0
LINE
  8
0
 10
351.746
 20
8.84882
 11
351.849
 21
8.51114
  0
LINE
  8
0
 10
351.849
 20
8.51114
 11
351.883
 21
8.15999
  0
LINE
  8
0
 10
351.883
 20
8.15999
 11
351.849
 21
7.80884
  0
LINE
  8
0
 10
351.849
 20
7.80884
 11
351.746
 21
7.47116
  0
LINE
  8
0
 10
351.746
 20
7.47116
 11
351.58
 21
7.15997
  0
LINE
  8
0
 10
351.58
 20
7.15997
 11
351.356
 21
6.88721
  0
LINE
  8
0
 10
351.356
 20
6.88721
 11
351.083
 21
6.66335
  0
LINE
  8
0
 10
351.083
 20
6.66335
 11
350.772
 21
6.49701
  0
LINE
  8
0
 10
350.772
 20
6.49701
 11
350.434
 21
6.39458
  0
LINE
  8
0
 10
350.434
 20
6.39458
 11
350.083
 21
6.36
  0
LINE
  8
0
 10
350.083
 20
6.36
 11
349.732
 21
6.39458
  0
LINE
  8
0
 10
318.816
 20
6.39458
 11
318.478
 21
6.49701
  0
LINE
  8
0
 10
318.478
 20
6.49701
 11
318.167
 21
6.66335
  0
LINE
  8
0
 10
318.167
 20
6.66335
 11
317.894
 21
6.88721
  0
LINE
  8
0
 10
317.894
 20
6.88721
 11
317.67
 21
7.15997
  0
LINE
  8
0
 10
317.67
 20
7.15997
 11
317.504
 21
7.47116
  0
LINE
  8
0
 10
317.504
 20
7.47116
 11
317.401
 21
7.80884
  0
LINE
  8
0
 10
317.401
 20
7.80884
 11
317.367
 21
8.15999
  0
LINE
  8
0
 10
317.367
 20
8.15999
 11
317.401
 21
8.51114
  0
LINE
  8
0
 10
317.401
 20
8.51114
 11
317.504
 21
8.84882
  0
LINE
  8
0
 10
317.504
 20
8.84882
 11
317.67
 21
9.16
  0
LINE
  8
0
 10
317.67
 20
9.16
 11
317.894
 21
9.43277
  0
LINE
  8
0
 10
317.894
 20
9.43277
 11
318.167
 21
9.65663
  0
LINE
  8
0
 10
318.167
 20
9.65663
 11
318.478
 21
9.82297
  0
LINE
  8
0
 10
318.478
 20
9.82297
 11
318.816
 21
9.9254
  0
LINE
  8
0
 10
318.816
 20
9.9254
 11
319.167
 21
9.95998
  0
LINE
  8
0
 10
319.167
 20
9.95998
 11
319.518
 21
9.9254
  0
LINE
  8
0
 10
319.518
 20
9.9254
 11
319.855
 21
9.82297
  0
LINE
  8
0
 10
319.855
 20
9.82297
 11
320.167
 21
9.65663
  0
LINE
  8
0
 10
320.167
 20
9.65663
 11
320.439
 21
9.43277
  0
LINE
  8
0
 10
320.439
 20
9.43277
 11
320.663
 21
9.16
  0
LINE
  8
0
 10
320.663
 20
9.16
 11
320.83
 21
8.84882
  0
LINE
  8
0
 10
320.83
 20
8.84882
 11
320.932
 21
8.51114
  0
LINE
  8
0
 10
320.932
 20
8.51114
 11
320.967
 21
8.15999
  0
LINE
  8
0
 10
320.967
 20
8.15999
 11
320.932
 21
7.80884
  0
LINE
  8
0
 10
320.932
 20
7.80884
 11
320.83
 21
7.47116
  0
LINE
  8
0
 10
320.83
 20
7.47116
 11
320.663
 21
7.15997
  0
LINE
  8
0
 10
320.663
 20
7.15997
 11
320.439
 21
6.88721
  0
LINE
  8
0
 10
320.439
 20
6.88721
 11
320.167
 21
6.66335
  0
LINE
  8
0
 10
320.167
 20
6.66335
 11
319.855
 21
6.49701
  0
LINE
  8
0
 10
319.855
 20
6.49701
 11
319.518
 21
6.39458
  0
LINE
  8
0
 10
319.518
 20
6.39458
 11
319.167
 21
6.36
  0
LINE
  8
0
 10
319.167
 20
6.36
 11
318.816
 21
6.39458
  0
LINE
  8
0
 10
287.899
 20
6.39458
 11
287.561
 21
6.49701
  0
LINE
  8
0
 10
287.561
 20
6.49701
 11
287.25
 21
6.66335
  0
LINE
  8
0
 10
287.25
 20
6.66335
 11
286.977
 21
6.88721
  0
LINE
  8
0
 10
286.977
 20
6.88721
 11
286.753
 21
7.15997
  0
LINE
  8
0
 10
286.753
 20
7.15997
 11
286.587
 21
7.47116
  0
LINE
  8
0
 10
286.587
 20
7.47116
 11
286.485
 21
7.80884
  0
LINE
  8
0
 10
286.485
 20
7.80884
 11
286.45
 21
8.15999
  0
LINE
  8
0
 10
286.45
 20
8.15999
 11
286.485
 21
8.51114
  0
LINE
  8
0
 10
286.485
 20
8.51114
 11
286.587
 21
8.84882
  0
LINE
  8
0
 10
286.587
 20
8.84882
 11
286.753
 21
9.16
  0
LINE
  8
0
 10
286.753
 20
9.16
 11
286.977
 21
9.43277
  0
LINE
  8
0
 10
286.977
 20
9.43277
 11
287.25
 21
9.65663
  0
LINE
  8
0
 10
287.25
 20
9.65663
 11
287.561
 21
9.82297
  0
LINE
  8
0
 10
287.561
 20
9.82297
 11
287.899
 21
9.9254
  0
LINE
  8
0
 10
287.899
 20
9.9254
 11
288.25
 21
9.95998
  0
LINE
  8
0
 10
288.25
 20
9.95998
 11
288.601
 21
9.9254
  0
LINE
  8
0
 10
288.601
 20
9.9254
 11
288.939
 21
9.82297
  0
LINE
  8
0
 10
288.939
 20
9.82297
 11
289.25
 21
9.65663
  0
LINE
  8
0
 10
289.25
 20
9.65663
 11
289.523
 21
9.43277
  0
LINE
  8
0
 10
289.523
 20
9.43277
 11
289.747
 21
9.16
  0
LINE
  8
0
 10
289.747
 20
9.16
 11
289.913
 21
8.84882
  0
LINE
  8
0
 10
289.913
 20
8.84882
 11
290.015
 21
8.51114
  0
LINE
  8
0
 10
290.015
 20
8.51114
 11
290.05
 21
8.15999
  0
LINE
  8
0
 10
290.05
 20
8.15999
 11
290.015
 21
7.80884
  0
LINE
  8
0
 10
290.015
 20
7.80884
 11
289.913
 21
7.47116
  0
LINE
  8
0
 10
289.913
 20
7.47116
 11
289.747
 21
7.15997
  0
LINE
  8
0
 10
289.747
 20
7.15997
 11
289.523
 21
6.88721
  0
LINE
  8
0
 10
289.523
 20
6.88721
 11
289.25
 21
6.66335
  0
LINE
  8
0
 10
289.25
 20
6.66335
 11
288.939
 21
6.49701
  0
LINE
  8
0
 10
288.939
 20
6.49701
 11
288.601
 21
6.39458
  0
LINE
  8
0
 10
288.601
 20
6.39458
 11
288.25
 21
6.36
  0
LINE
  8
0
 10
288.25
 20
6.36
 11
287.899
 21
6.39458
  0
LINE
  8
0
 10
226.066
 20
6.39458
 11
225.728
 21
6.49701
  0
LINE
  8
0
 10
225.728
 20
6.49701
 11
225.417
 21
6.66335
  0
LINE
  8
0
 10
225.417
 20
6.66335
 11
225.144
 21
6.88721
  0
LINE
  8
0
 10
225.144
 20
6.88721
 11
224.92
 21
7.15997
  0
LINE
  8
0
 10
224.92
 20
7.15997
 11
224.754
 21
7.47116
  0
LINE
  8
0
 10
224.754
 20
7.47116
 11
224.651
 21
7.80884
  0
LINE
  8
0
 10
224.651
 20
7.80884
 11
224.617
 21
8.15999
  0
LINE
  8
0
 10
224.617
 20
8.15999
 11
224.651
 21
8.51114
  0
LINE
  8
0
 10
224.651
 20
8.51114
 11
224.754
 21
8.84882
  0
LINE
  8
0
 10
224.754
 20
8.84882
 11
224.92
 21
9.16
  0
LINE
  8
0
 10
224.92
 20
9.16
 11
225.144
 21
9.43277
  0
LINE
  8
0
 10
225.144
 20
9.43277
 11
225.417
 21
9.65663
  0
LINE
  8
0
 10
225.417
 20
9.65663
 11
225.728
 21
9.82297
  0
LINE
  8
0
 10
225.728
 20
9.82297
 11
226.066
 21
9.9254
  0
LINE
  8
0
 10
226.066
 20
9.9254
 11
226.417
 21
9.95998
  0
LINE
  8
0
 10
226.417
 20
9.95998
 11
226.768
 21
9.9254
  0
LINE
  8
0
 10
226.768
 20
9.9254
 11
227.105
 21
9.82297
  0
LINE
  8
0
 10
227.105
 20
9.82297
 11
227.417
 21
9.65663
  0
LINE
  8
0
 10
227.417
 20
9.65663
 11
227.689
 21
9.43277
  0
LINE
  8
0
 10
227.689
 20
9.43277
 11
227.913
 21
9.16
  0
LINE
  8
0
 10
227.913
 20
9.16
 11
228.08
 21
8.84882
  0
LINE
  8
0
 10
228.08
 20
8.84882
 11
228.182
 21
8.51114
  0
LINE
  8
0
 10
228.182
 20
8.51114
 11
228.217
 21
8.15999
  0
LINE
  8
0
 10
228.217
 20
8.15999
 11
228.182
 21
7.80884
  0
LINE
  8
0
 10
228.182
 20
7.80884
 11
228.08
 21
7.47116
  0
LINE
  8
0
 10
228.08
 20
7.47116
 11
227.913
 21
7.15997
  0
LINE
  8
0
 10
227.913
 20
7.15997
 11
227.689
 21
6.88721
  0
LINE
  8
0
 10
227.689
 20
6.88721
 11
227.417
 21
6.66335
  0
LINE
  8
0
 10
227.417
 20
6.66335
 11
227.105
 21
6.49701
  0
LINE
  8
0
 10
227.105
 20
6.49701
 11
226.768
 21
6.39458
  0
LINE
  8
0
 10
226.768
 20
6.39458
 11
226.417
 21
6.36
  0
LINE
  8
0
 10
226.417
 20
6.36
 11
226.066
 21
6.39458
  0
LINE
  8
0
 10
195.149
 20
6.39458
 11
194.811
 21
6.49701
  0
LINE
  8
0
 10
194.811
 20
6.49701
 11
194.5
 21
6.66335
  0
LINE
  8
0
 10
194.5
 20
6.66335
 11
194.227
 21
6.88721
  0
LINE
  8
0
 10
194.227
 20
6.88721
 11
194.003
 21
7.15997
  0
LINE
  8
0
 10
194.003
 20
7.15997
 11
193.837
 21
7.47116
  0
LINE
  8
0
 10
193.837
 20
7.47116
 11
193.735
 21
7.80884
  0
LINE
  8
0
 10
193.735
 20
7.80884
 11
193.7
 21
8.15999
  0
LINE
  8
0
 10
193.7
 20
8.15999
 11
193.735
 21
8.51114
  0
LINE
  8
0
 10
193.735
 20
8.51114
 11
193.837
 21
8.84882
  0
LINE
  8
0
 10
193.837
 20
8.84882
 11
194.003
 21
9.16
  0
LINE
  8
0
 10
194.003
 20
9.16
 11
194.227
 21
9.43277
  0
LINE
  8
0
 10
194.227
 20
9.43277
 11
194.5
 21
9.65663
  0
LINE
  8
0
 10
194.5
 20
9.65663
 11
194.811
 21
9.82297
  0
LINE
  8
0
 10
194.811
 20
9.82297
 11
195.149
 21
9.9254
  0
LINE
  8
0
 10
195.149
 20
9.9254
 11
195.5
 21
9.95998
  0
LINE
  8
0
 10
195.5
 20
9.95998
 11
195.851
 21
9.9254
  0
LINE
  8
0
 10
195.851
 20
9.9254
 11
196.189
 21
9.82297
  0
LINE
  8
0
 10
196.189
 20
9.82297
 11
196.5
 21
9.65663
  0
LINE
  8
0
 10
196.5
 20
9.65663
 11
196.773
 21
9.43277
  0
LINE
  8
0
 10
196.773
 20
9.43277
 11
196.997
 21
9.16
  0
LINE
  8
0
 10
196.997
 20
9.16
 11
197.163
 21
8.84882
  0
LINE
  8
0
 10
197.163
 20
8.84882
 11
197.265
 21
8.51114
  0
LINE
  8
0
 10
197.265
 20
8.51114
 11
197.3
 21
8.15999
  0
LINE
  8
0
 10
197.3
 20
8.15999
 11
197.265
 21
7.80884
  0
LINE
  8
0
 10
197.265
 20
7.80884
 11
197.163
 21
7.47116
  0
LINE
  8
0
 10
197.163
 20
7.47116
 11
196.997
 21
7.15997
  0
LINE
  8
0
 10
196.997
 20
7.15997
 11
196.773
 21
6.88721
  0
LINE
  8
0
 10
196.773
 20
6.88721
 11
196.5
 21
6.66335
  0
LINE
  8
0
 10
196.5
 20
6.66335
 11
196.189
 21
6.49701
  0
LINE
  8
0
 10
196.189
 20
6.49701
 11
195.851
 21
6.39458
  0
LINE
  8
0
 10
195.851
 20
6.39458
 11
195.5
 21
6.36
  0
LINE
  8
0
 10
195.5
 20
6.36
 11
195.149
 21
6.39458
  0
LINE
  8
0
 10
164.232
 20
6.39458
 11
163.895
 21
6.49701
  0
LINE
  8
0
 10
163.895
 20
6.49701
 11
163.583
 21
6.66335
  0
LINE
  8
0
 10
163.583
 20
6.66335
 11
163.311
 21
6.88721
  0
LINE
  8
0
 10
163.311
 20
6.88721
 11
163.087
 21
7.15997
  0
LINE
  8
0
 10
163.087
 20
7.15997
 11
162.92
 21
7.47116
  0
LINE
  8
0
 10
162.92
 20
7.47116
 11
162.818
 21
7.80884
  0
LINE
  8
0
 10
162.818
 20
7.80884
 11
162.783
 21
8.15999
  0
LINE
  8
0
 10
162.783
 20
8.15999
 11
162.818
 21
8.51114
  0
LINE
  8
0
 10
162.818
 20
8.51114
 11
162.92
 21
8.84882
  0
LINE
  8
0
 10
162.92
 20
8.84882
 11
163.087
 21
9.16
  0
LINE
  8
0
 10
163.087
 20
9.16
 11
163.311
 21
9.43277
  0
LINE
  8
0
 10
163.311
 20
9.43277
 11
163.583
 21
9.65663
  0
LINE
  8
0
 10
163.583
 20
9.65663
 11
163.895
 21
9.82297
  0
LINE
  8
0
 10
163.895
 20
9.82297
 11
164.232
 21
9.9254
  0
LINE
  8
0
 10
164.232
 20
9.9254
 11
164.583
 21
9.95998
  0
LINE
  8
0
 10
164.583
 20
9.95998
 11
164.934
 21
9.9254
  0
LINE
  8
0
 10
164.934
 20
9.9254
 11
165.272
 21
9.82297
  0
LINE
  8
0
 10
165.272
 20
9.82297
 11
165.583
 21
9.65663
  0
LINE
  8
0
 10
165.583
 20
9.65663
 11
165.856
 21
9.43277
  0
LINE
  8
0
 10
165.856
 20
9.43277
 11
166.08
 21
9.16
  0
LINE
  8
0
 10
166.08
 20
9.16
 11
166.246
 21
8.84882
  0
LINE
  8
0
 10
166.246
 20
8.84882
 11
166.349
 21
8.51114
  0
LINE
  8
0
 10
166.349
 20
8.51114
 11
166.383
 21
8.15999
  0
LINE
  8
0
 10
166.383
 20
8.15999
 11
166.349
 21
7.80884
  0
LINE
  8
0
 10
166.349
 20
7.80884
 11
166.246
 21
7.47116
  0
LINE
  8
0
 10
166.246
 20
7.47116
 11
166.08
 21
7.15997
  0
LINE
  8
0
 10
166.08
 20
7.15997
 11
165.856
 21
6.88721
  0
LINE
  8
0
 10
165.856
 20
6.88721
 11
165.583
 21
6.66335
  0
LINE
  8
0
 10
165.583
 20
6.66335
 11
165.272
 21
6.49701
  0
LINE
  8
0
 10
165.272
 20
6.49701
 11
164.934
 21
6.39458
  0
LINE
  8
0
 10
164.934
 20
6.39458
 11
164.583
 21
6.36
  0
LINE
  8
0
 10
164.583
 20
6.36
 11
164.232
 21
6.39458
  0
LINE
  8
0
 10
133.316
 20
6.39458
 11
132.978
 21
6.49701
  0
LINE
  8
0
 10
132.978
 20
6.49701
 11
132.667
 21
6.66335
  0
LINE
  8
0
 10
132.667
 20
6.66335
 11
132.394
 21
6.88721
  0
LINE
  8
0
 10
132.394
 20
6.88721
 11
132.17
 21
7.15997
  0
LINE
  8
0
 10
132.17
 20
7.15997
 11
132.004
 21
7.47116
  0
LINE
  8
0
 10
132.004
 20
7.47116
 11
131.901
 21
7.80884
  0
LINE
  8
0
 10
131.901
 20
7.80884
 11
131.867
 21
8.15999
  0
LINE
  8
0
 10
131.867
 20
8.15999
 11
131.901
 21
8.51114
  0
LINE
  8
0
 10
131.901
 20
8.51114
 11
132.004
 21
8.84882
  0
LINE
  8
0
 10
132.004
 20
8.84882
 11
132.17
 21
9.16
  0
LINE
  8
0
 10
132.17
 20
9.16
 11
132.394
 21
9.43277
  0
LINE
  8
0
 10
132.394
 20
9.43277
 11
132.667
 21
9.65663
  0
LINE
  8
0
 10
132.667
 20
9.65663
 11
132.978
 21
9.82297
  0
LINE
  8
0
 10
132.978
 20
9.82297
 11
133.316
 21
9.9254
  0
LINE
  8
0
 10
133.316
 20
9.9254
 11
133.667
 21
9.95998
  0
LINE
  8
0
 10
133.667
 20
9.95998
 11
134.018
 21
9.9254
  0
LINE
  8
0
 10
134.018
 20
9.9254
 11
134.355
 21
9.82297
  0
LINE
  8
0
 10
134.355
 20
9.82297
 11
134.667
 21
9.65663
  0
LINE
  8
0
 10
134.667
 20
9.65663
 11
134.939
 21
9.43277
  0
LINE
  8
0
 10
134.939
 20
9.43277
 11
135.163
 21
9.16
  0
LINE
  8
0
 10
135.163
 20
9.16
 11
135.33
 21
8.84882
  0
LINE
  8
0
 10
135.33
 20
8.84882
 11
135.432
 21
8.51114
  0
LINE
  8
0
 10
135.432
 20
8.51114
 11
135.467
 21
8.15999
  0
LINE
  8
0
 10
135.467
 20
8.15999
 11
135.432
 21
7.80884
  0
LINE
  8
0
 10
135.432
 20
7.80884
 11
135.33
 21
7.47116
  0
LINE
  8
0
 10
135.33
 20
7.47116
 11
135.163
 21
7.15997
  0
LINE
  8
0
 10
135.163
 20
7.15997
 11
134.939
 21
6.88721
  0
LINE
  8
0
 10
134.939
 20
6.88721
 11
134.667
 21
6.66335
  0
LINE
  8
0
 10
134.667
 20
6.66335
 11
134.355
 21
6.49701
  0
LINE
  8
0
 10
134.355
 20
6.49701
 11
134.018
 21
6.39458
  0
LINE
  8
0
 10
134.018
 20
6.39458
 11
133.667
 21
6.36
  0
LINE
  8
0
 10
133.667
 20
6.36
 11
133.316
 21
6.39458
  0
LINE
  8
0
 10
102.399
 20
6.39458
 11
102.061
 21
6.49701
  0
LINE
  8
0
 10
102.061
 20
6.49701
 11
101.75
 21
6.66335
  0
LINE
  8
0
 10
101.75
 20
6.66335
 11
101.477
 21
6.88721
  0
LINE
  8
0
 10
101.477
 20
6.88721
 11
101.253
 21
7.15997
  0
LINE
  8
0
 10
101.253
 20
7.15997
 11
101.087
 21
7.47116
  0
LINE
  8
0
 10
101.087
 20
7.47116
 11
100.985
 21
7.80884
  0
LINE
  8
0
 10
100.985
 20
7.80884
 11
100.95
 21
8.15999
  0
LINE
  8
0
 10
100.95
 20
8.15999
 11
100.985
 21
8.51114
  0
LINE
  8
0
 10
100.985
 20
8.51114
 11
101.087
 21
8.84882
  0
LINE
  8
0
 10
101.087
 20
8.84882
 11
101.253
 21
9.16
  0
LINE
  8
0
 10
101.253
 20
9.16
 11
101.477
 21
9.43277
  0
LINE
  8
0
 10
101.477
 20
9.43277
 11
101.75
 21
9.65663
  0
LINE
  8
0
 10
101.75
 20
9.65663
 11
102.061
 21
9.82297
  0
LINE
  8
0
 10
102.061
 20
9.82297
 11
102.399
 21
9.9254
  0
LINE
  8
0
 10
102.399
 20
9.9254
 11
102.75
 21
9.95998
  0
LINE
  8
0
 10
102.75
 20
9.95998
 11
103.101
 21
9.9254
  0
LINE
  8
0
 10
103.101
 20
9.9254
 11
103.439
 21
9.82297
  0
LINE
  8
0
 10
103.439
 20
9.82297
 11
103.75
 21
9.65663
  0
LINE
  8
0
 10
103.75
 20
9.65663
 11
104.023
 21
9.43277
  0
LINE
  8
0
 10
104.023
 20
9.43277
 11
104.247
 21
9.16
  0
LINE
  8
0
 10
104.247
 20
9.16
 11
104.413
 21
8.84882
  0
LINE
  8
0
 10
104.413
 20
8.84882
 11
104.515
 21
8.51114
  0
LINE
  8
0
 10
104.515
 20
8.51114
 11
104.55
 21
8.15999
  0
LINE
  8
0
 10
104.55
 20
8.15999
 11
104.515
 21
7.80884
  0
LINE
  8
0
 10
104.515
 20
7.80884
 11
104.413
 21
7.47116
  0
LINE
  8
0
 10
104.413
 20
7.47116
 11
104.247
 21
7.15997
  0
LINE
  8
0
 10
104.247
 20
7.15997
 11
104.023
 21
6.88721
  0
LINE
  8
0
 10
104.023
 20
6.88721
 11
103.75
 21
6.66335
  0
LINE
  8
0
 10
103.75
 20
6.66335
 11
103.439
 21
6.49701
  0
LINE
  8
0
 10
103.439
 20
6.49701
 11
103.101
 21
6.39458
  0
LINE
  8
0
 10
103.101
 20
6.39458
 11
102.75
 21
6.36
  0
LINE
  8
0
 10
102.75
 20
6.36
 11
102.399
 21
6.39458
  0
LINE
  8
0
 10
71.4822
 20
6.39458
 11
71.1445
 21
6.49701
  0
LINE
  8
0
 10
71.1445
 20
6.49701
 11
70.8333
 21
6.66335
  0
LINE
  8
0
 10
70.8333
 20
6.66335
 11
70.5605
 21
6.88721
  0
LINE
  8
0
 10
70.5605
 20
6.88721
 11
70.3367
 21
7.15997
  0
LINE
  8
0
 10
70.3367
 20
7.15997
 11
70.1703
 21
7.47116
  0
LINE
  8
0
 10
70.1703
 20
7.47116
 11
70.0679
 21
7.80884
  0
LINE
  8
0
 10
70.0679
 20
7.80884
 11
70.0333
 21
8.15999
  0
LINE
  8
0
 10
70.0333
 20
8.15999
 11
70.0679
 21
8.51114
  0
LINE
  8
0
 10
70.0679
 20
8.51114
 11
70.1703
 21
8.84882
  0
LINE
  8
0
 10
70.1703
 20
8.84882
 11
70.3367
 21
9.16
  0
LINE
  8
0
 10
70.3367
 20
9.16
 11
70.5605
 21
9.43277
  0
LINE
  8
0
 10
70.5605
 20
9.43277
 11
70.8333
 21
9.65663
  0
LINE
  8
0
 10
70.8333
 20
9.65663
 11
71.1445
 21
9.82297
  0
LINE
  8
0
 10
71.1445
 20
9.82297
 11
71.4822
 21
9.9254
  0
LINE
  8
0
 10
71.4822
 20
9.9254
 11
71.8333
 21
9.95998
  0
LINE
  8
0
 10
71.8333
 20
9.95998
 11
72.1845
 21
9.9254
  0
LINE
  8
0
 10
72.1845
 20
9.9254
 11
72.5222
 21
9.82297
  0
LINE
  8
0
 10
72.5222
 20
9.82297
 11
72.8333
 21
9.65663
  0
LINE
  8
0
 10
72.8333
 20
9.65663
 11
73.1061
 21
9.43277
  0
LINE
  8
0
 10
73.1061
 20
9.43277
 11
73.33
 21
9.16
  0
LINE
  8
0
 10
73.33
 20
9.16
 11
73.4963
 21
8.84882
  0
LINE
  8
0
 10
73.4963
 20
8.84882
 11
73.5987
 21
8.51114
  0
LINE
  8
0
 10
73.5987
 20
8.51114
 11
73.6333
 21
8.15999
  0
LINE
  8
0
 10
73.6333
 20
8.15999
 11
73.5987
 21
7.80884
  0
LINE
  8
0
 10
73.5987
 20
7.80884
 11
73.4963
 21
7.47116
  0
LINE
  8
0
 10
73.4963
 20
7.47116
 11
73.33
 21
7.15997
  0
LINE
  8
0
 10
73.33
 20
7.15997
 11
73.1061
 21
6.88721
  0
LINE
  8
0
 10
73.1061
 20
6.88721
 11
72.8333
 21
6.66335
  0
LINE
  8
0
 10
72.8333
 20
6.66335
 11
72.5222
 21
6.49701
  0
LINE
  8
0
 10
72.5222
 20
6.49701
 11
72.1845
 21
6.39458
  0
LINE
  8
0
 10
72.1845
 20
6.39458
 11
71.8333
 21
6.36
  0
LINE
  8
0
 10
71.8333
 20
6.36
 11
71.4822
 21
6.39458
  0
LINE
  8
0
 10
40.5655
 20
6.39458
 11
40.2278
 21
6.49701
  0
LINE
  8
0
 10
40.2278
 20
6.49701
 11
39.9166
 21
6.66335
  0
LINE
  8
0
 10
39.9166
 20
6.66335
 11
39.6439
 21
6.88721
  0
LINE
  8
0
 10
39.6439
 20
6.88721
 11
39.42
 21
7.15997
  0
LINE
  8
0
 10
39.42
 20
7.15997
 11
39.2537
 21
7.47116
  0
LINE
  8
0
 10
39.2537
 20
7.47116
 11
39.1512
 21
7.80884
  0
LINE
  8
0
 10
39.1512
 20
7.80884
 11
39.1167
 21
8.15999
  0
LINE
  8
0
 10
39.1167
 20
8.15999
 11
39.1512
 21
8.51114
  0
LINE
  8
0
 10
39.1512
 20
8.51114
 11
39.2537
 21
8.84882
  0
LINE
  8
0
 10
39.2537
 20
8.84882
 11
39.42
 21
9.16
  0
LINE
  8
0
 10
39.42
 20
9.16
 11
39.6439
 21
9.43277
  0
LINE
  8
0
 10
39.6439
 20
9.43277
 11
39.9166
 21
9.65663
  0
LINE
  8
0
 10
39.9166
 20
9.65663
 11
40.2278
 21
9.82297
  0
LINE
  8
0
 10
40.2278
 20
9.82297
 11
40.5655
 21
9.9254
  0
LINE
  8
0
 10
40.5655
 20
9.9254
 11
40.9167
 21
9.95998
  0
LINE
  8
0
 10
40.9167
 20
9.95998
 11
41.2678
 21
9.9254
  0
LINE
  8
0
 10
41.2678
 20
9.9254
 11
41.6055
 21
9.82297
  0
LINE
  8
0
 10
41.6055
 20
9.82297
 11
41.9167
 21
9.65663
  0
LINE
  8
0
 10
41.9167
 20
9.65663
 11
42.1894
 21
9.43277
  0
LINE
  8
0
 10
42.1894
 20
9.43277
 11
42.4133
 21
9.16
  0
LINE
  8
0
 10
42.4133
 20
9.16
 11
42.5796
 21
8.84882
  0
LINE
  8
0
 10
42.5796
 20
8.84882
 11
42.6821
 21
8.51114
  0
LINE
  8
0
 10
42.6821
 20
8.51114
 11
42.7166
 21
8.15999
  0
LINE
  8
0
 10
42.7166
 20
8.15999
 11
42.6821
 21
7.80884
  0
LINE
  8
0
 10
42.6821
 20
7.80884
 11
42.5796
 21
7.47116
  0
LINE
  8
0
 10
42.5796
 20
7.47116
 11
42.4133
 21
7.15997
  0
LINE
  8
0
 10
42.4133
 20
7.15997
 11
42.1894
 21
6.88721
  0
LINE
  8
0
 10
42.1894
 20
6.88721
 11
41.9167
 21
6.66335
  0
LINE
  8
0
 10
41.9167
 20
6.66335
 11
41.6055
 21
6.49701
  0
LINE
  8
0
 10
41.6055
 20
6.49701
 11
41.2678
 21
6.39458
  0
LINE
  8
0
 10
41.2678
 20
6.39458
 11
40.9167
 21
6.36
  0
LINE
  8
0
 10
40.9167
 20
6.36
 11
40.5655
 21
6.39458
  0
LINE
  8
0
 10
9.64885
 20
6.39458
 11
9.31117
 21
6.49701
  0
LINE
  8
0
 10
9.31117
 20
6.49701
 11
8.99998
 21
6.66335
  0
LINE
  8
0
 10
8.99998
 20
6.66335
 11
8.72722
 21
6.88721
  0
LINE
  8
0
 10
8.72722
 20
6.88721
 11
8.50336
 21
7.15997
  0
LINE
  8
0
 10
8.50336
 20
7.15997
 11
8.33702
 21
7.47116
  0
LINE
  8
0
 10
8.33702
 20
7.47116
 11
8.23459
 21
7.80884
  0
LINE
  8
0
 10
8.23459
 20
7.80884
 11
8.20001
 21
8.15999
  0
LINE
  8
0
 10
8.20001
 20
8.15999
 11
8.23459
 21
8.51114
  0
LINE
  8
0
 10
8.23459
 20
8.51114
 11
8.33702
 21
8.84882
  0
LINE
  8
0
 10
8.33702
 20
8.84882
 11
8.50336
 21
9.16
  0
LINE
  8
0
 10
8.50336
 20
9.16
 11
8.72722
 21
9.43277
  0
LINE
  8
0
 10
8.72722
 20
9.43277
 11
8.99998
 21
9.65663
  0
LINE
  8
0
 10
8.99998
 20
9.65663
 11
9.31117
 21
9.82297
  0
LINE
  8
0
 10
9.31117
 20
9.82297
 11
9.64885
 21
9.9254
  0
LINE
  8
0
 10
9.64885
 20
9.9254
 11
10
 21
9.95998
  0
LINE
  8
0
 10
10
 20
9.95998
 11
10.3512
 21
9.9254
  0
LINE
  8
0
 10
10.3512
 20
9.9254
 11
10.6888
 21
9.82297
  0
LINE
  8
0
 10
10.6888
 20
9.82297
 11
11
 21
9.65663
  0
LINE
  8
0
 10
11
 20
9.65663
 11
11.2728
 21
9.43277
  0
LINE
  8
0
 10
11.2728
 20
9.43277
 11
11.4966
 21
9.16
  0
LINE
  8
0
 10
11.4966
 20
9.16
 11
11.663
 21
8.84882
  0
LINE
  8
0
 10
11.663
 20
8.84882
 11
11.7654
 21
8.51114
  0
LINE
  8
0
 10
11.7654
 20
8.51114
 11
11.8
 21
8.15999
  0
LINE
  8
0
 10
11.8
 20
8.15999
 11
11.7654
 21
7.80884
  0
LINE
  8
0
 10
11.7654
 20
7.80884
 11
11.663
 21
7.47116
  0
LINE
  8
0
 10
11.663
 20
7.47116
 11
11.4966
 21
7.15997
  0
LINE
  8
0
 10
11.4966
 20
7.15997
 11
11.2728
 21
6.88721
  0
LINE
  8
0
 10
11.2728
 20
6.88721
 11
11
 21
6.66335
  0
LINE
  8
0
 10
11
 20
6.66335
 11
10.6888
 21
6.49701
  0
LINE
  8
0
 10
10.6888
 20
6.49701
 11
10.3512
 21
6.39458
  0
LINE
  8
0
 10
10.3512
 20
6.39458
 11
10
 21
6.36
  0
LINE
  8
0
 10
10
 20
6.36
 11
9.64885
 21
6.39458
  0
LINE
  8
0
 10
256.982
 20
6.39458
 11
256.645
 21
6.49701
  0
LINE
  8
0
 10
256.645
 20
6.49701
 11
256.333
 21
6.66335
  0
LINE
  8
0
 10
256.333
 20
6.66335
 11
256.061
 21
6.88721
  0
LINE
  8
0
 10
256.061
 20
6.88721
 11
255.837
 21
7.15997
  0
LINE
  8
0
 10
255.837
 20
7.15997
 11
255.67
 21
7.47116
  0
LINE
  8
0
 10
255.67
 20
7.47116
 11
255.568
 21
7.80884
  0
LINE
  8
0
 10
255.568
 20
7.80884
 11
255.533
 21
8.15999
  0
LINE
  8
0
 10
255.533
 20
8.15999
 11
255.568
 21
8.51114
  0
LINE
  8
0
 10
255.568
 20
8.51114
 11
255.67
 21
8.84882
  0
LINE
  8
0
 10
255.67
 20
8.84882
 11
255.837
 21
9.16
  0
LINE
  8
0
 10
255.837
 20
9.16
 11
256.061
 21
9.43277
  0
LINE
  8
0
 10
256.061
 20
9.43277
 11
256.333
 21
9.65663
  0
LINE
  8
0
 10
256.333
 20
9.65663
 11
256.645
 21
9.82297
  0
LINE
  8
0
 10
256.645
 20
9.82297
 11
256.982
 21
9.9254
  0
LINE
  8
0
 10
256.982
 20
9.9254
 11
257.333
 21
9.95998
  0
LINE
  8
0
 10
257.333
 20
9.95998
 11
257.684
 21
9.9254
  0
LINE
  8
0
 10
257.684
 20
9.9254
 11
258.022
 21
9.82297
  0
LINE
  8
0
 10
258.022
 20
9.82297
 11
258.333
 21
9.65663
  0
LINE
  8
0
 10
258.333
 20
9.65663
 11
258.606
 21
9.43277
  0
LINE
  8
0
 10
258.606
 20
9.43277
 11
258.83
 21
9.16
  0
LINE
  8
0
 10
258.83
 20
9.16
 11
258.996
 21
8.84882
  0
LINE
  8
0
 10
258.996
 20
8.84882
 11
259.099
 21
8.51114
  0
LINE
  8
0
 10
259.099
 20
8.51114
 11
259.133
 21
8.15999
  0
LINE
  8
0
 10
259.133
 20
8.15999
 11
259.099
 21
7.80884
  0
LINE
  8
0
 10
259.099
 20
7.80884
 11
258.996
 21
7.47116
  0
LINE
  8
0
 10
258.996
 20
7.47116
 11
258.83
 21
7.15997
  0
LINE
  8
0
 10
258.83
 20
7.15997
 11
258.606
 21
6.88721
  0
LINE
  8
0
 10
258.606
 20
6.88721
 11
258.333
 21
6.66335
  0
LINE
  8
0
 10
258.333
 20
6.66335
 11
258.022
 21
6.49701
  0
LINE
  8
0
 10
258.022
 20
6.49701
 11
257.684
 21
6.39458
  0
LINE
  8
0
 10
257.684
 20
6.39458
 11
257.333
 21
6.36
  0
LINE
  8
0
 10
257.333
 20
6.36
 11
256.982
 21
6.39458
  0
ENDSEC
  0
SECTION
  2
OBJECTS
  0
DICTIONARY
  0
ENDSEC
  0
EOF
