  0
SECTION
  2
BLOCKS
  0
ENDSEC
  0
SECTION
  2
ENTITIES
  0
LINE
  8
0
 10
325.001
 20
4
 11
325.734
 21
5.76776
  0
LINE
  8
0
 10
325.734
 20
5.76776
 11
327.501
 21
6.5
  0
LINE
  8
0
 10
327.501
 20
6.5
 11
337.001
 21
6.5
  0
LINE
  8
0
 10
337.001
 20
6.5
 11
337.001
 21
77
  0
LINE
  8
0
 10
337.001
 20
77
 11
336.944
 21
77.5853
  0
LINE
  8
0
 10
336.944
 20
77.5853
 11
336.773
 21
78.148
  0
LINE
  8
0
 10
336.773
 20
78.148
 11
336.496
 21
78.6667
  0
LINE
  8
0
 10
336.496
 20
78.6667
 11
336.123
 21
79.1213
  0
LINE
  8
0
 10
336.123
 20
79.1213
 11
335.668
 21
79.4944
  0
LINE
  8
0
 10
335.668
 20
79.4944
 11
335.15
 21
79.7716
  0
LINE
  8
0
 10
335.15
 20
79.7716
 11
334.587
 21
79.9424
  0
LINE
  8
0
 10
334.587
 20
79.9424
 11
334.001
 21
80
  0
LINE
  8
0
 10
334.001
 20
80
 11
3
 21
80
  0
LINE
  8
0
 10
3
 20
80
 11
2.41473
 21
79.9424
  0
LINE
  8
0
 10
2.41473
 20
79.9424
 11
1.85196
 21
79.7716
  0
LINE
  8
0
 10
1.85196
 20
79.7716
 11
1.3333
 21
79.4944
  0
LINE
  8
0
 10
1.3333
 20
79.4944
 11
0.878693
 21
79.1213
  0
LINE
  8
0
 10
0.878693
 20
79.1213
 11
0.5056
 21
78.6667
  0
LINE
  8
0
 10
0.5056
 20
78.6667
 11
0.228363
 21
78.148
  0
LINE
  8
0
 10
0.228363
 20
78.148
 11
0.0576477
 21
77.5853
  0
LINE
  8
0
 10
0.0576477
 20
77.5853
 11
0
 21
77
  0
LINE
  8
0
 10
0
 20
77
 11
0
 21
3
  0
LINE
  8
0
 10
0
 20
3
 11
0.0576477
 21
2.41473
  0
LINE
  8
0
 10
0.0576477
 20
2.41473
 11
0.228363
 21
1.85196
  0
LINE
  8
0
 10
0.228363
 20
1.85196
 11
0.5056
 21
1.3333
  0
LINE
  8
0
 10
0.5056
 20
1.3333
 11
0.878693
 21
0.878693
  0
LINE
  8
0
 10
0.878693
 20
0.878693
 11
1.3333
 21
0.5056
  0
LINE
  8
0
 10
1.3333
 20
0.5056
 11
1.85196
 21
0.228363
  0
LINE
  8
0
 10
1.85196
 20
0.228363
 11
2.41473
 21
0.0576477
  0
LINE
  8
0
 10
2.41473
 20
0.0576477
 11
3
 21
0
  0
LINE
  8
0
 10
3
 20
0
 11
325.001
 21
0
  0
LINE
  8
0
 10
325.001
 20
0
 11
325.001
 21
4
  0
LINE
  8
0
 10
15.6488
 20
70.0746
 11
15.3112
 21
70.177
  0
LINE
  8
0
 10
15.3112
 20
70.177
 11
15
 21
70.3434
  0
LINE
  8
0
 10
15
 20
70.3434
 11
14.7272
 21
70.5672
  0
LINE
  8
0
 10
14.7272
 20
70.5672
 11
14.5034
 21
70.84
  0
LINE
  8
0
 10
14.5034
 20
70.84
 11
14.337
 21
71.1512
  0
LINE
  8
0
 10
14.337
 20
71.1512
 11
14.2346
 21
71.4888
  0
LINE
  8
0
 10
14.2346
 20
71.4888
 11
14.2
 21
71.84
  0
LINE
  8
0
 10
14.2
 20
71.84
 11
14.2346
 21
72.1911
  0
LINE
  8
0
 10
14.2346
 20
72.1911
 11
14.337
 21
72.5288
  0
LINE
  8
0
 10
14.337
 20
72.5288
 11
14.5034
 21
72.84
  0
LINE
  8
0
 10
14.5034
 20
72.84
 11
14.7272
 21
73.1128
  0
LINE
  8
0
 10
14.7272
 20
73.1128
 11
15
 21
73.3366
  0
LINE
  8
0
 10
15
 20
73.3366
 11
15.3112
 21
73.503
  0
LINE
  8
0
 10
15.3112
 20
73.503
 11
15.6488
 21
73.6054
  0
LINE
  8
0
 10
15.6488
 20
73.6054
 11
16
 21
73.64
  0
LINE
  8
0
 10
16
 20
73.64
 11
16.3512
 21
73.6054
  0
LINE
  8
0
 10
16.3512
 20
73.6054
 11
16.6888
 21
73.503
  0
LINE
  8
0
 10
16.6888
 20
73.503
 11
17
 21
73.3366
  0
LINE
  8
0
 10
17
 20
73.3366
 11
17.2728
 21
73.1128
  0
LINE
  8
0
 10
17.2728
 20
73.1128
 11
17.4966
 21
72.84
  0
LINE
  8
0
 10
17.4966
 20
72.84
 11
17.663
 21
72.5288
  0
LINE
  8
0
 10
17.663
 20
72.5288
 11
17.7654
 21
72.1911
  0
LINE
  8
0
 10
17.7654
 20
72.1911
 11
17.8
 21
71.84
  0
LINE
  8
0
 10
17.8
 20
71.84
 11
17.7654
 21
71.4888
  0
LINE
  8
0
 10
17.7654
 20
71.4888
 11
17.663
 21
71.1512
  0
LINE
  8
0
 10
17.663
 20
71.1512
 11
17.4966
 21
70.84
  0
LINE
  8
0
 10
17.4966
 20
70.84
 11
17.2728
 21
70.5672
  0
LINE
  8
0
 10
17.2728
 20
70.5672
 11
17
 21
70.3434
  0
LINE
  8
0
 10
17
 20
70.3434
 11
16.6888
 21
70.177
  0
LINE
  8
0
 10
16.6888
 20
70.177
 11
16.3512
 21
70.0746
  0
LINE
  8
0
 10
16.3512
 20
70.0746
 11
16
 21
70.04
  0
LINE
  8
0
 10
16
 20
70.04
 11
15.6488
 21
70.0746
  0
LINE
  8
0
 10
48.4268
 20
70.0746
 11
48.0891
 21
70.177
  0
LINE
  8
0
 10
48.0891
 20
70.177
 11
47.7779
 21
70.3434
  0
LINE
  8
0
 10
47.7779
 20
70.3434
 11
47.5052
 21
70.5672
  0
LINE
  8
0
 10
47.5052
 20
70.5672
 11
47.2813
 21
70.84
  0
LINE
  8
0
 10
47.2813
 20
70.84
 11
47.115
 21
71.1512
  0
LINE
  8
0
 10
47.115
 20
71.1512
 11
47.0125
 21
71.4888
  0
LINE
  8
0
 10
47.0125
 20
71.4888
 11
46.978
 21
71.84
  0
LINE
  8
0
 10
46.978
 20
71.84
 11
47.0125
 21
72.1911
  0
LINE
  8
0
 10
47.0125
 20
72.1911
 11
47.115
 21
72.5288
  0
LINE
  8
0
 10
47.115
 20
72.5288
 11
47.2813
 21
72.84
  0
LINE
  8
0
 10
47.2813
 20
72.84
 11
47.5052
 21
73.1128
  0
LINE
  8
0
 10
47.5052
 20
73.1128
 11
47.7779
 21
73.3366
  0
LINE
  8
0
 10
47.7779
 20
73.3366
 11
48.0891
 21
73.503
  0
LINE
  8
0
 10
48.0891
 20
73.503
 11
48.4268
 21
73.6054
  0
LINE
  8
0
 10
48.4268
 20
73.6054
 11
48.7779
 21
73.64
  0
LINE
  8
0
 10
48.7779
 20
73.64
 11
49.1291
 21
73.6054
  0
LINE
  8
0
 10
49.1291
 20
73.6054
 11
49.4668
 21
73.503
  0
LINE
  8
0
 10
49.4668
 20
73.503
 11
49.778
 21
73.3366
  0
LINE
  8
0
 10
49.778
 20
73.3366
 11
50.0507
 21
73.1128
  0
LINE
  8
0
 10
50.0507
 20
73.1128
 11
50.2746
 21
72.84
  0
LINE
  8
0
 10
50.2746
 20
72.84
 11
50.4409
 21
72.5288
  0
LINE
  8
0
 10
50.4409
 20
72.5288
 11
50.5434
 21
72.1911
  0
LINE
  8
0
 10
50.5434
 20
72.1911
 11
50.5779
 21
71.84
  0
LINE
  8
0
 10
50.5779
 20
71.84
 11
50.5434
 21
71.4888
  0
LINE
  8
0
 10
50.5434
 20
71.4888
 11
50.4409
 21
71.1512
  0
LINE
  8
0
 10
50.4409
 20
71.1512
 11
50.2746
 21
70.84
  0
LINE
  8
0
 10
50.2746
 20
70.84
 11
50.0507
 21
70.5672
  0
LINE
  8
0
 10
50.0507
 20
70.5672
 11
49.778
 21
70.3434
  0
LINE
  8
0
 10
49.778
 20
70.3434
 11
49.4668
 21
70.177
  0
LINE
  8
0
 10
49.4668
 20
70.177
 11
49.1291
 21
70.0746
  0
LINE
  8
0
 10
49.1291
 20
70.0746
 11
48.7779
 21
70.04
  0
LINE
  8
0
 10
48.7779
 20
70.04
 11
48.4268
 21
70.0746
  0
LINE
  8
0
 10
81.2047
 20
70.0746
 11
80.8671
 21
70.177
  0
LINE
  8
0
 10
80.8671
 20
70.177
 11
80.5559
 21
70.3434
  0
LINE
  8
0
 10
80.5559
 20
70.3434
 11
80.2831
 21
70.5672
  0
LINE
  8
0
 10
80.2831
 20
70.5672
 11
80.0592
 21
70.84
  0
LINE
  8
0
 10
80.0592
 20
70.84
 11
79.8929
 21
71.1512
  0
LINE
  8
0
 10
79.8929
 20
71.1512
 11
79.7905
 21
71.4888
  0
LINE
  8
0
 10
79.7905
 20
71.4888
 11
79.7559
 21
71.84
  0
LINE
  8
0
 10
79.7559
 20
71.84
 11
79.7905
 21
72.1911
  0
LINE
  8
0
 10
79.7905
 20
72.1911
 11
79.8929
 21
72.5288
  0
LINE
  8
0
 10
79.8929
 20
72.5288
 11
80.0592
 21
72.84
  0
LINE
  8
0
 10
80.0592
 20
72.84
 11
80.2831
 21
73.1128
  0
LINE
  8
0
 10
80.2831
 20
73.1128
 11
80.5559
 21
73.3366
  0
LINE
  8
0
 10
80.5559
 20
73.3366
 11
80.8671
 21
73.503
  0
LINE
  8
0
 10
80.8671
 20
73.503
 11
81.2047
 21
73.6054
  0
LINE
  8
0
 10
81.2047
 20
73.6054
 11
81.5559
 21
73.64
  0
LINE
  8
0
 10
81.5559
 20
73.64
 11
81.907
 21
73.6054
  0
LINE
  8
0
 10
81.907
 20
73.6054
 11
82.2447
 21
73.503
  0
LINE
  8
0
 10
82.2447
 20
73.503
 11
82.5559
 21
73.3366
  0
LINE
  8
0
 10
82.5559
 20
73.3366
 11
82.8287
 21
73.1128
  0
LINE
  8
0
 10
82.8287
 20
73.1128
 11
83.0525
 21
72.84
  0
LINE
  8
0
 10
83.0525
 20
72.84
 11
83.2189
 21
72.5288
  0
LINE
  8
0
 10
83.2189
 20
72.5288
 11
83.3213
 21
72.1911
  0
LINE
  8
0
 10
83.3213
 20
72.1911
 11
83.3559
 21
71.84
  0
LINE
  8
0
 10
83.3559
 20
71.84
 11
83.3213
 21
71.4888
  0
LINE
  8
0
 10
83.3213
 20
71.4888
 11
83.2189
 21
71.1512
  0
LINE
  8
0
 10
83.2189
 20
71.1512
 11
83.0525
 21
70.84
  0
LINE
  8
0
 10
83.0525
 20
70.84
 11
82.8287
 21
70.5672
  0
LINE
  8
0
 10
82.8287
 20
70.5672
 11
82.5559
 21
70.3434
  0
LINE
  8
0
 10
82.5559
 20
70.3434
 11
82.2447
 21
70.177
  0
LINE
  8
0
 10
82.2447
 20
70.177
 11
81.907
 21
70.0746
  0
LINE
  8
0
 10
81.907
 20
70.0746
 11
81.5559
 21
70.04
  0
LINE
  8
0
 10
81.5559
 20
70.04
 11
81.2047
 21
70.0746
  0
LINE
  8
0
 10
113.983
 20
70.0746
 11
113.645
 21
70.177
  0
LINE
  8
0
 10
113.645
 20
70.177
 11
113.334
 21
70.3434
  0
LINE
  8
0
 10
113.334
 20
70.3434
 11
113.061
 21
70.5672
  0
LINE
  8
0
 10
113.061
 20
70.5672
 11
112.837
 21
70.84
  0
LINE
  8
0
 10
112.837
 20
70.84
 11
112.671
 21
71.1512
  0
LINE
  8
0
 10
112.671
 20
71.1512
 11
112.568
 21
71.4888
  0
LINE
  8
0
 10
112.568
 20
71.4888
 11
112.534
 21
71.84
  0
LINE
  8
0
 10
112.534
 20
71.84
 11
112.568
 21
72.1911
  0
LINE
  8
0
 10
112.568
 20
72.1911
 11
112.671
 21
72.5288
  0
LINE
  8
0
 10
112.671
 20
72.5288
 11
112.837
 21
72.84
  0
LINE
  8
0
 10
112.837
 20
72.84
 11
113.061
 21
73.1128
  0
LINE
  8
0
 10
113.061
 20
73.1128
 11
113.334
 21
73.3366
  0
LINE
  8
0
 10
113.334
 20
73.3366
 11
113.645
 21
73.503
  0
LINE
  8
0
 10
113.645
 20
73.503
 11
113.983
 21
73.6054
  0
LINE
  8
0
 10
113.983
 20
73.6054
 11
114.334
 21
73.64
  0
LINE
  8
0
 10
114.334
 20
73.64
 11
114.685
 21
73.6054
  0
LINE
  8
0
 10
114.685
 20
73.6054
 11
115.023
 21
73.503
  0
LINE
  8
0
 10
115.023
 20
73.503
 11
115.334
 21
73.3366
  0
LINE
  8
0
 10
115.334
 20
73.3366
 11
115.607
 21
73.1128
  0
LINE
  8
0
 10
115.607
 20
73.1128
 11
115.83
 21
72.84
  0
LINE
  8
0
 10
115.83
 20
72.84
 11
115.997
 21
72.5288
  0
LINE
  8
0
 10
115.997
 20
72.5288
 11
116.099
 21
72.1911
  0
LINE
  8
0
 10
116.099
 20
72.1911
 11
116.134
 21
71.84
  0
LINE
  8
0
 10
116.134
 20
71.84
 11
116.099
 21
71.4888
  0
LINE
  8
0
 10
116.099
 20
71.4888
 11
115.997
 21
71.1512
  0
LINE
  8
0
 10
115.997
 20
71.1512
 11
115.83
 21
70.84
  0
LINE
  8
0
 10
115.83
 20
70.84
 11
115.607
 21
70.5672
  0
LINE
  8
0
 10
115.607
 20
70.5672
 11
115.334
 21
70.3434
  0
LINE
  8
0
 10
115.334
 20
70.3434
 11
115.023
 21
70.177
  0
LINE
  8
0
 10
115.023
 20
70.177
 11
114.685
 21
70.0746
  0
LINE
  8
0
 10
114.685
 20
70.0746
 11
114.334
 21
70.04
  0
LINE
  8
0
 10
114.334
 20
70.04
 11
113.983
 21
70.0746
  0
LINE
  8
0
 10
146.761
 20
70.0746
 11
146.423
 21
70.177
  0
LINE
  8
0
 10
146.423
 20
70.177
 11
146.112
 21
70.3434
  0
LINE
  8
0
 10
146.112
 20
70.3434
 11
145.839
 21
70.5672
  0
LINE
  8
0
 10
145.839
 20
70.5672
 11
145.615
 21
70.84
  0
LINE
  8
0
 10
145.615
 20
70.84
 11
145.449
 21
71.1512
  0
LINE
  8
0
 10
145.449
 20
71.1512
 11
145.346
 21
71.4888
  0
LINE
  8
0
 10
145.346
 20
71.4888
 11
145.312
 21
71.84
  0
LINE
  8
0
 10
145.312
 20
71.84
 11
145.346
 21
72.1911
  0
LINE
  8
0
 10
145.346
 20
72.1911
 11
145.449
 21
72.5288
  0
LINE
  8
0
 10
145.449
 20
72.5288
 11
145.615
 21
72.84
  0
LINE
  8
0
 10
145.615
 20
72.84
 11
145.839
 21
73.1128
  0
LINE
  8
0
 10
145.839
 20
73.1128
 11
146.112
 21
73.3366
  0
LINE
  8
0
 10
146.112
 20
73.3366
 11
146.423
 21
73.503
  0
LINE
  8
0
 10
146.423
 20
73.503
 11
146.761
 21
73.6054
  0
LINE
  8
0
 10
146.761
 20
73.6054
 11
147.112
 21
73.64
  0
LINE
  8
0
 10
147.112
 20
73.64
 11
147.463
 21
73.6054
  0
LINE
  8
0
 10
147.463
 20
73.6054
 11
147.801
 21
73.503
  0
LINE
  8
0
 10
147.801
 20
73.503
 11
148.112
 21
73.3366
  0
LINE
  8
0
 10
148.112
 20
73.3366
 11
148.385
 21
73.1128
  0
LINE
  8
0
 10
148.385
 20
73.1128
 11
148.608
 21
72.84
  0
LINE
  8
0
 10
148.608
 20
72.84
 11
148.775
 21
72.5288
  0
LINE
  8
0
 10
148.775
 20
72.5288
 11
148.877
 21
72.1911
  0
LINE
  8
0
 10
148.877
 20
72.1911
 11
148.912
 21
71.84
  0
LINE
  8
0
 10
148.912
 20
71.84
 11
148.877
 21
71.4888
  0
LINE
  8
0
 10
148.877
 20
71.4888
 11
148.775
 21
71.1512
  0
LINE
  8
0
 10
148.775
 20
71.1512
 11
148.608
 21
70.84
  0
LINE
  8
0
 10
148.608
 20
70.84
 11
148.385
 21
70.5672
  0
LINE
  8
0
 10
148.385
 20
70.5672
 11
148.112
 21
70.3434
  0
LINE
  8
0
 10
148.112
 20
70.3434
 11
147.801
 21
70.177
  0
LINE
  8
0
 10
147.801
 20
70.177
 11
147.463
 21
70.0746
  0
LINE
  8
0
 10
147.463
 20
70.0746
 11
147.112
 21
70.04
  0
LINE
  8
0
 10
147.112
 20
70.04
 11
146.761
 21
70.0746
  0
LINE
  8
0
 10
179.539
 20
70.0746
 11
179.201
 21
70.177
  0
LINE
  8
0
 10
179.201
 20
70.177
 11
178.89
 21
70.3434
  0
LINE
  8
0
 10
178.89
 20
70.3434
 11
178.617
 21
70.5672
  0
LINE
  8
0
 10
178.617
 20
70.5672
 11
178.393
 21
70.84
  0
LINE
  8
0
 10
178.393
 20
70.84
 11
178.227
 21
71.1512
  0
LINE
  8
0
 10
178.227
 20
71.1512
 11
178.124
 21
71.4888
  0
LINE
  8
0
 10
178.124
 20
71.4888
 11
178.09
 21
71.84
  0
LINE
  8
0
 10
178.09
 20
71.84
 11
178.124
 21
72.1911
  0
LINE
  8
0
 10
178.124
 20
72.1911
 11
178.227
 21
72.5288
  0
LINE
  8
0
 10
178.227
 20
72.5288
 11
178.393
 21
72.84
  0
LINE
  8
0
 10
178.393
 20
72.84
 11
178.617
 21
73.1128
  0
LINE
  8
0
 10
178.617
 20
73.1128
 11
178.89
 21
73.3366
  0
LINE
  8
0
 10
178.89
 20
73.3366
 11
179.201
 21
73.503
  0
LINE
  8
0
 10
179.201
 20
73.503
 11
179.539
 21
73.6054
  0
LINE
  8
0
 10
179.539
 20
73.6054
 11
179.89
 21
73.64
  0
LINE
  8
0
 10
179.89
 20
73.64
 11
180.241
 21
73.6054
  0
LINE
  8
0
 10
180.241
 20
73.6054
 11
180.579
 21
73.503
  0
LINE
  8
0
 10
180.579
 20
73.503
 11
180.89
 21
73.3366
  0
LINE
  8
0
 10
180.89
 20
73.3366
 11
181.162
 21
73.1128
  0
LINE
  8
0
 10
181.162
 20
73.1128
 11
181.386
 21
72.84
  0
LINE
  8
0
 10
181.386
 20
72.84
 11
181.553
 21
72.5288
  0
LINE
  8
0
 10
181.553
 20
72.5288
 11
181.655
 21
72.1911
  0
LINE
  8
0
 10
181.655
 20
72.1911
 11
181.69
 21
71.84
  0
LINE
  8
0
 10
181.69
 20
71.84
 11
181.655
 21
71.4888
  0
LINE
  8
0
 10
181.655
 20
71.4888
 11
181.553
 21
71.1512
  0
LINE
  8
0
 10
181.553
 20
71.1512
 11
181.386
 21
70.84
  0
LINE
  8
0
 10
181.386
 20
70.84
 11
181.162
 21
70.5672
  0
LINE
  8
0
 10
181.162
 20
70.5672
 11
180.89
 21
70.3434
  0
LINE
  8
0
 10
180.89
 20
70.3434
 11
180.579
 21
70.177
  0
LINE
  8
0
 10
180.579
 20
70.177
 11
180.241
 21
70.0746
  0
LINE
  8
0
 10
180.241
 20
70.0746
 11
179.89
 21
70.04
  0
LINE
  8
0
 10
179.89
 20
70.04
 11
179.539
 21
70.0746
  0
LINE
  8
0
 10
212.316
 20
70.0746
 11
211.979
 21
70.177
  0
LINE
  8
0
 10
211.979
 20
70.177
 11
211.668
 21
70.3434
  0
LINE
  8
0
 10
211.668
 20
70.3434
 11
211.395
 21
70.5672
  0
LINE
  8
0
 10
211.395
 20
70.5672
 11
211.171
 21
70.84
  0
LINE
  8
0
 10
211.171
 20
70.84
 11
211.005
 21
71.1512
  0
LINE
  8
0
 10
211.005
 20
71.1512
 11
210.902
 21
71.4888
  0
LINE
  8
0
 10
210.902
 20
71.4888
 11
210.868
 21
71.84
  0
LINE
  8
0
 10
210.868
 20
71.84
 11
210.902
 21
72.1911
  0
LINE
  8
0
 10
210.902
 20
72.1911
 11
211.005
 21
72.5288
  0
LINE
  8
0
 10
211.005
 20
72.5288
 11
211.171
 21
72.84
  0
LINE
  8
0
 10
211.171
 20
72.84
 11
211.395
 21
73.1128
  0
LINE
  8
0
 10
211.395
 20
73.1128
 11
211.668
 21
73.3366
  0
LINE
  8
0
 10
211.668
 20
73.3366
 11
211.979
 21
73.503
  0
LINE
  8
0
 10
211.979
 20
73.503
 11
212.316
 21
73.6054
  0
LINE
  8
0
 10
212.316
 20
73.6054
 11
212.668
 21
73.64
  0
LINE
  8
0
 10
212.668
 20
73.64
 11
213.019
 21
73.6054
  0
LINE
  8
0
 10
213.019
 20
73.6054
 11
213.356
 21
73.503
  0
LINE
  8
0
 10
213.356
 20
73.503
 11
213.668
 21
73.3366
  0
LINE
  8
0
 10
213.668
 20
73.3366
 11
213.94
 21
73.1128
  0
LINE
  8
0
 10
213.94
 20
73.1128
 11
214.164
 21
72.84
  0
LINE
  8
0
 10
214.164
 20
72.84
 11
214.331
 21
72.5288
  0
LINE
  8
0
 10
214.331
 20
72.5288
 11
214.433
 21
72.1911
  0
LINE
  8
0
 10
214.433
 20
72.1911
 11
214.468
 21
71.84
  0
LINE
  8
0
 10
214.468
 20
71.84
 11
214.433
 21
71.4888
  0
LINE
  8
0
 10
214.433
 20
71.4888
 11
214.331
 21
71.1512
  0
LINE
  8
0
 10
214.331
 20
71.1512
 11
214.164
 21
70.84
  0
LINE
  8
0
 10
214.164
 20
70.84
 11
213.94
 21
70.5672
  0
LINE
  8
0
 10
213.94
 20
70.5672
 11
213.668
 21
70.3434
  0
LINE
  8
0
 10
213.668
 20
70.3434
 11
213.356
 21
70.177
  0
LINE
  8
0
 10
213.356
 20
70.177
 11
213.019
 21
70.0746
  0
LINE
  8
0
 10
213.019
 20
70.0746
 11
212.668
 21
70.04
  0
LINE
  8
0
 10
212.668
 20
70.04
 11
212.316
 21
70.0746
  0
LINE
  8
0
 10
245.094
 20
70.0746
 11
244.757
 21
70.177
  0
LINE
  8
0
 10
244.757
 20
70.177
 11
244.446
 21
70.3434
  0
LINE
  8
0
 10
244.446
 20
70.3434
 11
244.173
 21
70.5672
  0
LINE
  8
0
 10
244.173
 20
70.5672
 11
243.949
 21
70.84
  0
LINE
  8
0
 10
243.949
 20
70.84
 11
243.783
 21
71.1512
  0
LINE
  8
0
 10
243.783
 20
71.1512
 11
243.68
 21
71.4888
  0
LINE
  8
0
 10
243.68
 20
71.4888
 11
243.646
 21
71.84
  0
LINE
  8
0
 10
243.646
 20
71.84
 11
243.68
 21
72.1911
  0
LINE
  8
0
 10
243.68
 20
72.1911
 11
243.783
 21
72.5288
  0
LINE
  8
0
 10
243.783
 20
72.5288
 11
243.949
 21
72.84
  0
LINE
  8
0
 10
243.949
 20
72.84
 11
244.173
 21
73.1128
  0
LINE
  8
0
 10
244.173
 20
73.1128
 11
244.446
 21
73.3366
  0
LINE
  8
0
 10
244.446
 20
73.3366
 11
244.757
 21
73.503
  0
LINE
  8
0
 10
244.757
 20
73.503
 11
245.094
 21
73.6054
  0
LINE
  8
0
 10
245.094
 20
73.6054
 11
245.446
 21
73.64
  0
LINE
  8
0
 10
245.446
 20
73.64
 11
245.797
 21
73.6054
  0
LINE
  8
0
 10
245.797
 20
73.6054
 11
246.134
 21
73.503
  0
LINE
  8
0
 10
246.134
 20
73.503
 11
246.446
 21
73.3366
  0
LINE
  8
0
 10
246.446
 20
73.3366
 11
246.718
 21
73.1128
  0
LINE
  8
0
 10
246.718
 20
73.1128
 11
246.942
 21
72.84
  0
LINE
  8
0
 10
246.942
 20
72.84
 11
247.109
 21
72.5288
  0
LINE
  8
0
 10
247.109
 20
72.5288
 11
247.211
 21
72.1911
  0
LINE
  8
0
 10
247.211
 20
72.1911
 11
247.246
 21
71.84
  0
LINE
  8
0
 10
247.246
 20
71.84
 11
247.211
 21
71.4888
  0
LINE
  8
0
 10
247.211
 20
71.4888
 11
247.109
 21
71.1512
  0
LINE
  8
0
 10
247.109
 20
71.1512
 11
246.942
 21
70.84
  0
LINE
  8
0
 10
246.942
 20
70.84
 11
246.718
 21
70.5672
  0
LINE
  8
0
 10
246.718
 20
70.5672
 11
246.446
 21
70.3434
  0
LINE
  8
0
 10
246.446
 20
70.3434
 11
246.134
 21
70.177
  0
LINE
  8
0
 10
246.134
 20
70.177
 11
245.797
 21
70.0746
  0
LINE
  8
0
 10
245.797
 20
70.0746
 11
245.446
 21
70.04
  0
LINE
  8
0
 10
245.446
 20
70.04
 11
245.094
 21
70.0746
  0
LINE
  8
0
 10
277.872
 20
70.0746
 11
277.535
 21
70.177
  0
LINE
  8
0
 10
277.535
 20
70.177
 11
277.224
 21
70.3434
  0
LINE
  8
0
 10
277.224
 20
70.3434
 11
276.951
 21
70.5672
  0
LINE
  8
0
 10
276.951
 20
70.5672
 11
276.727
 21
70.84
  0
LINE
  8
0
 10
276.727
 20
70.84
 11
276.561
 21
71.1512
  0
LINE
  8
0
 10
276.561
 20
71.1512
 11
276.458
 21
71.4888
  0
LINE
  8
0
 10
276.458
 20
71.4888
 11
276.424
 21
71.84
  0
LINE
  8
0
 10
276.424
 20
71.84
 11
276.458
 21
72.1911
  0
LINE
  8
0
 10
276.458
 20
72.1911
 11
276.561
 21
72.5288
  0
LINE
  8
0
 10
276.561
 20
72.5288
 11
276.727
 21
72.84
  0
LINE
  8
0
 10
276.727
 20
72.84
 11
276.951
 21
73.1128
  0
LINE
  8
0
 10
276.951
 20
73.1128
 11
277.224
 21
73.3366
  0
LINE
  8
0
 10
277.224
 20
73.3366
 11
277.535
 21
73.503
  0
LINE
  8
0
 10
277.535
 20
73.503
 11
277.872
 21
73.6054
  0
LINE
  8
0
 10
277.872
 20
73.6054
 11
278.224
 21
73.64
  0
LINE
  8
0
 10
278.224
 20
73.64
 11
278.575
 21
73.6054
  0
LINE
  8
0
 10
278.575
 20
73.6054
 11
278.912
 21
73.503
  0
LINE
  8
0
 10
278.912
 20
73.503
 11
279.224
 21
73.3366
  0
LINE
  8
0
 10
279.224
 20
73.3366
 11
279.496
 21
73.1128
  0
LINE
  8
0
 10
279.496
 20
73.1128
 11
279.72
 21
72.84
  0
LINE
  8
0
 10
279.72
 20
72.84
 11
279.887
 21
72.5288
  0
LINE
  8
0
 10
279.887
 20
72.5288
 11
279.989
 21
72.1911
  0
LINE
  8
0
 10
279.989
 20
72.1911
 11
280.024
 21
71.84
  0
LINE
  8
0
 10
280.024
 20
71.84
 11
279.989
 21
71.4888
  0
LINE
  8
0
 10
279.989
 20
71.4888
 11
279.887
 21
71.1512
  0
LINE
  8
0
 10
279.887
 20
71.1512
 11
279.72
 21
70.84
  0
LINE
  8
0
 10
279.72
 20
70.84
 11
279.496
 21
70.5672
  0
LINE
  8
0
 10
279.496
 20
70.5672
 11
279.224
 21
70.3434
  0
LINE
  8
0
 10
279.224
 20
70.3434
 11
278.912
 21
70.177
  0
LINE
  8
0
 10
278.912
 20
70.177
 11
278.575
 21
70.0746
  0
LINE
  8
0
 10
278.575
 20
70.0746
 11
278.224
 21
70.04
  0
LINE
  8
0
 10
278.224
 20
70.04
 11
277.872
 21
70.0746
  0
LINE
  8
0
 10
310.65
 20
70.0746
 11
310.313
 21
70.177
  0
LINE
  8
0
 10
310.313
 20
70.177
 11
310.001
 21
70.3434
  0
LINE
  8
0
 10
310.001
 20
70.3434
 11
309.729
 21
70.5672
  0
LINE
  8
0
 10
309.729
 20
70.5672
 11
309.505
 21
70.84
  0
LINE
  8
0
 10
309.505
 20
70.84
 11
309.339
 21
71.1512
  0
LINE
  8
0
 10
309.339
 20
71.1512
 11
309.236
 21
71.4888
  0
LINE
  8
0
 10
309.236
 20
71.4888
 11
309.201
 21
71.84
  0
LINE
  8
0
 10
309.201
 20
71.84
 11
309.236
 21
72.1911
  0
LINE
  8
0
 10
309.236
 20
72.1911
 11
309.339
 21
72.5288
  0
LINE
  8
0
 10
309.339
 20
72.5288
 11
309.505
 21
72.84
  0
LINE
  8
0
 10
309.505
 20
72.84
 11
309.729
 21
73.1128
  0
LINE
  8
0
 10
309.729
 20
73.1128
 11
310.001
 21
73.3366
  0
LINE
  8
0
 10
310.001
 20
73.3366
 11
310.313
 21
73.503
  0
LINE
  8
0
 10
310.313
 20
73.503
 11
310.65
 21
73.6054
  0
LINE
  8
0
 10
310.65
 20
73.6054
 11
311.001
 21
73.64
  0
LINE
  8
0
 10
311.001
 20
73.64
 11
311.353
 21
73.6054
  0
LINE
  8
0
 10
311.353
 20
73.6054
 11
311.69
 21
73.503
  0
LINE
  8
0
 10
311.69
 20
73.503
 11
312.001
 21
73.3366
  0
LINE
  8
0
 10
312.001
 20
73.3366
 11
312.274
 21
73.1128
  0
LINE
  8
0
 10
312.274
 20
73.1128
 11
312.498
 21
72.84
  0
LINE
  8
0
 10
312.498
 20
72.84
 11
312.664
 21
72.5288
  0
LINE
  8
0
 10
312.664
 20
72.5288
 11
312.767
 21
72.1911
  0
LINE
  8
0
 10
312.767
 20
72.1911
 11
312.801
 21
71.84
  0
LINE
  8
0
 10
312.801
 20
71.84
 11
312.767
 21
71.4888
  0
LINE
  8
0
 10
312.767
 20
71.4888
 11
312.664
 21
71.1512
  0
LINE
  8
0
 10
312.664
 20
71.1512
 11
312.498
 21
70.84
  0
LINE
  8
0
 10
312.498
 20
70.84
 11
312.274
 21
70.5672
  0
LINE
  8
0
 10
312.274
 20
70.5672
 11
312.001
 21
70.3434
  0
LINE
  8
0
 10
312.001
 20
70.3434
 11
311.69
 21
70.177
  0
LINE
  8
0
 10
311.69
 20
70.177
 11
311.353
 21
70.0746
  0
LINE
  8
0
 10
311.353
 20
70.0746
 11
311.001
 21
70.04
  0
LINE
  8
0
 10
311.001
 20
70.04
 11
310.65
 21
70.0746
  0
LINE
  8
0
 10
35.6431
 20
62.5
 11
35.6431
 21
66.5
  0
LINE
  8
0
 10
35.6431
 20
66.5
 11
60.6431
 21
66.5
  0
LINE
  8
0
 10
60.6431
 20
66.5
 11
60.6431
 21
62.5
  0
LINE
  8
0
 10
60.6431
 20
62.5
 11
35.6431
 21
62.5
  0
LINE
  8
0
 10
156.001
 20
62.5
 11
156.001
 21
66.5
  0
LINE
  8
0
 10
156.001
 20
66.5
 11
181.001
 21
66.5
  0
LINE
  8
0
 10
181.001
 20
66.5
 11
181.001
 21
62.5
  0
LINE
  8
0
 10
181.001
 20
62.5
 11
156.001
 21
62.5
  0
LINE
  8
0
 10
276.358
 20
62.5
 11
276.358
 21
66.5
  0
LINE
  8
0
 10
276.358
 20
66.5
 11
301.358
 21
66.5
  0
LINE
  8
0
 10
301.358
 20
66.5
 11
301.358
 21
62.5
  0
LINE
  8
0
 10
301.358
 20
62.5
 11
276.358
 21
62.5
  0
LINE
  8
0
 10
35.6431
 20
13.5
 11
35.6431
 21
17.5
  0
LINE
  8
0
 10
35.6431
 20
17.5
 11
60.6431
 21
17.5
  0
LINE
  8
0
 10
60.6431
 20
17.5
 11
60.6431
 21
13.5
  0
LINE
  8
0
 10
60.6431
 20
13.5
 11
35.6431
 21
13.5
  0
LINE
  8
0
 10
156.001
 20
13.5
 11
156.001
 21
17.5
  0
LINE
  8
0
 10
156.001
 20
17.5
 11
181.001
 21
17.5
  0
LINE
  8
0
 10
181.001
 20
17.5
 11
181.001
 21
13.5
  0
LINE
  8
0
 10
181.001
 20
13.5
 11
156.001
 21
13.5
  0
LINE
  8
0
 10
276.358
 20
13.5
 11
276.358
 21
17.5
  0
LINE
  8
0
 10
276.358
 20
17.5
 11
301.358
 21
17.5
  0
LINE
  8
0
 10
301.358
 20
17.5
 11
301.358
 21
13.5
  0
LINE
  8
0
 10
301.358
 20
13.5
 11
276.358
 21
13.5
  0
LINE
  8
0
 10
327.001
 20
9
 11
327.001
 21
12
  0
LINE
  8
0
 10
327.001
 20
12
 11
331.001
 21
12
  0
LINE
  8
0
 10
331.001
 20
12
 11
331.001
 21
9
  0
LINE
  8
0
 10
331.001
 20
9
 11
327.001
 21
9
  0
LINE
  8
0
 10
11.6488
 20
6.39458
 11
11.3112
 21
6.49701
  0
LINE
  8
0
 10
11.3112
 20
6.49701
 11
11
 21
6.66335
  0
LINE
  8
0
 10
11
 20
6.66335
 11
10.7272
 21
6.88721
  0
LINE
  8
0
 10
10.7272
 20
6.88721
 11
10.5034
 21
7.15997
  0
LINE
  8
0
 10
10.5034
 20
7.15997
 11
10.337
 21
7.47116
  0
LINE
  8
0
 10
10.337
 20
7.47116
 11
10.2346
 21
7.80884
  0
LINE
  8
0
 10
10.2346
 20
7.80884
 11
10.2
 21
8.15999
  0
LINE
  8
0
 10
10.2
 20
8.15999
 11
10.2346
 21
8.51114
  0
LINE
  8
0
 10
10.2346
 20
8.51114
 11
10.337
 21
8.84882
  0
LINE
  8
0
 10
10.337
 20
8.84882
 11
10.5034
 21
9.16
  0
LINE
  8
0
 10
10.5034
 20
9.16
 11
10.7272
 21
9.43277
  0
LINE
  8
0
 10
10.7272
 20
9.43277
 11
11
 21
9.65663
  0
LINE
  8
0
 10
11
 20
9.65663
 11
11.3112
 21
9.82297
  0
LINE
  8
0
 10
11.3112
 20
9.82297
 11
11.6488
 21
9.9254
  0
LINE
  8
0
 10
11.6488
 20
9.9254
 11
12
 21
9.95998
  0
LINE
  8
0
 10
12
 20
9.95998
 11
12.3512
 21
9.9254
  0
LINE
  8
0
 10
12.3512
 20
9.9254
 11
12.6888
 21
9.82297
  0
LINE
  8
0
 10
12.6888
 20
9.82297
 11
13
 21
9.65663
  0
LINE
  8
0
 10
13
 20
9.65663
 11
13.2728
 21
9.43277
  0
LINE
  8
0
 10
13.2728
 20
9.43277
 11
13.4966
 21
9.16
  0
LINE
  8
0
 10
13.4966
 20
9.16
 11
13.663
 21
8.84882
  0
LINE
  8
0
 10
13.663
 20
8.84882
 11
13.7654
 21
8.51114
  0
LINE
  8
0
 10
13.7654
 20
8.51114
 11
13.8
 21
8.15999
  0
LINE
  8
0
 10
13.8
 20
8.15999
 11
13.7654
 21
7.80884
  0
LINE
  8
0
 10
13.7654
 20
7.80884
 11
13.663
 21
7.47116
  0
LINE
  8
0
 10
13.663
 20
7.47116
 11
13.4966
 21
7.15997
  0
LINE
  8
0
 10
13.4966
 20
7.15997
 11
13.2728
 21
6.88721
  0
LINE
  8
0
 10
13.2728
 20
6.88721
 11
13
 21
6.66335
  0
LINE
  8
0
 10
13
 20
6.66335
 11
12.6888
 21
6.49701
  0
LINE
  8
0
 10
12.6888
 20
6.49701
 11
12.3512
 21
6.39458
  0
LINE
  8
0
 10
12.3512
 20
6.39458
 11
12
 21
6.36
  0
LINE
  8
0
 10
12
 20
6.36
 11
11.6488
 21
6.39458
  0
LINE
  8
0
 10
45.3157
 20
6.39458
 11
44.978
 21
6.49701
  0
LINE
  8
0
 10
44.978
 20
6.49701
 11
44.6668
 21
6.66335
  0
LINE
  8
0
 10
44.6668
 20
6.66335
 11
44.394
 21
6.88721
  0
LINE
  8
0
 10
44.394
 20
6.88721
 11
44.1702
 21
7.15997
  0
LINE
  8
0
 10
44.1702
 20
7.15997
 11
44.0038
 21
7.47116
  0
LINE
  8
0
 10
44.0038
 20
7.47116
 11
43.9014
 21
7.80884
  0
LINE
  8
0
 10
43.9014
 20
7.80884
 11
43.8668
 21
8.15999
  0
LINE
  8
0
 10
43.8668
 20
8.15999
 11
43.9014
 21
8.51114
  0
LINE
  8
0
 10
43.9014
 20
8.51114
 11
44.0038
 21
8.84882
  0
LINE
  8
0
 10
44.0038
 20
8.84882
 11
44.1702
 21
9.16
  0
LINE
  8
0
 10
44.1702
 20
9.16
 11
44.394
 21
9.43277
  0
LINE
  8
0
 10
44.394
 20
9.43277
 11
44.6668
 21
9.65663
  0
LINE
  8
0
 10
44.6668
 20
9.65663
 11
44.978
 21
9.82297
  0
LINE
  8
0
 10
44.978
 20
9.82297
 11
45.3157
 21
9.9254
  0
LINE
  8
0
 10
45.3157
 20
9.9254
 11
45.6668
 21
9.95998
  0
LINE
  8
0
 10
45.6668
 20
9.95998
 11
46.018
 21
9.9254
  0
LINE
  8
0
 10
46.018
 20
9.9254
 11
46.3557
 21
9.82297
  0
LINE
  8
0
 10
46.3557
 20
9.82297
 11
46.6668
 21
9.65663
  0
LINE
  8
0
 10
46.6668
 20
9.65663
 11
46.9396
 21
9.43277
  0
LINE
  8
0
 10
46.9396
 20
9.43277
 11
47.1635
 21
9.16
  0
LINE
  8
0
 10
47.1635
 20
9.16
 11
47.3298
 21
8.84882
  0
LINE
  8
0
 10
47.3298
 20
8.84882
 11
47.4322
 21
8.51114
  0
LINE
  8
0
 10
47.4322
 20
8.51114
 11
47.4668
 21
8.15999
  0
LINE
  8
0
 10
47.4668
 20
8.15999
 11
47.4322
 21
7.80884
  0
LINE
  8
0
 10
47.4322
 20
7.80884
 11
47.3298
 21
7.47116
  0
LINE
  8
0
 10
47.3298
 20
7.47116
 11
47.1635
 21
7.15997
  0
LINE
  8
0
 10
47.1635
 20
7.15997
 11
46.9396
 21
6.88721
  0
LINE
  8
0
 10
46.9396
 20
6.88721
 11
46.6668
 21
6.66335
  0
LINE
  8
0
 10
46.6668
 20
6.66335
 11
46.3557
 21
6.49701
  0
LINE
  8
0
 10
46.3557
 20
6.49701
 11
46.018
 21
6.39458
  0
LINE
  8
0
 10
46.018
 20
6.39458
 11
45.6668
 21
6.36
  0
LINE
  8
0
 10
45.6668
 20
6.36
 11
45.3157
 21
6.39458
  0
LINE
  8
0
 10
78.9825
 20
6.39458
 11
78.6448
 21
6.49701
  0
LINE
  8
0
 10
78.6448
 20
6.49701
 11
78.3336
 21
6.66335
  0
LINE
  8
0
 10
78.3336
 20
6.66335
 11
78.0609
 21
6.88721
  0
LINE
  8
0
 10
78.0609
 20
6.88721
 11
77.837
 21
7.15997
  0
LINE
  8
0
 10
77.837
 20
7.15997
 11
77.6707
 21
7.47116
  0
LINE
  8
0
 10
77.6707
 20
7.47116
 11
77.5682
 21
7.80884
  0
LINE
  8
0
 10
77.5682
 20
7.80884
 11
77.5337
 21
8.15999
  0
LINE
  8
0
 10
77.5337
 20
8.15999
 11
77.5682
 21
8.51114
  0
LINE
  8
0
 10
77.5682
 20
8.51114
 11
77.6707
 21
8.84882
  0
LINE
  8
0
 10
77.6707
 20
8.84882
 11
77.837
 21
9.16
  0
LINE
  8
0
 10
77.837
 20
9.16
 11
78.0609
 21
9.43277
  0
LINE
  8
0
 10
78.0609
 20
9.43277
 11
78.3336
 21
9.65663
  0
LINE
  8
0
 10
78.3336
 20
9.65663
 11
78.6448
 21
9.82297
  0
LINE
  8
0
 10
78.6448
 20
9.82297
 11
78.9825
 21
9.9254
  0
LINE
  8
0
 10
78.9825
 20
9.9254
 11
79.3336
 21
9.95998
  0
LINE
  8
0
 10
79.3336
 20
9.95998
 11
79.6848
 21
9.9254
  0
LINE
  8
0
 10
79.6848
 20
9.9254
 11
80.0225
 21
9.82297
  0
LINE
  8
0
 10
80.0225
 20
9.82297
 11
80.3337
 21
9.65663
  0
LINE
  8
0
 10
80.3337
 20
9.65663
 11
80.6064
 21
9.43277
  0
LINE
  8
0
 10
80.6064
 20
9.43277
 11
80.8303
 21
9.16
  0
LINE
  8
0
 10
80.8303
 20
9.16
 11
80.9966
 21
8.84882
  0
LINE
  8
0
 10
80.9966
 20
8.84882
 11
81.0991
 21
8.51114
  0
LINE
  8
0
 10
81.0991
 20
8.51114
 11
81.1336
 21
8.15999
  0
LINE
  8
0
 10
81.1336
 20
8.15999
 11
81.0991
 21
7.80884
  0
LINE
  8
0
 10
81.0991
 20
7.80884
 11
80.9966
 21
7.47116
  0
LINE
  8
0
 10
80.9966
 20
7.47116
 11
80.8303
 21
7.15997
  0
LINE
  8
0
 10
80.8303
 20
7.15997
 11
80.6064
 21
6.88721
  0
LINE
  8
0
 10
80.6064
 20
6.88721
 11
80.3337
 21
6.66335
  0
LINE
  8
0
 10
80.3337
 20
6.66335
 11
80.0225
 21
6.49701
  0
LINE
  8
0
 10
80.0225
 20
6.49701
 11
79.6848
 21
6.39458
  0
LINE
  8
0
 10
79.6848
 20
6.39458
 11
79.3336
 21
6.36
  0
LINE
  8
0
 10
79.3336
 20
6.36
 11
78.9825
 21
6.39458
  0
LINE
  8
0
 10
112.649
 20
6.39458
 11
112.312
 21
6.49701
  0
LINE
  8
0
 10
112.312
 20
6.49701
 11
112
 21
6.66335
  0
LINE
  8
0
 10
112
 20
6.66335
 11
111.728
 21
6.88721
  0
LINE
  8
0
 10
111.728
 20
6.88721
 11
111.504
 21
7.15997
  0
LINE
  8
0
 10
111.504
 20
7.15997
 11
111.338
 21
7.47116
  0
LINE
  8
0
 10
111.338
 20
7.47116
 11
111.235
 21
7.80884
  0
LINE
  8
0
 10
111.235
 20
7.80884
 11
111.201
 21
8.15999
  0
LINE
  8
0
 10
111.201
 20
8.15999
 11
111.235
 21
8.51114
  0
LINE
  8
0
 10
111.235
 20
8.51114
 11
111.338
 21
8.84882
  0
LINE
  8
0
 10
111.338
 20
8.84882
 11
111.504
 21
9.16
  0
LINE
  8
0
 10
111.504
 20
9.16
 11
111.728
 21
9.43277
  0
LINE
  8
0
 10
111.728
 20
9.43277
 11
112
 21
9.65663
  0
LINE
  8
0
 10
112
 20
9.65663
 11
112.312
 21
9.82297
  0
LINE
  8
0
 10
112.312
 20
9.82297
 11
112.649
 21
9.9254
  0
LINE
  8
0
 10
112.649
 20
9.9254
 11
113
 21
9.95998
  0
LINE
  8
0
 10
113
 20
9.95998
 11
113.352
 21
9.9254
  0
LINE
  8
0
 10
113.352
 20
9.9254
 11
113.689
 21
9.82297
  0
LINE
  8
0
 10
113.689
 20
9.82297
 11
114.001
 21
9.65663
  0
LINE
  8
0
 10
114.001
 20
9.65663
 11
114.273
 21
9.43277
  0
LINE
  8
0
 10
114.273
 20
9.43277
 11
114.497
 21
9.16
  0
LINE
  8
0
 10
114.497
 20
9.16
 11
114.663
 21
8.84882
  0
LINE
  8
0
 10
114.663
 20
8.84882
 11
114.766
 21
8.51114
  0
LINE
  8
0
 10
114.766
 20
8.51114
 11
114.8
 21
8.15999
  0
LINE
  8
0
 10
114.8
 20
8.15999
 11
114.766
 21
7.80884
  0
LINE
  8
0
 10
114.766
 20
7.80884
 11
114.663
 21
7.47116
  0
LINE
  8
0
 10
114.663
 20
7.47116
 11
114.497
 21
7.15997
  0
LINE
  8
0
 10
114.497
 20
7.15997
 11
114.273
 21
6.88721
  0
LINE
  8
0
 10
114.273
 20
6.88721
 11
114.001
 21
6.66335
  0
LINE
  8
0
 10
114.001
 20
6.66335
 11
113.689
 21
6.49701
  0
LINE
  8
0
 10
113.689
 20
6.49701
 11
113.352
 21
6.39458
  0
LINE
  8
0
 10
113.352
 20
6.39458
 11
113
 21
6.36
  0
LINE
  8
0
 10
113
 20
6.36
 11
112.649
 21
6.39458
  0
LINE
  8
0
 10
146.316
 20
6.39458
 11
145.978
 21
6.49701
  0
LINE
  8
0
 10
145.978
 20
6.49701
 11
145.667
 21
6.66335
  0
LINE
  8
0
 10
145.667
 20
6.66335
 11
145.395
 21
6.88721
  0
LINE
  8
0
 10
145.395
 20
6.88721
 11
145.171
 21
7.15997
  0
LINE
  8
0
 10
145.171
 20
7.15997
 11
145.004
 21
7.47116
  0
LINE
  8
0
 10
145.004
 20
7.47116
 11
144.902
 21
7.80884
  0
LINE
  8
0
 10
144.902
 20
7.80884
 11
144.867
 21
8.15999
  0
LINE
  8
0
 10
144.867
 20
8.15999
 11
144.902
 21
8.51114
  0
LINE
  8
0
 10
144.902
 20
8.51114
 11
145.004
 21
8.84882
  0
LINE
  8
0
 10
145.004
 20
8.84882
 11
145.171
 21
9.16
  0
LINE
  8
0
 10
145.171
 20
9.16
 11
145.395
 21
9.43277
  0
LINE
  8
0
 10
145.395
 20
9.43277
 11
145.667
 21
9.65663
  0
LINE
  8
0
 10
145.667
 20
9.65663
 11
145.978
 21
9.82297
  0
LINE
  8
0
 10
145.978
 20
9.82297
 11
146.316
 21
9.9254
  0
LINE
  8
0
 10
146.316
 20
9.9254
 11
146.667
 21
9.95998
  0
LINE
  8
0
 10
146.667
 20
9.95998
 11
147.018
 21
9.9254
  0
LINE
  8
0
 10
147.018
 20
9.9254
 11
147.356
 21
9.82297
  0
LINE
  8
0
 10
147.356
 20
9.82297
 11
147.667
 21
9.65663
  0
LINE
  8
0
 10
147.667
 20
9.65663
 11
147.94
 21
9.43277
  0
LINE
  8
0
 10
147.94
 20
9.43277
 11
148.164
 21
9.16
  0
LINE
  8
0
 10
148.164
 20
9.16
 11
148.33
 21
8.84882
  0
LINE
  8
0
 10
148.33
 20
8.84882
 11
148.433
 21
8.51114
  0
LINE
  8
0
 10
148.433
 20
8.51114
 11
148.467
 21
8.15999
  0
LINE
  8
0
 10
148.467
 20
8.15999
 11
148.433
 21
7.80884
  0
LINE
  8
0
 10
148.433
 20
7.80884
 11
148.33
 21
7.47116
  0
LINE
  8
0
 10
148.33
 20
7.47116
 11
148.164
 21
7.15997
  0
LINE
  8
0
 10
148.164
 20
7.15997
 11
147.94
 21
6.88721
  0
LINE
  8
0
 10
147.94
 20
6.88721
 11
147.667
 21
6.66335
  0
LINE
  8
0
 10
147.667
 20
6.66335
 11
147.356
 21
6.49701
  0
LINE
  8
0
 10
147.356
 20
6.49701
 11
147.018
 21
6.39458
  0
LINE
  8
0
 10
147.018
 20
6.39458
 11
146.667
 21
6.36
  0
LINE
  8
0
 10
146.667
 20
6.36
 11
146.316
 21
6.39458
  0
LINE
  8
0
 10
179.983
 20
6.39458
 11
179.645
 21
6.49701
  0
LINE
  8
0
 10
179.645
 20
6.49701
 11
179.334
 21
6.66335
  0
LINE
  8
0
 10
179.334
 20
6.66335
 11
179.061
 21
6.88721
  0
LINE
  8
0
 10
179.061
 20
6.88721
 11
178.838
 21
7.15997
  0
LINE
  8
0
 10
178.838
 20
7.15997
 11
178.671
 21
7.47116
  0
LINE
  8
0
 10
178.671
 20
7.47116
 11
178.569
 21
7.80884
  0
LINE
  8
0
 10
178.569
 20
7.80884
 11
178.534
 21
8.15999
  0
LINE
  8
0
 10
178.534
 20
8.15999
 11
178.569
 21
8.51114
  0
LINE
  8
0
 10
178.569
 20
8.51114
 11
178.671
 21
8.84882
  0
LINE
  8
0
 10
178.671
 20
8.84882
 11
178.838
 21
9.16
  0
LINE
  8
0
 10
178.838
 20
9.16
 11
179.061
 21
9.43277
  0
LINE
  8
0
 10
179.061
 20
9.43277
 11
179.334
 21
9.65663
  0
LINE
  8
0
 10
179.334
 20
9.65663
 11
179.645
 21
9.82297
  0
LINE
  8
0
 10
179.645
 20
9.82297
 11
179.983
 21
9.9254
  0
LINE
  8
0
 10
179.983
 20
9.9254
 11
180.334
 21
9.95998
  0
LINE
  8
0
 10
180.334
 20
9.95998
 11
180.685
 21
9.9254
  0
LINE
  8
0
 10
180.685
 20
9.9254
 11
181.023
 21
9.82297
  0
LINE
  8
0
 10
181.023
 20
9.82297
 11
181.334
 21
9.65663
  0
LINE
  8
0
 10
181.334
 20
9.65663
 11
181.607
 21
9.43277
  0
LINE
  8
0
 10
181.607
 20
9.43277
 11
181.831
 21
9.16
  0
LINE
  8
0
 10
181.831
 20
9.16
 11
181.997
 21
8.84882
  0
LINE
  8
0
 10
181.997
 20
8.84882
 11
182.1
 21
8.51114
  0
LINE
  8
0
 10
182.1
 20
8.51114
 11
182.134
 21
8.15999
  0
LINE
  8
0
 10
182.134
 20
8.15999
 11
182.1
 21
7.80884
  0
LINE
  8
0
 10
182.1
 20
7.80884
 11
181.997
 21
7.47116
  0
LINE
  8
0
 10
181.997
 20
7.47116
 11
181.831
 21
7.15997
  0
LINE
  8
0
 10
181.831
 20
7.15997
 11
181.607
 21
6.88721
  0
LINE
  8
0
 10
181.607
 20
6.88721
 11
181.334
 21
6.66335
  0
LINE
  8
0
 10
181.334
 20
6.66335
 11
181.023
 21
6.49701
  0
LINE
  8
0
 10
181.023
 20
6.49701
 11
180.685
 21
6.39458
  0
LINE
  8
0
 10
180.685
 20
6.39458
 11
180.334
 21
6.36
  0
LINE
  8
0
 10
180.334
 20
6.36
 11
179.983
 21
6.39458
  0
LINE
  8
0
 10
213.65
 20
6.39458
 11
213.312
 21
6.49701
  0
LINE
  8
0
 10
213.312
 20
6.49701
 11
213.001
 21
6.66335
  0
LINE
  8
0
 10
213.001
 20
6.66335
 11
212.728
 21
6.88721
  0
LINE
  8
0
 10
212.728
 20
6.88721
 11
212.504
 21
7.15997
  0
LINE
  8
0
 10
212.504
 20
7.15997
 11
212.338
 21
7.47116
  0
LINE
  8
0
 10
212.338
 20
7.47116
 11
212.236
 21
7.80884
  0
LINE
  8
0
 10
212.236
 20
7.80884
 11
212.201
 21
8.15999
  0
LINE
  8
0
 10
212.201
 20
8.15999
 11
212.236
 21
8.51114
  0
LINE
  8
0
 10
212.236
 20
8.51114
 11
212.338
 21
8.84882
  0
LINE
  8
0
 10
212.338
 20
8.84882
 11
212.504
 21
9.16
  0
LINE
  8
0
 10
212.504
 20
9.16
 11
212.728
 21
9.43277
  0
LINE
  8
0
 10
212.728
 20
9.43277
 11
213.001
 21
9.65663
  0
LINE
  8
0
 10
213.001
 20
9.65663
 11
213.312
 21
9.82297
  0
LINE
  8
0
 10
213.312
 20
9.82297
 11
213.65
 21
9.9254
  0
LINE
  8
0
 10
213.65
 20
9.9254
 11
214.001
 21
9.95998
  0
LINE
  8
0
 10
214.001
 20
9.95998
 11
214.352
 21
9.9254
  0
LINE
  8
0
 10
214.352
 20
9.9254
 11
214.69
 21
9.82297
  0
LINE
  8
0
 10
214.69
 20
9.82297
 11
215.001
 21
9.65663
  0
LINE
  8
0
 10
215.001
 20
9.65663
 11
215.274
 21
9.43277
  0
LINE
  8
0
 10
215.274
 20
9.43277
 11
215.498
 21
9.16
  0
LINE
  8
0
 10
215.498
 20
9.16
 11
215.664
 21
8.84882
  0
LINE
  8
0
 10
215.664
 20
8.84882
 11
215.766
 21
8.51114
  0
LINE
  8
0
 10
215.766
 20
8.51114
 11
215.801
 21
8.15999
  0
LINE
  8
0
 10
215.801
 20
8.15999
 11
215.766
 21
7.80884
  0
LINE
  8
0
 10
215.766
 20
7.80884
 11
215.664
 21
7.47116
  0
LINE
  8
0
 10
215.664
 20
7.47116
 11
215.498
 21
7.15997
  0
LINE
  8
0
 10
215.498
 20
7.15997
 11
215.274
 21
6.88721
  0
LINE
  8
0
 10
215.274
 20
6.88721
 11
215.001
 21
6.66335
  0
LINE
  8
0
 10
215.001
 20
6.66335
 11
214.69
 21
6.49701
  0
LINE
  8
0
 10
214.69
 20
6.49701
 11
214.352
 21
6.39458
  0
LINE
  8
0
 10
214.352
 20
6.39458
 11
214.001
 21
6.36
  0
LINE
  8
0
 10
214.001
 20
6.36
 11
213.65
 21
6.39458
  0
LINE
  8
0
 10
247.317
 20
6.39458
 11
246.979
 21
6.49701
  0
LINE
  8
0
 10
246.979
 20
6.49701
 11
246.668
 21
6.66335
  0
LINE
  8
0
 10
246.668
 20
6.66335
 11
246.395
 21
6.88721
  0
LINE
  8
0
 10
246.395
 20
6.88721
 11
246.171
 21
7.15997
  0
LINE
  8
0
 10
246.171
 20
7.15997
 11
246.005
 21
7.47116
  0
LINE
  8
0
 10
246.005
 20
7.47116
 11
245.902
 21
7.80884
  0
LINE
  8
0
 10
245.902
 20
7.80884
 11
245.868
 21
8.15999
  0
LINE
  8
0
 10
245.868
 20
8.15999
 11
245.902
 21
8.51114
  0
LINE
  8
0
 10
245.902
 20
8.51114
 11
246.005
 21
8.84882
  0
LINE
  8
0
 10
246.005
 20
8.84882
 11
246.171
 21
9.16
  0
LINE
  8
0
 10
246.171
 20
9.16
 11
246.395
 21
9.43277
  0
LINE
  8
0
 10
246.395
 20
9.43277
 11
246.668
 21
9.65663
  0
LINE
  8
0
 10
246.668
 20
9.65663
 11
246.979
 21
9.82297
  0
LINE
  8
0
 10
246.979
 20
9.82297
 11
247.317
 21
9.9254
  0
LINE
  8
0
 10
247.317
 20
9.9254
 11
247.668
 21
9.95998
  0
LINE
  8
0
 10
247.668
 20
9.95998
 11
248.019
 21
9.9254
  0
LINE
  8
0
 10
248.019
 20
9.9254
 11
248.357
 21
9.82297
  0
LINE
  8
0
 10
248.357
 20
9.82297
 11
248.668
 21
9.65663
  0
LINE
  8
0
 10
248.668
 20
9.65663
 11
248.941
 21
9.43277
  0
LINE
  8
0
 10
248.941
 20
9.43277
 11
249.164
 21
9.16
  0
LINE
  8
0
 10
249.164
 20
9.16
 11
249.331
 21
8.84882
  0
LINE
  8
0
 10
249.331
 20
8.84882
 11
249.433
 21
8.51114
  0
LINE
  8
0
 10
249.433
 20
8.51114
 11
249.468
 21
8.15999
  0
LINE
  8
0
 10
249.468
 20
8.15999
 11
249.433
 21
7.80884
  0
LINE
  8
0
 10
249.433
 20
7.80884
 11
249.331
 21
7.47116
  0
LINE
  8
0
 10
249.331
 20
7.47116
 11
249.164
 21
7.15997
  0
LINE
  8
0
 10
249.164
 20
7.15997
 11
248.941
 21
6.88721
  0
LINE
  8
0
 10
248.941
 20
6.88721
 11
248.668
 21
6.66335
  0
LINE
  8
0
 10
248.668
 20
6.66335
 11
248.357
 21
6.49701
  0
LINE
  8
0
 10
248.357
 20
6.49701
 11
248.019
 21
6.39458
  0
LINE
  8
0
 10
248.019
 20
6.39458
 11
247.668
 21
6.36
  0
LINE
  8
0
 10
247.668
 20
6.36
 11
247.317
 21
6.39458
  0
LINE
  8
0
 10
280.983
 20
6.39458
 11
280.646
 21
6.49701
  0
LINE
  8
0
 10
280.646
 20
6.49701
 11
280.335
 21
6.66335
  0
LINE
  8
0
 10
280.335
 20
6.66335
 11
280.062
 21
6.88721
  0
LINE
  8
0
 10
280.062
 20
6.88721
 11
279.838
 21
7.15997
  0
LINE
  8
0
 10
279.838
 20
7.15997
 11
279.672
 21
7.47116
  0
LINE
  8
0
 10
279.672
 20
7.47116
 11
279.569
 21
7.80884
  0
LINE
  8
0
 10
279.569
 20
7.80884
 11
279.535
 21
8.15999
  0
LINE
  8
0
 10
279.535
 20
8.15999
 11
279.569
 21
8.51114
  0
LINE
  8
0
 10
279.569
 20
8.51114
 11
279.672
 21
8.84882
  0
LINE
  8
0
 10
279.672
 20
8.84882
 11
279.838
 21
9.16
  0
LINE
  8
0
 10
279.838
 20
9.16
 11
280.062
 21
9.43277
  0
LINE
  8
0
 10
280.062
 20
9.43277
 11
280.335
 21
9.65663
  0
LINE
  8
0
 10
280.335
 20
9.65663
 11
280.646
 21
9.82297
  0
LINE
  8
0
 10
280.646
 20
9.82297
 11
280.983
 21
9.9254
  0
LINE
  8
0
 10
280.983
 20
9.9254
 11
281.335
 21
9.95998
  0
LINE
  8
0
 10
281.335
 20
9.95998
 11
281.686
 21
9.9254
  0
LINE
  8
0
 10
281.686
 20
9.9254
 11
282.023
 21
9.82297
  0
LINE
  8
0
 10
282.023
 20
9.82297
 11
282.335
 21
9.65663
  0
LINE
  8
0
 10
282.335
 20
9.65663
 11
282.607
 21
9.43277
  0
LINE
  8
0
 10
282.607
 20
9.43277
 11
282.831
 21
9.16
  0
LINE
  8
0
 10
282.831
 20
9.16
 11
282.998
 21
8.84882
  0
LINE
  8
0
 10
282.998
 20
8.84882
 11
283.1
 21
8.51114
  0
LINE
  8
0
 10
283.1
 20
8.51114
 11
283.135
 21
8.15999
  0
LINE
  8
0
 10
283.135
 20
8.15999
 11
283.1
 21
7.80884
  0
LINE
  8
0
 10
283.1
 20
7.80884
 11
282.998
 21
7.47116
  0
LINE
  8
0
 10
282.998
 20
7.47116
 11
282.831
 21
7.15997
  0
LINE
  8
0
 10
282.831
 20
7.15997
 11
282.607
 21
6.88721
  0
LINE
  8
0
 10
282.607
 20
6.88721
 11
282.335
 21
6.66335
  0
LINE
  8
0
 10
282.335
 20
6.66335
 11
282.023
 21
6.49701
  0
LINE
  8
0
 10
282.023
 20
6.49701
 11
281.686
 21
6.39458
  0
LINE
  8
0
 10
281.686
 20
6.39458
 11
281.335
 21
6.36
  0
LINE
  8
0
 10
281.335
 20
6.36
 11
280.983
 21
6.39458
  0
LINE
  8
0
 10
314.65
 20
6.39458
 11
314.313
 21
6.49701
  0
LINE
  8
0
 10
314.313
 20
6.49701
 11
314.001
 21
6.66335
  0
LINE
  8
0
 10
314.001
 20
6.66335
 11
313.729
 21
6.88721
  0
LINE
  8
0
 10
313.729
 20
6.88721
 11
313.505
 21
7.15997
  0
LINE
  8
0
 10
313.505
 20
7.15997
 11
313.339
 21
7.47116
  0
LINE
  8
0
 10
313.339
 20
7.47116
 11
313.236
 21
7.80884
  0
LINE
  8
0
 10
313.236
 20
7.80884
 11
313.201
 21
8.15999
  0
LINE
  8
0
 10
313.201
 20
8.15999
 11
313.236
 21
8.51114
  0
LINE
  8
0
 10
313.236
 20
8.51114
 11
313.339
 21
8.84882
  0
LINE
  8
0
 10
313.339
 20
8.84882
 11
313.505
 21
9.16
  0
LINE
  8
0
 10
313.505
 20
9.16
 11
313.729
 21
9.43277
  0
LINE
  8
0
 10
313.729
 20
9.43277
 11
314.001
 21
9.65663
  0
LINE
  8
0
 10
314.001
 20
9.65663
 11
314.313
 21
9.82297
  0
LINE
  8
0
 10
314.313
 20
9.82297
 11
314.65
 21
9.9254
  0
LINE
  8
0
 10
314.65
 20
9.9254
 11
315.001
 21
9.95998
  0
LINE
  8
0
 10
315.001
 20
9.95998
 11
315.353
 21
9.9254
  0
LINE
  8
0
 10
315.353
 20
9.9254
 11
315.69
 21
9.82297
  0
LINE
  8
0
 10
315.69
 20
9.82297
 11
316.001
 21
9.65663
  0
LINE
  8
0
 10
316.001
 20
9.65663
 11
316.274
 21
9.43277
  0
LINE
  8
0
 10
316.274
 20
9.43277
 11
316.498
 21
9.16
  0
LINE
  8
0
 10
316.498
 20
9.16
 11
316.664
 21
8.84882
  0
LINE
  8
0
 10
316.664
 20
8.84882
 11
316.767
 21
8.51114
  0
LINE
  8
0
 10
316.767
 20
8.51114
 11
316.801
 21
8.15999
  0
LINE
  8
0
 10
316.801
 20
8.15999
 11
316.767
 21
7.80884
  0
LINE
  8
0
 10
316.767
 20
7.80884
 11
316.664
 21
7.47116
  0
LINE
  8
0
 10
316.664
 20
7.47116
 11
316.498
 21
7.15997
  0
LINE
  8
0
 10
316.498
 20
7.15997
 11
316.274
 21
6.88721
  0
LINE
  8
0
 10
316.274
 20
6.88721
 11
316.001
 21
6.66335
  0
LINE
  8
0
 10
316.001
 20
6.66335
 11
315.69
 21
6.49701
  0
LINE
  8
0
 10
315.69
 20
6.49701
 11
315.353
 21
6.39458
  0
LINE
  8
0
 10
315.353
 20
6.39458
 11
315.001
 21
6.36
  0
LINE
  8
0
 10
315.001
 20
6.36
 11
314.65
 21
6.39458
  0
ENDSEC
  0
SECTION
  2
OBJECTS
  0
DICTIONARY
  0
ENDSEC
  0
EOF
