  0
SECTION
  2
BLOCKS
  0
ENDSEC
  0
SECTION
  2
ENTITIES
  0
LINE
  8
0
 10
406
 20
80
 11
4
 21
80
  0
LINE
  8
0
 10
4
 20
80
 11
4
 21
71.35
  0
LINE
  8
0
 10
4
 20
71.35
 11
0
 21
71.35
  0
LINE
  8
0
 10
0
 20
71.35
 11
0
 21
0
  0
LINE
  8
0
 10
0
 20
0
 11
406
 21
0
  0
LINE
  8
0
 10
406
 20
0
 11
406
 21
80
  0
LINE
  8
0
 10
27.5
 20
56.5
 11
27.5
 21
61.5
  0
LINE
  8
0
 10
27.5
 20
61.5
 11
52.5
 21
61.5
  0
LINE
  8
0
 10
52.5
 20
61.5
 11
52.5
 21
56.5
  0
LINE
  8
0
 10
52.5
 20
56.5
 11
27.5
 21
56.5
  0
LINE
  8
0
 10
137.5
 20
56.5
 11
137.5
 21
61.5
  0
LINE
  8
0
 10
137.5
 20
61.5
 11
162.5
 21
61.5
  0
LINE
  8
0
 10
162.5
 20
61.5
 11
162.5
 21
56.5
  0
LINE
  8
0
 10
162.5
 20
56.5
 11
137.5
 21
56.5
  0
LINE
  8
0
 10
247.5
 20
56.5
 11
247.5
 21
61.5
  0
LINE
  8
0
 10
247.5
 20
61.5
 11
272.5
 21
61.5
  0
LINE
  8
0
 10
272.5
 20
61.5
 11
272.5
 21
56.5
  0
LINE
  8
0
 10
272.5
 20
56.5
 11
247.5
 21
56.5
  0
LINE
  8
0
 10
336.5
 20
56.5
 11
336.5
 21
61.5
  0
LINE
  8
0
 10
336.5
 20
61.5
 11
361.5
 21
61.5
  0
LINE
  8
0
 10
361.5
 20
61.5
 11
361.5
 21
56.5
  0
LINE
  8
0
 10
361.5
 20
56.5
 11
336.5
 21
56.5
  0
LINE
  8
0
 10
27.5
 20
18.5
 11
27.5
 21
23.5
  0
LINE
  8
0
 10
27.5
 20
23.5
 11
52.5
 21
23.5
  0
LINE
  8
0
 10
52.5
 20
23.5
 11
52.5
 21
18.5
  0
LINE
  8
0
 10
52.5
 20
18.5
 11
27.5
 21
18.5
  0
LINE
  8
0
 10
137.5
 20
18.5
 11
137.5
 21
23.5
  0
LINE
  8
0
 10
137.5
 20
23.5
 11
162.5
 21
23.5
  0
LINE
  8
0
 10
162.5
 20
23.5
 11
162.5
 21
18.5
  0
LINE
  8
0
 10
162.5
 20
18.5
 11
137.5
 21
18.5
  0
LINE
  8
0
 10
247.5
 20
18.5
 11
247.5
 21
23.5
  0
LINE
  8
0
 10
247.5
 20
23.5
 11
272.5
 21
23.5
  0
LINE
  8
0
 10
272.5
 20
23.5
 11
272.5
 21
18.5
  0
LINE
  8
0
 10
272.5
 20
18.5
 11
247.5
 21
18.5
  0
LINE
  8
0
 10
336.5
 20
18.5
 11
336.5
 21
23.5
  0
LINE
  8
0
 10
336.5
 20
23.5
 11
361.5
 21
23.5
  0
LINE
  8
0
 10
361.5
 20
23.5
 11
361.5
 21
18.5
  0
LINE
  8
0
 10
361.5
 20
18.5
 11
336.5
 21
18.5
  0
ENDSEC
  0
SECTION
  2
OBJECTS
  0
DICTIONARY
  0
ENDSEC
  0
EOF
