  0
SECTION
  2
BLOCKS
  0
ENDSEC
  0
SECTION
  2
ENTITIES
  0
LINE
  8
0
 10
30
 20
89
 11
30
 21
65.5
  0
LINE
  8
0
 10
30
 20
65.5
 11
25
 21
65.5
  0
LINE
  8
0
 10
25
 20
65.5
 11
25
 21
89
  0
LINE
  8
0
 10
25
 20
89
 11
0
 21
89
  0
LINE
  8
0
 10
0
 20
89
 11
0
 21
0
  0
LINE
  8
0
 10
0
 20
0
 11
25
 21
0
  0
LINE
  8
0
 10
25
 20
0
 11
25
 21
24.5
  0
LINE
  8
0
 10
25
 20
24.5
 11
30
 21
24.5
  0
LINE
  8
0
 10
30
 20
24.5
 11
30
 21
0
  0
LINE
  8
0
 10
30
 20
0
 11
55
 21
0
  0
LINE
  8
0
 10
55
 20
0
 11
55
 21
24.5
  0
LINE
  8
0
 10
55
 20
24.5
 11
60
 21
24.5
  0
LINE
  8
0
 10
60
 20
24.5
 11
60
 21
0
  0
LINE
  8
0
 10
60
 20
0
 11
85
 21
0
  0
LINE
  8
0
 10
85
 20
0
 11
85
 21
89
  0
LINE
  8
0
 10
85
 20
89
 11
60
 21
89
  0
LINE
  8
0
 10
60
 20
89
 11
60
 21
65.5
  0
LINE
  8
0
 10
60
 20
65.5
 11
55
 21
65.5
  0
LINE
  8
0
 10
55
 20
65.5
 11
55
 21
89
  0
LINE
  8
0
 10
55
 20
89
 11
30
 21
89
  0
LINE
  8
0
 10
30
 20
55.5
 11
30
 21
34.5
  0
LINE
  8
0
 10
30
 20
34.5
 11
25
 21
34.5
  0
LINE
  8
0
 10
25
 20
34.5
 11
25
 21
55.5
  0
LINE
  8
0
 10
25
 20
55.5
 11
30
 21
55.5
  0
LINE
  8
0
 10
4.64999
 20
75.95
 11
4.64999
 21
84.25
  0
LINE
  8
0
 10
4.64999
 20
84.25
 11
20.35
 21
84.25
  0
LINE
  8
0
 10
20.35
 20
84.25
 11
20.35
 21
75.95
  0
LINE
  8
0
 10
20.35
 20
75.95
 11
4.64999
 21
75.95
  0
LINE
  8
0
 10
65.65
 20
75.1
 11
65.65
 21
83.9
  0
LINE
  8
0
 10
65.65
 20
83.9
 11
79.35
 21
83.9
  0
LINE
  8
0
 10
79.35
 20
83.9
 11
79.35
 21
75.1
  0
LINE
  8
0
 10
79.35
 20
75.1
 11
65.65
 21
75.1
  0
LINE
  8
0
 10
5.64999
 20
5.09999
 11
5.64999
 21
13.9
  0
LINE
  8
0
 10
5.64999
 20
13.9
 11
19.35
 21
13.9
  0
LINE
  8
0
 10
19.35
 20
13.9
 11
19.35
 21
5.09999
  0
LINE
  8
0
 10
19.35
 20
5.09999
 11
5.64999
 21
5.09999
  0
LINE
  8
0
 10
64.65
 20
4.75
 11
64.65
 21
13.05
  0
LINE
  8
0
 10
64.65
 20
13.05
 11
80.35
 21
13.05
  0
LINE
  8
0
 10
80.35
 20
13.05
 11
80.35
 21
4.75
  0
LINE
  8
0
 10
80.35
 20
4.75
 11
64.65
 21
4.75
  0
LINE
  8
0
 10
60
 20
55.5
 11
60
 21
34.5
  0
LINE
  8
0
 10
60
 20
34.5
 11
55
 21
34.5
  0
LINE
  8
0
 10
55
 20
34.5
 11
55
 21
55.5
  0
LINE
  8
0
 10
55
 20
55.5
 11
60
 21
55.5
  0
ENDSEC
  0
SECTION
  2
OBJECTS
  0
DICTIONARY
  0
ENDSEC
  0
EOF
