  0
SECTION
  2
BLOCKS
  0
ENDSEC
  0
SECTION
  2
ENTITIES
  0
LINE
  8
0
 10
84
 20
80
 11
5
 21
80
  0
LINE
  8
0
 10
5
 20
80
 11
5
 21
0
  0
LINE
  8
0
 10
5
 20
0
 11
84
 21
0
  0
LINE
  8
0
 10
84
 20
0
 11
84
 21
80
  0
LINE
  8
0
 10
12.6488
 20
70.0746
 11
12.3112
 21
70.177
  0
LINE
  8
0
 10
12.3112
 20
70.177
 11
12
 21
70.3434
  0
LINE
  8
0
 10
12
 20
70.3434
 11
11.7272
 21
70.5672
  0
LINE
  8
0
 10
11.7272
 20
70.5672
 11
11.5034
 21
70.84
  0
LINE
  8
0
 10
11.5034
 20
70.84
 11
11.337
 21
71.1512
  0
LINE
  8
0
 10
11.337
 20
71.1512
 11
11.2346
 21
71.4888
  0
LINE
  8
0
 10
11.2346
 20
71.4888
 11
11.2
 21
71.84
  0
LINE
  8
0
 10
11.2
 20
71.84
 11
11.2346
 21
72.1911
  0
LINE
  8
0
 10
11.2346
 20
72.1911
 11
11.337
 21
72.5288
  0
LINE
  8
0
 10
11.337
 20
72.5288
 11
11.5034
 21
72.84
  0
LINE
  8
0
 10
11.5034
 20
72.84
 11
11.7272
 21
73.1128
  0
LINE
  8
0
 10
11.7272
 20
73.1128
 11
12
 21
73.3366
  0
LINE
  8
0
 10
12
 20
73.3366
 11
12.3112
 21
73.503
  0
LINE
  8
0
 10
12.3112
 20
73.503
 11
12.6488
 21
73.6054
  0
LINE
  8
0
 10
12.6488
 20
73.6054
 11
13
 21
73.64
  0
LINE
  8
0
 10
13
 20
73.64
 11
13.3512
 21
73.6054
  0
LINE
  8
0
 10
13.3512
 20
73.6054
 11
13.6888
 21
73.503
  0
LINE
  8
0
 10
13.6888
 20
73.503
 11
14
 21
73.3366
  0
LINE
  8
0
 10
14
 20
73.3366
 11
14.2728
 21
73.1128
  0
LINE
  8
0
 10
14.2728
 20
73.1128
 11
14.4966
 21
72.84
  0
LINE
  8
0
 10
14.4966
 20
72.84
 11
14.663
 21
72.5288
  0
LINE
  8
0
 10
14.663
 20
72.5288
 11
14.7654
 21
72.1911
  0
LINE
  8
0
 10
14.7654
 20
72.1911
 11
14.8
 21
71.84
  0
LINE
  8
0
 10
14.8
 20
71.84
 11
14.7654
 21
71.4888
  0
LINE
  8
0
 10
14.7654
 20
71.4888
 11
14.663
 21
71.1512
  0
LINE
  8
0
 10
14.663
 20
71.1512
 11
14.4966
 21
70.84
  0
LINE
  8
0
 10
14.4966
 20
70.84
 11
14.2728
 21
70.5672
  0
LINE
  8
0
 10
14.2728
 20
70.5672
 11
14
 21
70.3434
  0
LINE
  8
0
 10
14
 20
70.3434
 11
13.6888
 21
70.177
  0
LINE
  8
0
 10
13.6888
 20
70.177
 11
13.3512
 21
70.0746
  0
LINE
  8
0
 10
13.3512
 20
70.0746
 11
13
 21
70.04
  0
LINE
  8
0
 10
13
 20
70.04
 11
12.6488
 21
70.0746
  0
LINE
  8
0
 10
41.6488
 20
70.0746
 11
41.3112
 21
70.177
  0
LINE
  8
0
 10
41.3112
 20
70.177
 11
41
 21
70.3434
  0
LINE
  8
0
 10
41
 20
70.3434
 11
40.7272
 21
70.5672
  0
LINE
  8
0
 10
40.7272
 20
70.5672
 11
40.5034
 21
70.84
  0
LINE
  8
0
 10
40.5034
 20
70.84
 11
40.337
 21
71.1512
  0
LINE
  8
0
 10
40.337
 20
71.1512
 11
40.2346
 21
71.4888
  0
LINE
  8
0
 10
40.2346
 20
71.4888
 11
40.2
 21
71.84
  0
LINE
  8
0
 10
40.2
 20
71.84
 11
40.2346
 21
72.1911
  0
LINE
  8
0
 10
40.2346
 20
72.1911
 11
40.337
 21
72.5288
  0
LINE
  8
0
 10
40.337
 20
72.5288
 11
40.5034
 21
72.84
  0
LINE
  8
0
 10
40.5034
 20
72.84
 11
40.7272
 21
73.1128
  0
LINE
  8
0
 10
40.7272
 20
73.1128
 11
41
 21
73.3366
  0
LINE
  8
0
 10
41
 20
73.3366
 11
41.3112
 21
73.503
  0
LINE
  8
0
 10
41.3112
 20
73.503
 11
41.6488
 21
73.6054
  0
LINE
  8
0
 10
41.6488
 20
73.6054
 11
42
 21
73.64
  0
LINE
  8
0
 10
42
 20
73.64
 11
42.3512
 21
73.6054
  0
LINE
  8
0
 10
42.3512
 20
73.6054
 11
42.6888
 21
73.503
  0
LINE
  8
0
 10
42.6888
 20
73.503
 11
43
 21
73.3366
  0
LINE
  8
0
 10
43
 20
73.3366
 11
43.2728
 21
73.1128
  0
LINE
  8
0
 10
43.2728
 20
73.1128
 11
43.4966
 21
72.84
  0
LINE
  8
0
 10
43.4966
 20
72.84
 11
43.663
 21
72.5288
  0
LINE
  8
0
 10
43.663
 20
72.5288
 11
43.7654
 21
72.1911
  0
LINE
  8
0
 10
43.7654
 20
72.1911
 11
43.8
 21
71.84
  0
LINE
  8
0
 10
43.8
 20
71.84
 11
43.7654
 21
71.4888
  0
LINE
  8
0
 10
43.7654
 20
71.4888
 11
43.663
 21
71.1512
  0
LINE
  8
0
 10
43.663
 20
71.1512
 11
43.4966
 21
70.84
  0
LINE
  8
0
 10
43.4966
 20
70.84
 11
43.2728
 21
70.5672
  0
LINE
  8
0
 10
43.2728
 20
70.5672
 11
43
 21
70.3434
  0
LINE
  8
0
 10
43
 20
70.3434
 11
42.6888
 21
70.177
  0
LINE
  8
0
 10
42.6888
 20
70.177
 11
42.3512
 21
70.0746
  0
LINE
  8
0
 10
42.3512
 20
70.0746
 11
42
 21
70.04
  0
LINE
  8
0
 10
42
 20
70.04
 11
41.6488
 21
70.0746
  0
LINE
  8
0
 10
70.6488
 20
70.0746
 11
70.3112
 21
70.177
  0
LINE
  8
0
 10
70.3112
 20
70.177
 11
70
 21
70.3434
  0
LINE
  8
0
 10
70
 20
70.3434
 11
69.7272
 21
70.5672
  0
LINE
  8
0
 10
69.7272
 20
70.5672
 11
69.5034
 21
70.84
  0
LINE
  8
0
 10
69.5034
 20
70.84
 11
69.337
 21
71.1512
  0
LINE
  8
0
 10
69.337
 20
71.1512
 11
69.2346
 21
71.4888
  0
LINE
  8
0
 10
69.2346
 20
71.4888
 11
69.2
 21
71.84
  0
LINE
  8
0
 10
69.2
 20
71.84
 11
69.2346
 21
72.1911
  0
LINE
  8
0
 10
69.2346
 20
72.1911
 11
69.337
 21
72.5288
  0
LINE
  8
0
 10
69.337
 20
72.5288
 11
69.5034
 21
72.84
  0
LINE
  8
0
 10
69.5034
 20
72.84
 11
69.7272
 21
73.1128
  0
LINE
  8
0
 10
69.7272
 20
73.1128
 11
70
 21
73.3366
  0
LINE
  8
0
 10
70
 20
73.3366
 11
70.3112
 21
73.503
  0
LINE
  8
0
 10
70.3112
 20
73.503
 11
70.6488
 21
73.6054
  0
LINE
  8
0
 10
70.6488
 20
73.6054
 11
71
 21
73.64
  0
LINE
  8
0
 10
71
 20
73.64
 11
71.3512
 21
73.6054
  0
LINE
  8
0
 10
71.3512
 20
73.6054
 11
71.6888
 21
73.503
  0
LINE
  8
0
 10
71.6888
 20
73.503
 11
72
 21
73.3366
  0
LINE
  8
0
 10
72
 20
73.3366
 11
72.2728
 21
73.1128
  0
LINE
  8
0
 10
72.2728
 20
73.1128
 11
72.4966
 21
72.84
  0
LINE
  8
0
 10
72.4966
 20
72.84
 11
72.663
 21
72.5288
  0
LINE
  8
0
 10
72.663
 20
72.5288
 11
72.7654
 21
72.1911
  0
LINE
  8
0
 10
72.7654
 20
72.1911
 11
72.8
 21
71.84
  0
LINE
  8
0
 10
72.8
 20
71.84
 11
72.7654
 21
71.4888
  0
LINE
  8
0
 10
72.7654
 20
71.4888
 11
72.663
 21
71.1512
  0
LINE
  8
0
 10
72.663
 20
71.1512
 11
72.4966
 21
70.84
  0
LINE
  8
0
 10
72.4966
 20
70.84
 11
72.2728
 21
70.5672
  0
LINE
  8
0
 10
72.2728
 20
70.5672
 11
72
 21
70.3434
  0
LINE
  8
0
 10
72
 20
70.3434
 11
71.6888
 21
70.177
  0
LINE
  8
0
 10
71.6888
 20
70.177
 11
71.3512
 21
70.0746
  0
LINE
  8
0
 10
71.3512
 20
70.0746
 11
71
 21
70.04
  0
LINE
  8
0
 10
71
 20
70.04
 11
70.6488
 21
70.0746
  0
LINE
  8
0
 10
12.6488
 20
6.39458
 11
12.3112
 21
6.49701
  0
LINE
  8
0
 10
12.3112
 20
6.49701
 11
12
 21
6.66335
  0
LINE
  8
0
 10
12
 20
6.66335
 11
11.7272
 21
6.88721
  0
LINE
  8
0
 10
11.7272
 20
6.88721
 11
11.5034
 21
7.15997
  0
LINE
  8
0
 10
11.5034
 20
7.15997
 11
11.337
 21
7.47116
  0
LINE
  8
0
 10
11.337
 20
7.47116
 11
11.2346
 21
7.80884
  0
LINE
  8
0
 10
11.2346
 20
7.80884
 11
11.2
 21
8.15999
  0
LINE
  8
0
 10
11.2
 20
8.15999
 11
11.2346
 21
8.51114
  0
LINE
  8
0
 10
11.2346
 20
8.51114
 11
11.337
 21
8.84882
  0
LINE
  8
0
 10
11.337
 20
8.84882
 11
11.5034
 21
9.16
  0
LINE
  8
0
 10
11.5034
 20
9.16
 11
11.7272
 21
9.43277
  0
LINE
  8
0
 10
11.7272
 20
9.43277
 11
12
 21
9.65663
  0
LINE
  8
0
 10
12
 20
9.65663
 11
12.3112
 21
9.82297
  0
LINE
  8
0
 10
12.3112
 20
9.82297
 11
12.6488
 21
9.9254
  0
LINE
  8
0
 10
12.6488
 20
9.9254
 11
13
 21
9.95998
  0
LINE
  8
0
 10
13
 20
9.95998
 11
13.3512
 21
9.9254
  0
LINE
  8
0
 10
13.3512
 20
9.9254
 11
13.6888
 21
9.82297
  0
LINE
  8
0
 10
13.6888
 20
9.82297
 11
14
 21
9.65663
  0
LINE
  8
0
 10
14
 20
9.65663
 11
14.2728
 21
9.43277
  0
LINE
  8
0
 10
14.2728
 20
9.43277
 11
14.4966
 21
9.16
  0
LINE
  8
0
 10
14.4966
 20
9.16
 11
14.663
 21
8.84882
  0
LINE
  8
0
 10
14.663
 20
8.84882
 11
14.7654
 21
8.51114
  0
LINE
  8
0
 10
14.7654
 20
8.51114
 11
14.8
 21
8.15999
  0
LINE
  8
0
 10
14.8
 20
8.15999
 11
14.7654
 21
7.80884
  0
LINE
  8
0
 10
14.7654
 20
7.80884
 11
14.663
 21
7.47116
  0
LINE
  8
0
 10
14.663
 20
7.47116
 11
14.4966
 21
7.15997
  0
LINE
  8
0
 10
14.4966
 20
7.15997
 11
14.2728
 21
6.88721
  0
LINE
  8
0
 10
14.2728
 20
6.88721
 11
14
 21
6.66335
  0
LINE
  8
0
 10
14
 20
6.66335
 11
13.6888
 21
6.49701
  0
LINE
  8
0
 10
13.6888
 20
6.49701
 11
13.3512
 21
6.39458
  0
LINE
  8
0
 10
13.3512
 20
6.39458
 11
13
 21
6.36
  0
LINE
  8
0
 10
13
 20
6.36
 11
12.6488
 21
6.39458
  0
LINE
  8
0
 10
41.6488
 20
6.39458
 11
41.3112
 21
6.49701
  0
LINE
  8
0
 10
41.3112
 20
6.49701
 11
41
 21
6.66335
  0
LINE
  8
0
 10
41
 20
6.66335
 11
40.7272
 21
6.88721
  0
LINE
  8
0
 10
40.7272
 20
6.88721
 11
40.5034
 21
7.15997
  0
LINE
  8
0
 10
40.5034
 20
7.15997
 11
40.337
 21
7.47116
  0
LINE
  8
0
 10
40.337
 20
7.47116
 11
40.2346
 21
7.80884
  0
LINE
  8
0
 10
40.2346
 20
7.80884
 11
40.2
 21
8.15999
  0
LINE
  8
0
 10
40.2
 20
8.15999
 11
40.2346
 21
8.51114
  0
LINE
  8
0
 10
40.2346
 20
8.51114
 11
40.337
 21
8.84882
  0
LINE
  8
0
 10
40.337
 20
8.84882
 11
40.5034
 21
9.16
  0
LINE
  8
0
 10
40.5034
 20
9.16
 11
40.7272
 21
9.43277
  0
LINE
  8
0
 10
40.7272
 20
9.43277
 11
41
 21
9.65663
  0
LINE
  8
0
 10
41
 20
9.65663
 11
41.3112
 21
9.82297
  0
LINE
  8
0
 10
41.3112
 20
9.82297
 11
41.6488
 21
9.9254
  0
LINE
  8
0
 10
41.6488
 20
9.9254
 11
42
 21
9.95998
  0
LINE
  8
0
 10
42
 20
9.95998
 11
42.3512
 21
9.9254
  0
LINE
  8
0
 10
42.3512
 20
9.9254
 11
42.6888
 21
9.82297
  0
LINE
  8
0
 10
42.6888
 20
9.82297
 11
43
 21
9.65663
  0
LINE
  8
0
 10
43
 20
9.65663
 11
43.2728
 21
9.43277
  0
LINE
  8
0
 10
43.2728
 20
9.43277
 11
43.4966
 21
9.16
  0
LINE
  8
0
 10
43.4966
 20
9.16
 11
43.663
 21
8.84882
  0
LINE
  8
0
 10
43.663
 20
8.84882
 11
43.7654
 21
8.51114
  0
LINE
  8
0
 10
43.7654
 20
8.51114
 11
43.8
 21
8.15999
  0
LINE
  8
0
 10
43.8
 20
8.15999
 11
43.7654
 21
7.80884
  0
LINE
  8
0
 10
43.7654
 20
7.80884
 11
43.663
 21
7.47116
  0
LINE
  8
0
 10
43.663
 20
7.47116
 11
43.4966
 21
7.15997
  0
LINE
  8
0
 10
43.4966
 20
7.15997
 11
43.2728
 21
6.88721
  0
LINE
  8
0
 10
43.2728
 20
6.88721
 11
43
 21
6.66335
  0
LINE
  8
0
 10
43
 20
6.66335
 11
42.6888
 21
6.49701
  0
LINE
  8
0
 10
42.6888
 20
6.49701
 11
42.3512
 21
6.39458
  0
LINE
  8
0
 10
42.3512
 20
6.39458
 11
42
 21
6.36
  0
LINE
  8
0
 10
42
 20
6.36
 11
41.6488
 21
6.39458
  0
LINE
  8
0
 10
70.6488
 20
6.39458
 11
70.3112
 21
6.49701
  0
LINE
  8
0
 10
70.3112
 20
6.49701
 11
70
 21
6.66335
  0
LINE
  8
0
 10
70
 20
6.66335
 11
69.7272
 21
6.88721
  0
LINE
  8
0
 10
69.7272
 20
6.88721
 11
69.5034
 21
7.15997
  0
LINE
  8
0
 10
69.5034
 20
7.15997
 11
69.337
 21
7.47116
  0
LINE
  8
0
 10
69.337
 20
7.47116
 11
69.2346
 21
7.80884
  0
LINE
  8
0
 10
69.2346
 20
7.80884
 11
69.2
 21
8.15999
  0
LINE
  8
0
 10
69.2
 20
8.15999
 11
69.2346
 21
8.51114
  0
LINE
  8
0
 10
69.2346
 20
8.51114
 11
69.337
 21
8.84882
  0
LINE
  8
0
 10
69.337
 20
8.84882
 11
69.5034
 21
9.16
  0
LINE
  8
0
 10
69.5034
 20
9.16
 11
69.7272
 21
9.43277
  0
LINE
  8
0
 10
69.7272
 20
9.43277
 11
70
 21
9.65663
  0
LINE
  8
0
 10
70
 20
9.65663
 11
70.3112
 21
9.82297
  0
LINE
  8
0
 10
70.3112
 20
9.82297
 11
70.6488
 21
9.9254
  0
LINE
  8
0
 10
70.6488
 20
9.9254
 11
71
 21
9.95998
  0
LINE
  8
0
 10
71
 20
9.95998
 11
71.3512
 21
9.9254
  0
LINE
  8
0
 10
71.3512
 20
9.9254
 11
71.6888
 21
9.82297
  0
LINE
  8
0
 10
71.6888
 20
9.82297
 11
72
 21
9.65663
  0
LINE
  8
0
 10
72
 20
9.65663
 11
72.2728
 21
9.43277
  0
LINE
  8
0
 10
72.2728
 20
9.43277
 11
72.4966
 21
9.16
  0
LINE
  8
0
 10
72.4966
 20
9.16
 11
72.663
 21
8.84882
  0
LINE
  8
0
 10
72.663
 20
8.84882
 11
72.7654
 21
8.51114
  0
LINE
  8
0
 10
72.7654
 20
8.51114
 11
72.8
 21
8.15999
  0
LINE
  8
0
 10
72.8
 20
8.15999
 11
72.7654
 21
7.80884
  0
LINE
  8
0
 10
72.7654
 20
7.80884
 11
72.663
 21
7.47116
  0
LINE
  8
0
 10
72.663
 20
7.47116
 11
72.4966
 21
7.15997
  0
LINE
  8
0
 10
72.4966
 20
7.15997
 11
72.2728
 21
6.88721
  0
LINE
  8
0
 10
72.2728
 20
6.88721
 11
72
 21
6.66335
  0
LINE
  8
0
 10
72
 20
6.66335
 11
71.6888
 21
6.49701
  0
LINE
  8
0
 10
71.6888
 20
6.49701
 11
71.3512
 21
6.39458
  0
LINE
  8
0
 10
71.3512
 20
6.39458
 11
71
 21
6.36
  0
LINE
  8
0
 10
71
 20
6.36
 11
70.6488
 21
6.39458
  0
ENDSEC
  0
SECTION
  2
OBJECTS
  0
DICTIONARY
  0
ENDSEC
  0
EOF
